<svg width="28" height="32" viewBox="0 0 28 32" fill="none" xmlns="http://www.w3.org/2000/svg">
<mask id="mask0_214_670" style="mask-type:alpha" maskUnits="userSpaceOnUse" x="2" y="4" width="24" height="24">
<path d="M2 4H26V28H2V4Z" fill="white"/>
<path d="M25.6819 11.1765C25.4706 10.386 25.1394 9.63258 24.6998 8.94251C22.9086 6.51091 22.5337 6.78226 22.3542 6.93802C22.1639 7.45965 22.9086 7.71067 24.1525 9.44479C24.5432 10.0575 24.8377 10.7265 25.0258 11.4285C25.1066 11.7324 25.0632 12.0547 24.9068 12.3123C24.7505 12.5694 24.509 12.7171 24.2441 12.7171H21.6359C21.2081 12.7171 20.8485 12.3165 20.8179 11.8054C20.8133 11.7319 20.8082 11.6584 20.8028 11.585V11.5786L20.802 11.5747C20.6698 9.74038 20.251 7.52895 19.099 6.11491C20.5836 6.34585 21.9611 7.03206 23.0614 8.10324C23.2096 8.24724 23.4263 8.21957 23.5463 8.04202C23.6659 7.86422 23.6431 7.60365 23.4952 7.45989C22.0816 6.08357 20.2534 5.29181 18.3156 5.20781V4.65875C18.3156 4.43026 18.1613 4.24487 17.9712 4.24487C17.781 4.24487 17.6267 4.43026 17.6267 4.65875V5.20732C15.9474 5.27859 14.3671 5.87344 13.0378 6.93802C11.6859 8.02022 10.7 9.52536 10.2606 11.1762C10.112 11.7351 10.1916 12.327 10.4793 12.8006C10.7666 13.2735 11.2108 13.5449 11.6982 13.5449H14.3063C14.7731 13.5449 15.1956 13.2853 15.474 12.878C15.4921 12.9045 15.5108 12.9309 15.5303 12.9561C15.8063 13.3183 16.1955 13.5302 16.603 13.5436V19.9788L15.7956 19.0081C15.4152 18.5511 14.9095 18.2991 14.3715 18.2991H7.9221L4.80283 14.5497C4.51973 14.2093 4.14332 14.0219 3.74291 14.0219C3.34251 14.0219 2.96634 14.2093 2.683 14.5497C2.09891 15.2523 2.09891 16.3952 2.683 17.0976L8.12071 23.6339C8.18806 23.7147 9.30455 24.9948 9.39271 24.9948C9.48087 24.9948 9.67728 24.364 9.74463 24.2832C9.27271 23.9457 8.74226 23.21 8.60781 23.0484L6.78528 20.8575C6.81296 20.8602 6.84074 20.8616 6.86855 20.8617H9.07997L10.3948 22.4423C10.5626 22.6438 10.7852 22.7547 11.0223 22.7547H15.8974L17.4851 24.6632C17.4966 24.677 17.5091 24.6892 17.5209 24.7024H11.0223C10.9713 24.7023 10.9205 24.7003 10.8697 24.6965C10.8579 24.6947 10.8461 24.6937 10.8342 24.6934C10.448 24.6591 10.075 24.519 9.74438 24.2832C9.58128 24.1663 9.36969 24.231 9.27271 24.4274C9.17549 24.6241 9.22936 24.878 9.39271 24.9948C9.67514 25.1981 9.99211 25.3485 10.3282 25.4386L9.84332 26.7439C9.80234 26.8546 9.78509 26.9727 9.79269 27.0905C9.80028 27.2082 9.83255 27.3231 9.8874 27.4276C9.99834 27.6326 10.1862 27.7551 10.3892 27.7551H11.5275C11.827 27.7551 12.0922 27.5391 12.2034 27.2048L12.7603 25.5299H20.5241L21.0807 27.205C21.1919 27.5391 21.4574 27.7551 21.7566 27.7551H22.8947C23.0982 27.7551 23.2855 27.6326 23.3962 27.4276C23.5069 27.2224 23.5236 26.9668 23.4405 26.7436L22.9899 25.5299H23.4905C24.317 25.5299 24.9893 24.7218 24.9893 23.7285C24.9893 22.7349 24.317 21.9265 23.4905 21.9265H19.3395V13.5436C19.747 13.5302 20.1361 13.3183 20.4121 12.9559C20.4317 12.9307 20.4503 12.9045 20.4685 12.8778C20.7469 13.2855 21.1694 13.5449 21.6359 13.5449H24.2441C24.7314 13.5449 25.1759 13.2735 25.4632 12.8004C25.7507 12.327 25.8305 11.7351 25.6819 11.1765V11.1765ZM11.5635 26.8979C11.5574 26.9158 11.5434 26.9273 11.5272 26.9273H10.5295L11.0485 25.5302H12.0183L11.5635 26.8979ZM15.14 11.5756V11.5786L15.1395 11.5835C15.1341 11.6582 15.129 11.7321 15.1248 11.8056C15.0937 12.3167 14.7342 12.7171 14.3066 12.7171H11.6984C11.4334 12.7171 11.1917 12.5697 11.0355 12.3125C10.879 12.0549 10.8356 11.7326 10.9165 11.4285C11.3083 9.95565 12.1973 8.60553 13.4196 7.62716C14.4281 6.81973 15.5957 6.30593 16.8445 6.11369C15.691 7.52797 15.2727 9.74063 15.14 11.5756V11.5756ZM5.80593 19.6808L3.1701 16.5123C2.85418 16.1327 2.85418 15.5148 3.1701 15.1352C3.32316 14.9513 3.52667 14.8502 3.74291 14.8502C3.9594 14.8502 4.16291 14.9513 4.31597 15.1352L6.94814 18.2993H6.86855C6.28079 18.2993 5.80251 18.8741 5.80251 19.5806C5.80251 19.6144 5.80398 19.6475 5.80593 19.6805V19.6808ZM11.0223 21.927C10.9951 21.9267 10.9684 21.9203 10.9441 21.9082C10.9198 21.8961 10.8985 21.8787 10.8819 21.8572L10.0542 20.8622H14.3228L15.2088 21.927H11.022H11.0223ZM18.5056 24.0782C18.4346 24.1639 18.3398 24.2109 18.2389 24.2109C18.1383 24.2109 18.0435 24.1636 17.9722 24.0782L16.2836 22.0485V22.0482L14.7751 20.2352C14.6673 20.1054 14.5241 20.0344 14.3715 20.0344H6.86855C6.66038 20.0344 6.4914 19.8307 6.4914 19.5809C6.4914 19.3306 6.66038 19.1273 6.86855 19.1273H14.3717C14.7256 19.1273 15.0584 19.2931 15.3087 19.5939L16.7039 21.2712H16.7041L18.5059 23.437C18.5771 23.5227 18.6165 23.6364 18.6165 23.7576C18.6165 23.8788 18.5774 23.9927 18.5059 24.0782H18.5056ZM18.6503 21.927H18.2237L17.2919 20.8071V13.5449H18.6503V21.9265V21.927ZM21.7571 26.9278C21.741 26.9278 21.7265 26.9161 21.7206 26.8979L21.2661 25.5304H22.2356L22.7548 26.9276H21.7571V26.9278ZM23.4907 22.7547C23.9372 22.7547 24.3006 23.1919 24.3006 23.729C24.3006 24.2658 23.9372 24.7024 23.4907 24.7024H18.9572C18.9687 24.6897 18.9812 24.6772 18.9927 24.6637C19.194 24.4215 19.305 24.1 19.305 23.7576C19.305 23.4152 19.194 23.0937 18.9927 22.8515L18.9124 22.755H23.4907V22.7547ZM19.9045 12.397C19.7468 12.6035 19.5315 12.7174 19.2983 12.7174H16.6436C16.4103 12.7174 16.195 12.6035 16.0373 12.3968C15.8813 12.1921 15.8061 11.9278 15.8257 11.6523C16.0713 8.21295 17.0903 6.7274 17.971 6.08895C18.8516 6.72765 19.8707 8.2132 20.1163 11.653C20.1356 11.9285 20.0605 12.1925 19.9045 12.397V12.397Z" fill="black"/>
</mask>
<g mask="url(#mask0_214_670)">
<path d="M25.6819 11.1765C25.4706 10.386 25.1394 9.63258 24.6998 8.94251C22.9086 6.51091 22.5337 6.78226 22.3542 6.93802C22.1639 7.45965 22.9086 7.71067 24.1525 9.44479C24.5432 10.0575 24.8377 10.7265 25.0258 11.4285C25.1066 11.7324 25.0632 12.0547 24.9068 12.3123C24.7505 12.5694 24.509 12.7171 24.2441 12.7171H21.6359C21.2081 12.7171 20.8485 12.3165 20.8179 11.8054C20.8133 11.7319 20.8082 11.6584 20.8028 11.585V11.5786L20.802 11.5747C20.6698 9.74038 20.251 7.52895 19.099 6.11491C20.5836 6.34585 21.9611 7.03206 23.0614 8.10324C23.2096 8.24724 23.4263 8.21957 23.5463 8.04202C23.6659 7.86422 23.6431 7.60365 23.4952 7.45989C22.0816 6.08357 20.2534 5.29181 18.3156 5.20781V4.65875C18.3156 4.43026 18.1613 4.24487 17.9712 4.24487C17.781 4.24487 17.6267 4.43026 17.6267 4.65875V5.20732C15.9474 5.27859 14.3671 5.87344 13.0378 6.93802C11.6859 8.02022 10.7 9.52536 10.2606 11.1762C10.112 11.7351 10.1916 12.327 10.4793 12.8006C10.7666 13.2735 11.2108 13.5449 11.6982 13.5449H14.3063C14.7731 13.5449 15.1956 13.2853 15.474 12.878C15.4921 12.9045 15.5108 12.9309 15.5303 12.9561C15.8063 13.3183 16.1955 13.5302 16.603 13.5436V19.9788L15.7956 19.0081C15.4152 18.5511 14.9095 18.2991 14.3715 18.2991H7.9221L4.80283 14.5497C4.51973 14.2093 4.14332 14.0219 3.74291 14.0219C3.34251 14.0219 2.96634 14.2093 2.683 14.5497C2.09891 15.2523 2.09891 16.3952 2.683 17.0976L8.12071 23.6339C8.18806 23.7147 9.30455 24.9948 9.39271 24.9948C9.48087 24.9948 9.67728 24.364 9.74463 24.2832C9.27271 23.9457 8.74226 23.21 8.60781 23.0484L6.78528 20.8575C6.81296 20.8602 6.84074 20.8616 6.86855 20.8617H9.07997L10.3948 22.4423C10.5626 22.6438 10.7852 22.7547 11.0223 22.7547H15.8974L17.4851 24.6632C17.4966 24.677 17.5091 24.6892 17.5209 24.7024H11.0223C10.9713 24.7023 10.9205 24.7003 10.8697 24.6965C10.8579 24.6947 10.8461 24.6937 10.8342 24.6934C10.448 24.6591 10.075 24.519 9.74438 24.2832C9.58128 24.1663 9.36969 24.231 9.27271 24.4274C9.17549 24.6241 9.22936 24.878 9.39271 24.9948C9.67514 25.1981 9.99211 25.3485 10.3282 25.4386L9.84332 26.7439C9.80234 26.8546 9.78509 26.9727 9.79269 27.0905C9.80028 27.2082 9.83255 27.3231 9.8874 27.4276C9.99834 27.6326 10.1862 27.7551 10.3892 27.7551H11.5275C11.827 27.7551 12.0922 27.5391 12.2034 27.2048L12.7603 25.5299H20.5241L21.0807 27.205C21.1919 27.5391 21.4574 27.7551 21.7566 27.7551H22.8947C23.0982 27.7551 23.2855 27.6326 23.3962 27.4276C23.5069 27.2224 23.5236 26.9668 23.4405 26.7436L22.9899 25.5299H23.4905C24.317 25.5299 24.9893 24.7218 24.9893 23.7285C24.9893 22.7349 24.317 21.9265 23.4905 21.9265H19.3395V13.5436C19.747 13.5302 20.1361 13.3183 20.4121 12.9559C20.4317 12.9307 20.4503 12.9045 20.4685 12.8778C20.7469 13.2855 21.1694 13.5449 21.6359 13.5449H24.2441C24.7314 13.5449 25.1759 13.2735 25.4632 12.8004C25.7507 12.327 25.8305 11.7351 25.6819 11.1765V11.1765ZM11.5635 26.8979C11.5574 26.9158 11.5434 26.9273 11.5272 26.9273H10.5295L11.0485 25.5302H12.0183L11.5635 26.8979ZM15.14 11.5756V11.5786L15.1395 11.5835C15.1341 11.6582 15.129 11.7321 15.1248 11.8056C15.0937 12.3167 14.7342 12.7171 14.3066 12.7171H11.6984C11.4334 12.7171 11.1917 12.5697 11.0355 12.3125C10.879 12.0549 10.8356 11.7326 10.9165 11.4285C11.3083 9.95565 12.1973 8.60553 13.4196 7.62716C14.4281 6.81973 15.5957 6.30593 16.8445 6.11369C15.691 7.52797 15.2727 9.74063 15.14 11.5756V11.5756ZM5.80593 19.6808L3.1701 16.5123C2.85418 16.1327 2.85418 15.5148 3.1701 15.1352C3.32316 14.9513 3.52667 14.8502 3.74291 14.8502C3.9594 14.8502 4.16291 14.9513 4.31597 15.1352L6.94814 18.2993H6.86855C6.28079 18.2993 5.80251 18.8741 5.80251 19.5806C5.80251 19.6144 5.80398 19.6475 5.80593 19.6805V19.6808ZM11.0223 21.927C10.9951 21.9267 10.9684 21.9203 10.9441 21.9082C10.9198 21.8961 10.8985 21.8787 10.8819 21.8572L10.0542 20.8622H14.3228L15.2088 21.927H11.022H11.0223ZM18.5056 24.0782C18.4346 24.1639 18.3398 24.2109 18.2389 24.2109C18.1383 24.2109 18.0435 24.1636 17.9722 24.0782L16.2836 22.0485V22.0482L14.7751 20.2352C14.6673 20.1054 14.5241 20.0344 14.3715 20.0344H6.86855C6.66038 20.0344 6.4914 19.8307 6.4914 19.5809C6.4914 19.3306 6.66038 19.1273 6.86855 19.1273H14.3717C14.7256 19.1273 15.0584 19.2931 15.3087 19.5939L16.7039 21.2712H16.7041L18.5059 23.437C18.5771 23.5227 18.6165 23.6364 18.6165 23.7576C18.6165 23.8788 18.5774 23.9927 18.5059 24.0782H18.5056ZM18.6503 21.927H18.2237L17.2919 20.8071V13.5449H18.6503V21.9265V21.927ZM21.7571 26.9278C21.741 26.9278 21.7265 26.9161 21.7206 26.8979L21.2661 25.5304H22.2356L22.7548 26.9276H21.7571V26.9278ZM23.4907 22.7547C23.9372 22.7547 24.3006 23.1919 24.3006 23.729C24.3006 24.2658 23.9372 24.7024 23.4907 24.7024H18.9572C18.9687 24.6897 18.9812 24.6772 18.9927 24.6637C19.194 24.4215 19.305 24.1 19.305 23.7576C19.305 23.4152 19.194 23.0937 18.9927 22.8515L18.9124 22.755H23.4907V22.7547ZM19.9045 12.397C19.7468 12.6035 19.5315 12.7174 19.2983 12.7174H16.6436C16.4103 12.7174 16.195 12.6035 16.0373 12.3968C15.8813 12.1921 15.8061 11.9278 15.8257 11.6523C16.0713 8.21295 17.0903 6.7274 17.971 6.08895C18.8516 6.72765 19.8707 8.2132 20.1163 11.653C20.1356 11.9285 20.0605 12.1925 19.9045 12.397V12.397Z" fill="#E5550E"/>
<mask id="path-4-outside-1_214_670" maskUnits="userSpaceOnUse" x="1.19586" y="3.19592" width="25" height="25" fill="black">
<rect fill="white" x="1.19586" y="3.19592" width="25" height="25"/>
<path d="M25.6819 11.1765L25.7291 11.1638L25.6819 11.1765ZM24.6998 8.94254L24.7415 8.91633L24.7393 8.91339L24.6998 8.94254ZM22.3542 6.93805L22.3224 6.90107L22.3126 6.90939L22.3082 6.92115L22.3542 6.93805V6.93805ZM24.1525 9.44482L24.1939 9.41862L24.1922 9.41617L24.1525 9.44482V9.44482ZM25.0258 11.4285L25.0731 11.416L25.0258 11.4285ZM24.9068 12.3123L24.9487 12.3378L24.907 12.3123H24.9068ZM20.8177 11.8054L20.8667 11.8025L20.8177 11.8054ZM20.803 11.585H20.754V11.5887L20.803 11.585ZM20.8028 11.5786H20.8518V11.5752L20.8513 11.5718L20.8028 11.5786V11.5786ZM20.802 11.5747L20.7531 11.5781L20.7536 11.5813L20.802 11.5747V11.5747ZM19.0993 6.11494L19.1066 6.06645L18.9807 6.04686L19.0616 6.1458L19.0993 6.11494ZM23.0617 8.10327L23.0277 8.13829L23.062 8.10327H23.0617ZM23.4954 7.45992L23.4611 7.49494L23.4954 7.45992ZM18.3158 5.20784H18.2669V5.25462L18.3136 5.25682L18.3158 5.20784ZM17.6269 5.20735L17.6291 5.25633L17.6759 5.25437V5.20735H17.6269V5.20735ZM13.038 6.93805L13.0687 6.97625L13.038 6.93805ZM10.2609 11.1762L10.2136 11.1635L10.2609 11.1762ZM10.4796 12.8007L10.4377 12.8261L10.4794 12.8007H10.4796ZM15.4743 12.878L15.5147 12.8504L15.4743 12.7911L15.4339 12.8504L15.4743 12.878ZM15.5306 12.9562L15.5693 12.9263L15.5304 12.9562H15.5306ZM16.6033 13.5437H16.6523V13.4962L16.605 13.4947L16.6033 13.5437V13.5437ZM16.6033 19.9789L16.5658 20.0102L16.6525 20.1143V19.9789H16.6035H16.6033ZM15.7958 19.0081L15.7581 19.0394L15.7958 19.0081ZM7.92237 18.2991L7.8849 18.3305L7.8996 18.3483H7.92262V18.2994L7.92237 18.2991ZM4.80311 14.5497L4.76539 14.5808L4.80311 14.5497ZM2.68327 14.5497L2.64556 14.5184L2.68327 14.5497ZM2.68327 17.0976L2.64556 17.129L2.68327 17.0976ZM8.12098 23.634L8.1587 23.6024L8.12098 23.6337V23.634ZM8.60809 23.0484L8.57037 23.0798L8.60809 23.0484ZM6.78556 20.8576L6.78996 20.8088L6.67192 20.7978L6.74784 20.8889L6.78556 20.8576ZM9.08025 20.8617L9.11796 20.8304L9.10327 20.8127H9.08025V20.8617ZM10.3951 22.4423L10.3574 22.4736L10.3951 22.4423ZM15.898 22.7548L15.9354 22.7234L15.9207 22.7058H15.8977V22.7548H15.898ZM17.4854 24.6633L17.5231 24.6319L17.4854 24.6633ZM17.5211 24.7025V24.7514H17.6314L17.5576 24.6696L17.5211 24.7022V24.7025ZM10.8697 24.6966L10.8629 24.7451H10.8646L10.8663 24.7453L10.87 24.6963L10.8697 24.6966ZM10.8345 24.6934L10.83 24.7424H10.8335L10.8345 24.6934ZM9.27298 24.4274L9.2289 24.4056L9.27298 24.4274ZM10.3285 25.4386L10.3743 25.4558L10.3931 25.4051L10.341 25.3914L10.3282 25.4386H10.3285ZM9.8436 26.7439L9.88964 26.7608L9.8436 26.7437V26.7439ZM9.88768 27.4277L9.84482 27.4509L9.88792 27.4277H9.88768ZM12.2032 27.2048L12.1567 27.1894L12.2032 27.2048ZM12.7603 25.53V25.481H12.7248L12.7138 25.5145L12.7603 25.53V25.53ZM20.5246 25.53L20.5711 25.5145L20.5598 25.481H20.5246V25.53V25.53ZM21.0812 27.2051L21.0347 27.2202L21.0812 27.2048V27.2051ZM23.3967 27.4277L23.4398 27.4509L23.3967 27.4277ZM23.4411 26.7437L23.4871 26.7265L23.4411 26.7437ZM22.9905 25.53V25.481H22.9199L22.9444 25.5471L22.9905 25.53ZM19.3395 21.9265H19.2905V21.9755H19.3395V21.9265ZM19.3395 13.5437L19.3378 13.4947L19.2905 13.4962V13.5437H19.3395ZM20.4122 12.9559L20.4514 12.9858L20.4122 12.9562V12.9559ZM20.4685 12.8778L20.5089 12.8501L20.4685 12.7906L20.4281 12.8504L20.4685 12.8778ZM25.4632 12.8004L25.5051 12.8259L25.4634 12.8004H25.4632ZM11.5635 26.8977L11.517 26.8823L11.5635 26.8977ZM10.5296 26.9274L10.4835 26.9102L10.459 26.9763H10.5296V26.9274V26.9274ZM11.0485 25.5302V25.4812H11.0142L11.0025 25.5131L11.0485 25.5302V25.5302ZM12.0183 25.5302L12.0648 25.5456L12.0861 25.4812H12.0183V25.5302ZM15.14 11.5759L15.091 11.5722V11.5757H15.14V11.5759ZM15.14 11.5784L15.1885 11.5835L15.1887 11.5811V11.5786H15.1398L15.14 11.5784ZM15.1395 11.5835L15.0908 11.5776V11.5801L15.1395 11.5835ZM15.1248 11.8056L15.0758 11.8027L15.1248 11.8056ZM11.0355 12.3126L10.9939 12.3378L11.0355 12.3126ZM10.9165 11.4285L10.8692 11.416L10.9167 11.4285H10.9165ZM13.4196 7.62719L13.4502 7.66539L13.4196 7.62719ZM16.8445 6.11372L16.8825 6.14458L16.9633 6.04588L16.8371 6.06523L16.8445 6.11347V6.11372ZM5.80596 19.6803L5.76849 19.7117L5.86474 19.8275L5.85494 19.6771L5.80596 19.6803V19.6803ZM3.17013 16.5123L3.20784 16.481L3.17013 16.5123ZM3.17013 15.1353L3.20784 15.1666L3.17013 15.1353ZM4.31576 15.1353L4.35347 15.1039L4.31576 15.1353ZM6.94817 18.2994V18.3483H7.0525L6.98564 18.268L6.94817 18.2994ZM10.882 21.857L10.9197 21.8256L10.882 21.857ZM10.0542 20.862V20.813H9.94964L10.0165 20.8933L10.054 20.862H10.0542ZM14.3228 20.862L14.3603 20.8306L14.3456 20.813H14.3228V20.862V20.862ZM15.2088 21.9268V21.9758H15.3131L15.2463 21.8954L15.2088 21.9268ZM17.9723 24.078L17.9345 24.1093L17.9723 24.078ZM14.7751 20.235L14.7376 20.2664L14.7751 20.235ZM15.3085 19.5936L15.2708 19.625L15.3085 19.5936ZM16.7037 21.2709L16.6662 21.3023L16.6809 21.3199H16.7037V21.2709V21.2709ZM16.7039 21.2709L16.7416 21.2396L16.7269 21.222H16.7039V21.2709ZM18.5056 23.4368L18.5434 23.4055L18.5056 23.4368ZM18.6504 21.9268V21.9758H18.6994V21.9268H18.6504ZM18.2238 21.9268L18.186 21.9581L18.2007 21.9758H18.2238V21.9268ZM17.2919 20.8069H17.2429V20.8245L17.2542 20.838L17.2919 20.8069V20.8069ZM17.2919 13.5451V13.4962H17.2429V13.5451H17.2919ZM18.6504 13.5451H18.6994V13.4962H18.6504V13.5451ZM21.7207 26.8977L21.7672 26.8823L21.7207 26.8977ZM21.2661 25.5302V25.4812H21.198L21.2196 25.5456L21.2661 25.5302V25.5302ZM22.2357 25.5302L22.2817 25.5131L22.2697 25.4812H22.2357V25.5302V25.5302ZM22.7549 26.9274V26.9763H22.8251L22.8007 26.9102L22.7549 26.9274V26.9274ZM18.9567 24.7022L18.9207 24.6691L18.8456 24.7512H18.9567V24.7022V24.7022ZM18.9925 24.6635L19.03 24.6954V24.6949L18.9925 24.6635ZM18.9925 22.8513L19.0302 22.8199L18.9925 22.8513ZM18.9122 22.7548V22.7058H18.8076L18.8745 22.7861L18.9122 22.7548V22.7548ZM19.9045 12.3968L19.9437 12.4265L19.9045 12.3968ZM16.0376 12.3966L16.0763 12.3669L16.0373 12.3966H16.0376ZM15.8257 11.6521L15.7767 11.6484L15.8257 11.6518V11.6521ZM17.971 6.08874L17.9997 6.04907L17.971 6.02825L17.9421 6.04907L17.971 6.08874ZM20.1163 11.6528L20.1651 11.6494L20.1161 11.6531L20.1163 11.6528ZM25.7289 11.1638C25.5164 10.3685 25.1832 9.61058 24.741 8.91633L24.6582 8.96874C25.0952 9.65458 25.4244 10.4034 25.6344 11.189L25.7289 11.1638ZM24.739 8.91339C23.8434 7.69772 23.2973 7.15086 22.9488 6.92874C22.7737 6.81731 22.6427 6.784 22.5391 6.79478C22.4348 6.8058 22.3677 6.8609 22.3219 6.90107L22.386 6.97502C22.4299 6.93707 22.4771 6.90009 22.5494 6.89225C22.6226 6.88466 22.7311 6.90621 22.8962 7.01127C23.2278 7.22262 23.7648 7.75576 24.6602 8.97168L24.739 8.91339ZM22.3079 6.92139C22.2553 7.06564 22.268 7.19323 22.3361 7.32792C22.4022 7.45894 22.521 7.59829 22.6794 7.76996C22.9978 8.11551 23.4925 8.60947 24.1123 9.47347L24.1919 9.41641C23.5679 8.54629 23.0686 8.04743 22.7514 7.7036C22.592 7.5307 22.4825 7.4009 22.4235 7.28409C22.3665 7.17094 22.3574 7.07151 22.4 6.9547L22.3079 6.92139V6.92139ZM24.1109 9.47127C24.4989 10.0797 24.7914 10.744 24.9783 11.441L25.0728 11.416C24.8835 10.7092 24.587 10.0356 24.1936 9.41862L24.1109 9.47127V9.47127ZM24.9783 11.441C25.0559 11.7329 25.0138 12.041 24.8647 12.2869L24.9484 12.3376C25.1123 12.0682 25.1571 11.7322 25.0728 11.416L24.9783 11.441V11.441ZM24.8647 12.2869C24.716 12.5318 24.4892 12.6682 24.2438 12.6682V12.7661C24.5287 12.7661 24.7848 12.6069 24.9484 12.3376L24.8647 12.2869ZM24.2438 12.6682H21.6359V12.7661H24.2441V12.6682H24.2438ZM21.6357 12.6682C21.2409 12.6682 20.8961 12.2957 20.8665 11.8025L20.7685 11.8083C20.8006 12.3373 21.1748 12.7661 21.6354 12.7661V12.6682H21.6357ZM20.8665 11.8025C20.8619 11.7288 20.8569 11.6552 20.8515 11.5816L20.7536 11.5887C20.7592 11.6626 20.7641 11.7358 20.7687 11.8083L20.8665 11.8025V11.8025ZM20.8518 11.585L20.8515 11.5798V11.5786H20.7536V11.585H20.8515H20.8518ZM20.851 11.5718L20.8505 11.5678L20.7533 11.5813L20.754 11.5852L20.851 11.5718ZM20.8508 11.5713C20.718 9.73527 20.299 7.51086 19.1367 6.08384L19.0608 6.1458C20.2028 7.54735 20.6208 9.74531 20.7531 11.5781L20.8508 11.5713ZM19.0914 6.16319C20.5657 6.3929 21.9342 7.07421 23.0274 8.13829L23.096 8.068C21.9881 6.98996 20.6012 6.29911 19.1066 6.06645L19.0914 6.16319ZM23.0274 8.13829C23.1117 8.22009 23.2175 8.25486 23.3208 8.24188C23.4237 8.22866 23.5199 8.16866 23.5868 8.06923L23.5055 8.01462C23.4528 8.09298 23.3806 8.13535 23.3083 8.14441C23.2363 8.15372 23.1597 8.13021 23.0958 8.068L23.0274 8.13829ZM23.5868 8.06923C23.719 7.87331 23.695 7.58605 23.5295 7.42466L23.4609 7.49494C23.5907 7.62131 23.6127 7.85543 23.5055 8.01462L23.5868 8.06923ZM23.5295 7.42466C22.1074 6.04049 20.2677 5.2436 18.3176 5.15886L18.3131 5.25682C20.239 5.34009 22.0557 6.12719 23.4609 7.49494L23.5292 7.42466H23.5295ZM18.3646 5.20784V4.65878H18.2666V5.20784H18.3646ZM18.3646 4.65878C18.3646 4.41217 18.1966 4.19592 17.9713 4.19592V4.29388C18.1263 4.29388 18.2666 4.44841 18.2666 4.65878H18.3646V4.65878ZM17.9713 4.19592C17.746 4.19592 17.5777 4.41217 17.5777 4.65878H17.6757C17.6757 4.44866 17.8163 4.29388 17.9713 4.29388V4.19592ZM17.5777 4.65878V5.20735H17.6757V4.65878H17.5777V4.65878ZM17.6247 5.15837C15.9349 5.23013 14.3448 5.82866 13.0072 6.8996L13.0684 6.97625C14.3899 5.91805 15.9599 5.32735 17.6289 5.25633L17.6247 5.15837V5.15837ZM13.0072 6.8996C11.6475 7.98841 10.6554 9.50237 10.2134 11.1638L10.3079 11.1887C10.7446 9.54817 11.7247 8.05209 13.0684 6.97649L13.0072 6.89984V6.8996ZM10.2134 11.164C10.0616 11.7351 10.1424 12.3407 10.4375 12.8264L10.5212 12.7754C10.2408 12.3138 10.1625 11.7356 10.3082 11.189L10.2134 11.164V11.164ZM10.4375 12.8264C10.7323 13.3115 11.1913 13.5941 11.6982 13.5941V13.4962C11.2305 13.4962 10.8011 13.2363 10.5212 12.7754L10.4375 12.8264V12.8264ZM11.6982 13.5941H14.3064V13.4962H11.6982V13.5941ZM14.3064 13.5941C14.7925 13.5941 15.2287 13.324 15.5145 12.906L15.4336 12.8506C15.1625 13.2474 14.754 13.4962 14.3066 13.4962V13.5941H14.3064ZM15.4336 12.906C15.452 12.9329 15.4711 12.9598 15.4914 12.986L15.5691 12.9265C15.5505 12.902 15.5323 12.8768 15.5145 12.8506L15.4336 12.906V12.906ZM15.4912 12.986C15.7753 13.3583 16.1774 13.5787 16.6016 13.5929L16.6047 13.4949C16.2134 13.482 15.8375 13.2785 15.5691 12.9268L15.4912 12.986ZM16.554 13.5439V19.9791H16.652V13.5437H16.554V13.5439ZM16.6407 19.9478L15.8333 18.977L15.7579 19.0397L16.5656 20.0105L16.6407 19.9478V19.9478ZM15.8333 18.977C15.4449 18.5102 14.9257 18.2504 14.3715 18.2504V18.3483C14.8931 18.3483 15.3859 18.5925 15.7579 19.0397L15.8333 18.977ZM14.3715 18.2504H7.92213V18.3483H14.3715V18.2504V18.2504ZM7.96009 18.2682L4.84033 14.5184L4.7649 14.5808L7.8849 18.3307L7.96009 18.2682V18.2682ZM4.84033 14.5184C4.5489 14.1682 4.15927 13.973 3.7427 13.973V14.0709C4.12694 14.0709 4.49013 14.2505 4.7649 14.5811L4.84033 14.5184ZM3.7427 13.973C3.32637 13.973 2.93649 14.1682 2.64507 14.5184L2.72049 14.5808C2.99551 14.2505 3.35845 14.0709 3.7427 14.0709V13.973ZM2.64531 14.5184C2.04605 15.2391 2.04605 16.4082 2.64531 17.129L2.72074 17.0663C2.1516 16.382 2.1516 15.2656 2.72074 14.5808L2.64531 14.5184V14.5184ZM2.64531 17.129L8.08327 23.6653L8.1587 23.6024L2.72074 17.0663L2.64531 17.129V17.129ZM8.08327 23.6653C8.11756 23.7065 8.41413 24.0474 8.71266 24.3775C8.86205 24.5428 9.01266 24.7056 9.13143 24.8278C9.1907 24.8886 9.24262 24.94 9.28303 24.9762C9.30311 24.9941 9.32098 25.0093 9.33617 25.0203C9.34376 25.0257 9.3516 25.0309 9.35919 25.0348C9.36957 25.0405 9.38116 25.0436 9.39298 25.0438V24.9459C9.40254 24.9459 9.40768 24.9493 9.40425 24.9478C9.40051 24.9457 9.39691 24.9433 9.39347 24.9407C9.37792 24.929 9.36296 24.9165 9.34866 24.9033C9.3107 24.8692 9.2605 24.82 9.20172 24.7595C9.0604 24.6127 8.9216 24.4634 8.78539 24.3118C8.57375 24.0778 8.36484 23.8413 8.1587 23.6024L8.08352 23.6651L8.08327 23.6653ZM9.39298 25.0441C9.4099 25.0436 9.42621 25.0377 9.43952 25.0272C9.45052 25.0189 9.4604 25.0092 9.4689 24.9983C9.4858 24.9772 9.5027 24.9491 9.51911 24.918C9.55217 24.8553 9.58768 24.7718 9.62196 24.6878C9.65698 24.602 9.6898 24.5183 9.71919 24.4473C9.73388 24.4122 9.74686 24.3819 9.75837 24.3581C9.77037 24.3329 9.77845 24.3194 9.78262 24.3145L9.70719 24.2518C9.69445 24.2673 9.68172 24.291 9.66996 24.3158C9.65535 24.3467 9.64155 24.3781 9.62858 24.4098C9.59968 24.4798 9.5649 24.5687 9.53135 24.6508C9.49707 24.7348 9.46303 24.8141 9.43241 24.8722C9.41699 24.9016 9.40352 24.9233 9.3925 24.9371C9.38936 24.9412 9.38574 24.945 9.38172 24.9483C9.37976 24.9498 9.38392 24.9459 9.39298 24.9459V25.0438V25.0441ZM9.77331 24.2433C9.54262 24.0785 9.29527 23.814 9.08735 23.5683C8.98376 23.4459 8.89045 23.3286 8.81454 23.2318C8.73935 23.1358 8.67984 23.0582 8.64556 23.0171L8.57037 23.0798C8.60343 23.1194 8.66074 23.1944 8.73764 23.2923C8.81356 23.3896 8.90784 23.5078 9.01266 23.6315C9.22131 23.8784 9.47527 24.1507 9.71625 24.3231L9.77331 24.2433V24.2433ZM8.6458 23.0171L6.82303 20.8262L6.74784 20.8889L8.57037 23.0798L8.6458 23.0171V23.0171ZM6.7809 20.9063C6.80956 20.909 6.8387 20.9107 6.86858 20.9107V20.8127C6.84237 20.8127 6.81617 20.8113 6.79021 20.8088L6.7809 20.9063V20.9063ZM6.86858 20.9107H9.08025V20.8127H6.86882V20.9107H6.86858ZM9.04254 20.8931L10.3576 22.4736L10.4328 22.4109L9.11796 20.8304L9.04254 20.8931ZM10.3576 22.4736C10.5332 22.685 10.7693 22.8038 11.0225 22.8038V22.7058C10.8019 22.7058 10.5922 22.6025 10.4328 22.4109L10.3574 22.4736H10.3576ZM11.0225 22.8038H15.8977V22.7058H11.0223V22.8038H11.0225ZM15.86 22.7861L17.4479 24.6946L17.5231 24.6319L15.9354 22.7234L15.86 22.7861V22.7861ZM17.4479 24.6946C17.4597 24.7088 17.4763 24.7257 17.4847 24.735L17.5576 24.6696C17.5425 24.6525 17.5344 24.6454 17.5234 24.6319L17.4479 24.6946V24.6946ZM17.5214 24.6535H11.022V24.7514H17.5207V24.6535H17.5214ZM11.0225 24.6535C10.9728 24.6533 10.923 24.6513 10.8734 24.6476L10.8663 24.7456C10.918 24.749 10.9701 24.7512 11.0225 24.7512V24.6532V24.6535ZM10.8768 24.6481C10.863 24.646 10.8491 24.6448 10.8352 24.6444L10.8335 24.7424C10.843 24.7426 10.8526 24.7436 10.8629 24.7448L10.8768 24.6481V24.6481ZM10.8386 24.6447C10.4617 24.6111 10.0966 24.4742 9.77331 24.2433L9.7165 24.3231C10.0535 24.5638 10.435 24.7069 10.83 24.7424L10.8386 24.6447V24.6447ZM9.77331 24.2433C9.58131 24.1061 9.33739 24.1869 9.22915 24.4056L9.31682 24.4492C9.40303 24.2751 9.58156 24.2266 9.71625 24.3231L9.77331 24.2433ZM9.22915 24.4056C9.12262 24.6211 9.17894 24.902 9.36433 25.0348L9.42139 24.9552C9.28009 24.854 9.2289 24.627 9.31682 24.4492L9.22915 24.4056ZM9.36458 25.0348C9.65176 25.2414 9.97404 25.3942 10.3158 25.4859L10.341 25.3914C10.0106 25.3028 9.69903 25.155 9.42139 24.9552L9.36458 25.0348ZM10.2825 25.4217L9.79756 26.7265L9.88964 26.7608L10.3743 25.4555L10.2825 25.4215V25.4217ZM9.79756 26.7265C9.75412 26.8438 9.73586 26.9689 9.74396 27.0937C9.75207 27.2186 9.78635 27.3403 9.84458 27.4509L9.93078 27.4044C9.87916 27.306 9.84877 27.1979 9.8416 27.087C9.83443 26.9762 9.85063 26.865 9.88915 26.7608L9.79756 26.7265V26.7265ZM9.84458 27.4509C9.96213 27.6689 10.1649 27.8041 10.3892 27.8041V27.7061C10.2068 27.7061 10.0341 27.5964 9.93078 27.4044L9.84458 27.4509V27.4509ZM10.3892 27.8041H11.5273V27.7061H10.389V27.8041H10.3892ZM11.5273 27.8041C11.8522 27.8041 12.1334 27.57 12.2497 27.2202L12.1567 27.1894C12.0506 27.5082 11.8011 27.7061 11.5273 27.7061V27.8041ZM12.2497 27.2202L12.8064 25.5454L12.7133 25.5145L12.1567 27.1896L12.2497 27.2202ZM12.7601 25.5789H20.5241V25.481H12.7601V25.5789V25.5789ZM20.4778 25.5454L21.0347 27.2205L21.1278 27.1894L20.5709 25.5145L20.4778 25.5454V25.5454ZM21.0347 27.2205C21.151 27.57 21.4319 27.8041 21.7571 27.8041V27.7061C21.4831 27.7061 21.2336 27.5082 21.1278 27.1894L21.0347 27.2202V27.2205ZM21.7571 27.8041H22.8949V27.7061H21.7571V27.8041ZM22.8949 27.8041C23.1195 27.8041 23.322 27.6689 23.4396 27.4509L23.3534 27.4044C23.2498 27.5964 23.0774 27.7061 22.8949 27.7061V27.8041V27.8041ZM23.4396 27.4509C23.5571 27.233 23.5743 26.9626 23.4869 26.7265L23.395 26.7608C23.4335 26.865 23.4497 26.9762 23.4426 27.087C23.4354 27.1979 23.405 27.306 23.3534 27.4044L23.4396 27.4509ZM23.4869 26.7265L23.0363 25.5131L22.9442 25.5471L23.3948 26.7608L23.4869 26.7265ZM22.9902 25.5789H23.4908V25.481H22.9902V25.5789V25.5789ZM23.4908 25.5789C24.3523 25.5789 25.0385 24.7399 25.0385 23.7285H24.9406C24.9406 24.7034 24.282 25.481 23.4908 25.481V25.5789V25.5789ZM25.0385 23.7285C25.0385 22.7166 24.3523 21.8776 23.4908 21.8776V21.9755C24.282 21.9755 24.9406 22.7531 24.9406 23.7285H25.0385V23.7285ZM23.4908 21.8776H19.3395V21.9755H23.4905V21.8776H23.4908ZM19.3885 21.9265V13.5437H19.2905V21.9265H19.3885ZM19.341 13.5927C19.7649 13.5787 20.1673 13.3583 20.4514 12.9858L20.3735 12.9263C20.1051 13.2782 19.7289 13.4817 19.3378 13.4945L19.341 13.5924V13.5927ZM20.4514 12.9858C20.4714 12.9596 20.4905 12.9327 20.5091 12.9052L20.4281 12.8504C20.4106 12.8762 20.3924 12.9015 20.3735 12.9263L20.4514 12.9858V12.9858ZM20.4281 12.9055C20.7139 13.3238 21.1503 13.5936 21.6359 13.5936V13.4957C21.1885 13.4957 20.78 13.2471 20.5089 12.8501L20.4281 12.9055ZM21.6359 13.5936H24.2441V13.4957H21.6359V13.5936ZM24.2441 13.5936C24.7513 13.5936 25.2102 13.311 25.5053 12.8259L25.4213 12.7749C25.1414 13.2358 24.7118 13.4959 24.2443 13.4959V13.5939L24.2441 13.5936ZM25.5053 12.8259C25.7999 12.3405 25.881 11.7349 25.7291 11.1638L25.6346 11.189C25.7798 11.7354 25.7017 12.3136 25.4216 12.7749L25.5051 12.8259H25.5053ZM11.5167 26.8825C11.5167 26.8835 11.5167 26.8825 11.5182 26.8813C11.5208 26.8794 11.524 26.8783 11.5273 26.8784V26.9763C11.5689 26.9763 11.599 26.9465 11.6098 26.9131L11.5167 26.8825V26.8825ZM11.5273 26.8784H10.5296V26.9763H11.5273V26.8784ZM10.5754 26.9445L11.0945 25.5474L11.0025 25.5131L10.4838 26.9105L10.5754 26.9445ZM11.0485 25.5792H12.0183V25.4812H11.0485V25.5792ZM11.9718 25.5148L11.517 26.8823L11.61 26.9134L12.0648 25.5456L11.9718 25.5148ZM15.091 11.5757V11.5727V11.5786H15.189L15.1887 11.5813V11.5816V11.5798L15.189 11.5757H15.091ZM15.091 11.5735C15.0909 11.5751 15.0908 11.5767 15.0908 11.5784V11.5789V11.5776L15.1883 11.5894V11.5857L15.1885 11.5838V11.583V11.5835L15.091 11.5737V11.5735ZM15.0905 11.5801C15.0851 11.6548 15.0803 11.729 15.0758 11.8027L15.1736 11.8086C15.178 11.7354 15.1829 11.6616 15.1883 11.5869L15.0905 11.5801ZM15.0758 11.8027C15.046 12.2959 14.7011 12.6682 14.3066 12.6682V12.7661C14.7673 12.7661 15.1417 12.3376 15.1736 11.8086L15.0756 11.8027H15.0758ZM14.3066 12.6682H11.6985V12.7661H14.3066V12.6682ZM11.6985 12.6682C11.4531 12.6682 11.2263 12.532 11.0774 12.2871L10.9936 12.3378C11.1575 12.6072 11.4136 12.7664 11.6982 12.7664V12.6684L11.6985 12.6682ZM11.0774 12.2871C10.9283 12.0415 10.8864 11.7331 10.964 11.441L10.8692 11.416C10.7852 11.7324 10.83 12.0684 10.9936 12.3378L11.0774 12.2871ZM10.964 11.441C11.3531 9.9787 12.236 8.63739 13.4502 7.66539L13.389 7.58898C12.1589 8.57347 11.264 9.93266 10.8692 11.416L10.964 11.441V11.441ZM13.4502 7.66539C14.4521 6.86311 15.6119 6.35298 16.8518 6.16196L16.8371 6.06523C15.5798 6.2587 14.4041 6.77617 13.389 7.58898L13.4502 7.66539ZM16.8065 6.08262C15.6433 7.50964 15.224 9.73551 15.0913 11.5722L15.189 11.5794C15.3215 9.74531 15.7395 7.54637 16.8825 6.14458L16.8065 6.08262V6.08262ZM5.84368 19.6492L3.20784 16.481L3.13266 16.5437L5.76849 19.7119L5.84368 19.6492V19.6492ZM3.20784 16.481C2.90711 16.1198 2.90711 15.5281 3.20784 15.1666L3.13266 15.1039C2.80156 15.5016 2.80156 16.146 3.13266 16.5437L3.20784 16.481ZM3.20784 15.1666C3.35258 14.9925 3.54286 14.8992 3.74294 14.8992V14.8012C3.51029 14.8012 3.2938 14.9102 3.13266 15.1039L3.20784 15.1666V15.1666ZM3.74294 14.8992C3.94327 14.8992 4.13331 14.9925 4.27829 15.1666L4.35347 15.1039C4.19233 14.9102 3.9756 14.8012 3.74294 14.8012V14.8992ZM4.27829 15.1666L6.91045 18.3307L6.98564 18.268L4.35347 15.1039L4.27829 15.1666V15.1666ZM6.94817 18.2504H6.86858V18.3483H6.94817V18.2504ZM6.86858 18.2504C6.24556 18.2504 5.75356 18.856 5.75356 19.5807H5.85152C5.85152 18.8925 6.31584 18.3483 6.86833 18.3483V18.2504H6.86858ZM5.75356 19.5807C5.75356 19.6157 5.75503 19.6502 5.75723 19.6838L5.85494 19.6774C5.85275 19.6452 5.85161 19.6129 5.85152 19.5807H5.75356V19.5807ZM11.022 21.8776C11.0021 21.8773 10.9824 21.8725 10.9646 21.8634C10.9467 21.8544 10.9312 21.8414 10.9192 21.8254L10.844 21.8881C10.8905 21.9437 10.9518 21.9755 11.022 21.9755V21.8776V21.8776ZM10.9192 21.8254L10.0914 20.8304L10.0163 20.8931L10.844 21.8881L10.9194 21.8254H10.9192ZM10.0537 20.9107H14.3223V20.8127H10.0537V20.9107ZM14.2848 20.8931L15.1709 21.9579L15.246 21.8952L14.36 20.8304L14.2848 20.8931ZM15.2088 21.8776H11.022V21.9755H15.2086V21.8776H15.2088ZM18.4682 24.0464C18.405 24.1223 18.3237 24.1615 18.2389 24.1615V24.2594C18.356 24.2594 18.464 24.2043 18.5434 24.1091L18.4679 24.0464H18.4682ZM18.2389 24.1615C18.1545 24.1615 18.0729 24.1223 18.01 24.0464L17.9345 24.1091C18.0141 24.2046 18.1219 24.2594 18.2389 24.2594V24.1615V24.1615ZM18.01 24.0464L16.3214 22.0167L16.246 22.0794L17.9345 24.1091L18.01 24.0464V24.0464ZM16.3214 22.0167V22.0164L16.246 22.0791L16.3214 22.0167ZM16.3214 22.0164L14.8128 20.2034L14.7376 20.2661L16.246 22.0791L16.3211 22.0164H16.3214ZM14.8128 20.2034C14.6967 20.0638 14.5402 19.9847 14.3715 19.9847V20.0827C14.5079 20.0827 14.638 20.1464 14.7376 20.2661L14.8128 20.2034ZM14.3715 19.9847H6.86858V20.0827H14.3718V19.9847H14.3715ZM6.86833 19.9847C6.69543 19.9847 6.54017 19.8121 6.54017 19.5804H6.44221C6.44221 19.8486 6.62539 20.0827 6.86833 20.0827V19.9847V19.9847ZM6.54017 19.5804C6.54017 19.3485 6.69543 19.1758 6.86833 19.1758V19.0779C6.62539 19.0779 6.44221 19.312 6.44221 19.5804H6.54017ZM6.86833 19.1758H14.3715V19.0779H6.86858V19.1758H6.86833ZM14.3715 19.1758C14.7095 19.1758 15.0288 19.3338 15.2708 19.6247L15.3462 19.5623C15.0876 19.2515 14.7418 19.0779 14.3715 19.0779V19.1758V19.1758ZM15.2708 19.6247L16.6662 21.302L16.7414 21.2394L15.3462 19.5623L15.2708 19.6247ZM16.7037 21.3197H16.7039V21.2217V21.3197H16.7037ZM16.6662 21.302L18.4682 23.4679L18.5434 23.4052L16.7416 21.2394L16.6662 21.302V21.302ZM18.4682 23.4679C18.5314 23.5438 18.5671 23.6462 18.5671 23.7569H18.6651C18.6651 23.6254 18.6225 23.5002 18.5434 23.4052L18.4679 23.4677L18.4682 23.4679ZM18.5671 23.7569C18.5671 23.8678 18.5314 23.9705 18.4682 24.0464L18.5434 24.1091C18.6225 24.0138 18.6651 23.8887 18.6651 23.7571H18.5671V23.7569ZM18.6504 21.8776H18.2238V21.9755H18.6504V21.8776ZM18.2615 21.8952L17.3296 20.7755L17.2542 20.838L18.186 21.9581L18.2615 21.8954V21.8952ZM17.3409 20.8066V13.5449H17.2429V20.8064H17.3409V20.8066ZM17.2919 13.5939H18.6504V13.4959H17.2919V13.5939ZM18.6014 13.5449V21.9265H18.6994V13.5451H18.6014V13.5449ZM21.7571 26.8784C21.7613 26.8784 21.7645 26.8801 21.766 26.8813C21.7677 26.8825 21.7677 26.8833 21.7672 26.8823L21.6741 26.9129C21.6851 26.9467 21.7153 26.9766 21.7571 26.9766V26.8786V26.8784ZM21.7672 26.8823L21.3124 25.5148L21.2194 25.5456L21.6741 26.9131L21.7672 26.8823ZM21.2661 25.5794H22.2357V25.4815H21.2659V25.5794H21.2661ZM22.1899 25.5474L22.7091 26.9445L22.8007 26.9102L22.2815 25.5133L22.1899 25.5474ZM22.7549 26.8784H21.7571V26.9763H22.7549V26.8784ZM23.4908 22.8038C23.9022 22.8038 24.2517 23.2098 24.2517 23.7287H24.3496C24.3496 23.1733 23.9725 22.7058 23.4908 22.7058V22.8038ZM24.2517 23.7287C24.2517 24.2472 23.9022 24.6535 23.4908 24.6535V24.7514C23.9725 24.7514 24.3496 24.2837 24.3496 23.7287H24.2517ZM23.4908 24.6535H22.4529V24.7514H23.4908V24.6535ZM22.4529 24.6535H22.4519V24.7514H22.4529V24.6535ZM22.4519 24.6535H18.9572V24.7514H22.4519V24.6535ZM18.9932 24.7355C19.0028 24.725 19.018 24.7096 19.03 24.6951L18.9553 24.6319C18.9445 24.6447 18.9349 24.654 18.921 24.6694L18.9932 24.7355ZM19.0305 24.6949C19.2398 24.4431 19.354 24.11 19.354 23.7576H19.256C19.256 24.0892 19.1485 24.3998 18.955 24.6322L19.0305 24.6949ZM19.354 23.7576C19.354 23.405 19.2398 23.0719 19.0305 22.8199L18.955 22.8826C19.1485 23.1153 19.256 23.4256 19.256 23.7576H19.354ZM19.0305 22.8199L18.9499 22.7234L18.8747 22.7861L18.955 22.8826L19.0305 22.8199V22.8199ZM18.9124 22.8038H23.4908V22.7058H18.9124V22.8038V22.8038ZM19.8658 12.3669C19.7162 12.5629 19.5146 12.6682 19.2986 12.6682V12.7661C19.5489 12.7661 19.7779 12.6437 19.9437 12.4265L19.8658 12.3669V12.3669ZM19.2986 12.6682H16.6439V12.7661H19.2986V12.6682ZM16.6439 12.6682C16.4277 12.6682 16.2261 12.5629 16.0765 12.3669L15.9986 12.4262C16.1644 12.6437 16.3934 12.7661 16.6439 12.7661V12.6682ZM16.0765 12.3669C15.9283 12.1725 15.8561 11.9202 15.8747 11.6553L15.777 11.6484C15.7567 11.9349 15.8348 12.2114 15.9986 12.4262L16.0765 12.3669V12.3669ZM15.8747 11.6553C16.1201 8.224 17.1357 6.75535 17.9999 6.12841L17.9424 6.04907C17.0458 6.69951 16.0234 8.20147 15.777 11.6484L15.8749 11.6553H15.8747ZM17.9424 6.12841C18.8069 6.75535 19.8225 8.22425 20.0676 11.6565L20.1653 11.6494C19.9192 8.20172 18.8967 6.69951 17.9999 6.04907L17.9424 6.12841V6.12841ZM20.0676 11.6562C20.0862 11.9207 20.0137 12.173 19.8658 12.3672L19.9437 12.4265C20.1075 12.2119 20.1854 11.9357 20.1653 11.6494L20.0674 11.6565L20.0676 11.6562Z"/>
</mask>
<path d="M25.6819 11.1765L25.7291 11.1638L25.6819 11.1765ZM24.6998 8.94254L24.7415 8.91633L24.7393 8.91339L24.6998 8.94254ZM22.3542 6.93805L22.3224 6.90107L22.3126 6.90939L22.3082 6.92115L22.3542 6.93805V6.93805ZM24.1525 9.44482L24.1939 9.41862L24.1922 9.41617L24.1525 9.44482V9.44482ZM25.0258 11.4285L25.0731 11.416L25.0258 11.4285ZM24.9068 12.3123L24.9487 12.3378L24.907 12.3123H24.9068ZM20.8177 11.8054L20.8667 11.8025L20.8177 11.8054ZM20.803 11.585H20.754V11.5887L20.803 11.585ZM20.8028 11.5786H20.8518V11.5752L20.8513 11.5718L20.8028 11.5786V11.5786ZM20.802 11.5747L20.7531 11.5781L20.7536 11.5813L20.802 11.5747V11.5747ZM19.0993 6.11494L19.1066 6.06645L18.9807 6.04686L19.0616 6.1458L19.0993 6.11494ZM23.0617 8.10327L23.0277 8.13829L23.062 8.10327H23.0617ZM23.4954 7.45992L23.4611 7.49494L23.4954 7.45992ZM18.3158 5.20784H18.2669V5.25462L18.3136 5.25682L18.3158 5.20784ZM17.6269 5.20735L17.6291 5.25633L17.6759 5.25437V5.20735H17.6269V5.20735ZM13.038 6.93805L13.0687 6.97625L13.038 6.93805ZM10.2609 11.1762L10.2136 11.1635L10.2609 11.1762ZM10.4796 12.8007L10.4377 12.8261L10.4794 12.8007H10.4796ZM15.4743 12.878L15.5147 12.8504L15.4743 12.7911L15.4339 12.8504L15.4743 12.878ZM15.5306 12.9562L15.5693 12.9263L15.5304 12.9562H15.5306ZM16.6033 13.5437H16.6523V13.4962L16.605 13.4947L16.6033 13.5437V13.5437ZM16.6033 19.9789L16.5658 20.0102L16.6525 20.1143V19.9789H16.6035H16.6033ZM15.7958 19.0081L15.7581 19.0394L15.7958 19.0081ZM7.92237 18.2991L7.8849 18.3305L7.8996 18.3483H7.92262V18.2994L7.92237 18.2991ZM4.80311 14.5497L4.76539 14.5808L4.80311 14.5497ZM2.68327 14.5497L2.64556 14.5184L2.68327 14.5497ZM2.68327 17.0976L2.64556 17.129L2.68327 17.0976ZM8.12098 23.634L8.1587 23.6024L8.12098 23.6337V23.634ZM8.60809 23.0484L8.57037 23.0798L8.60809 23.0484ZM6.78556 20.8576L6.78996 20.8088L6.67192 20.7978L6.74784 20.8889L6.78556 20.8576ZM9.08025 20.8617L9.11796 20.8304L9.10327 20.8127H9.08025V20.8617ZM10.3951 22.4423L10.3574 22.4736L10.3951 22.4423ZM15.898 22.7548L15.9354 22.7234L15.9207 22.7058H15.8977V22.7548H15.898ZM17.4854 24.6633L17.5231 24.6319L17.4854 24.6633ZM17.5211 24.7025V24.7514H17.6314L17.5576 24.6696L17.5211 24.7022V24.7025ZM10.8697 24.6966L10.8629 24.7451H10.8646L10.8663 24.7453L10.87 24.6963L10.8697 24.6966ZM10.8345 24.6934L10.83 24.7424H10.8335L10.8345 24.6934ZM9.27298 24.4274L9.2289 24.4056L9.27298 24.4274ZM10.3285 25.4386L10.3743 25.4558L10.3931 25.4051L10.341 25.3914L10.3282 25.4386H10.3285ZM9.8436 26.7439L9.88964 26.7608L9.8436 26.7437V26.7439ZM9.88768 27.4277L9.84482 27.4509L9.88792 27.4277H9.88768ZM12.2032 27.2048L12.1567 27.1894L12.2032 27.2048ZM12.7603 25.53V25.481H12.7248L12.7138 25.5145L12.7603 25.53V25.53ZM20.5246 25.53L20.5711 25.5145L20.5598 25.481H20.5246V25.53V25.53ZM21.0812 27.2051L21.0347 27.2202L21.0812 27.2048V27.2051ZM23.3967 27.4277L23.4398 27.4509L23.3967 27.4277ZM23.4411 26.7437L23.4871 26.7265L23.4411 26.7437ZM22.9905 25.53V25.481H22.9199L22.9444 25.5471L22.9905 25.53ZM19.3395 21.9265H19.2905V21.9755H19.3395V21.9265ZM19.3395 13.5437L19.3378 13.4947L19.2905 13.4962V13.5437H19.3395ZM20.4122 12.9559L20.4514 12.9858L20.4122 12.9562V12.9559ZM20.4685 12.8778L20.5089 12.8501L20.4685 12.7906L20.4281 12.8504L20.4685 12.8778ZM25.4632 12.8004L25.5051 12.8259L25.4634 12.8004H25.4632ZM11.5635 26.8977L11.517 26.8823L11.5635 26.8977ZM10.5296 26.9274L10.4835 26.9102L10.459 26.9763H10.5296V26.9274V26.9274ZM11.0485 25.5302V25.4812H11.0142L11.0025 25.5131L11.0485 25.5302V25.5302ZM12.0183 25.5302L12.0648 25.5456L12.0861 25.4812H12.0183V25.5302ZM15.14 11.5759L15.091 11.5722V11.5757H15.14V11.5759ZM15.14 11.5784L15.1885 11.5835L15.1887 11.5811V11.5786H15.1398L15.14 11.5784ZM15.1395 11.5835L15.0908 11.5776V11.5801L15.1395 11.5835ZM15.1248 11.8056L15.0758 11.8027L15.1248 11.8056ZM11.0355 12.3126L10.9939 12.3378L11.0355 12.3126ZM10.9165 11.4285L10.8692 11.416L10.9167 11.4285H10.9165ZM13.4196 7.62719L13.4502 7.66539L13.4196 7.62719ZM16.8445 6.11372L16.8825 6.14458L16.9633 6.04588L16.8371 6.06523L16.8445 6.11347V6.11372ZM5.80596 19.6803L5.76849 19.7117L5.86474 19.8275L5.85494 19.6771L5.80596 19.6803V19.6803ZM3.17013 16.5123L3.20784 16.481L3.17013 16.5123ZM3.17013 15.1353L3.20784 15.1666L3.17013 15.1353ZM4.31576 15.1353L4.35347 15.1039L4.31576 15.1353ZM6.94817 18.2994V18.3483H7.0525L6.98564 18.268L6.94817 18.2994ZM10.882 21.857L10.9197 21.8256L10.882 21.857ZM10.0542 20.862V20.813H9.94964L10.0165 20.8933L10.054 20.862H10.0542ZM14.3228 20.862L14.3603 20.8306L14.3456 20.813H14.3228V20.862V20.862ZM15.2088 21.9268V21.9758H15.3131L15.2463 21.8954L15.2088 21.9268ZM17.9723 24.078L17.9345 24.1093L17.9723 24.078ZM14.7751 20.235L14.7376 20.2664L14.7751 20.235ZM15.3085 19.5936L15.2708 19.625L15.3085 19.5936ZM16.7037 21.2709L16.6662 21.3023L16.6809 21.3199H16.7037V21.2709V21.2709ZM16.7039 21.2709L16.7416 21.2396L16.7269 21.222H16.7039V21.2709ZM18.5056 23.4368L18.5434 23.4055L18.5056 23.4368ZM18.6504 21.9268V21.9758H18.6994V21.9268H18.6504ZM18.2238 21.9268L18.186 21.9581L18.2007 21.9758H18.2238V21.9268ZM17.2919 20.8069H17.2429V20.8245L17.2542 20.838L17.2919 20.8069V20.8069ZM17.2919 13.5451V13.4962H17.2429V13.5451H17.2919ZM18.6504 13.5451H18.6994V13.4962H18.6504V13.5451ZM21.7207 26.8977L21.7672 26.8823L21.7207 26.8977ZM21.2661 25.5302V25.4812H21.198L21.2196 25.5456L21.2661 25.5302V25.5302ZM22.2357 25.5302L22.2817 25.5131L22.2697 25.4812H22.2357V25.5302V25.5302ZM22.7549 26.9274V26.9763H22.8251L22.8007 26.9102L22.7549 26.9274V26.9274ZM18.9567 24.7022L18.9207 24.6691L18.8456 24.7512H18.9567V24.7022V24.7022ZM18.9925 24.6635L19.03 24.6954V24.6949L18.9925 24.6635ZM18.9925 22.8513L19.0302 22.8199L18.9925 22.8513ZM18.9122 22.7548V22.7058H18.8076L18.8745 22.7861L18.9122 22.7548V22.7548ZM19.9045 12.3968L19.9437 12.4265L19.9045 12.3968ZM16.0376 12.3966L16.0763 12.3669L16.0373 12.3966H16.0376ZM15.8257 11.6521L15.7767 11.6484L15.8257 11.6518V11.6521ZM17.971 6.08874L17.9997 6.04907L17.971 6.02825L17.9421 6.04907L17.971 6.08874ZM20.1163 11.6528L20.1651 11.6494L20.1161 11.6531L20.1163 11.6528ZM25.7289 11.1638C25.5164 10.3685 25.1832 9.61058 24.741 8.91633L24.6582 8.96874C25.0952 9.65458 25.4244 10.4034 25.6344 11.189L25.7289 11.1638ZM24.739 8.91339C23.8434 7.69772 23.2973 7.15086 22.9488 6.92874C22.7737 6.81731 22.6427 6.784 22.5391 6.79478C22.4348 6.8058 22.3677 6.8609 22.3219 6.90107L22.386 6.97502C22.4299 6.93707 22.4771 6.90009 22.5494 6.89225C22.6226 6.88466 22.7311 6.90621 22.8962 7.01127C23.2278 7.22262 23.7648 7.75576 24.6602 8.97168L24.739 8.91339ZM22.3079 6.92139C22.2553 7.06564 22.268 7.19323 22.3361 7.32792C22.4022 7.45894 22.521 7.59829 22.6794 7.76996C22.9978 8.11551 23.4925 8.60947 24.1123 9.47347L24.1919 9.41641C23.5679 8.54629 23.0686 8.04743 22.7514 7.7036C22.592 7.5307 22.4825 7.4009 22.4235 7.28409C22.3665 7.17094 22.3574 7.07151 22.4 6.9547L22.3079 6.92139V6.92139ZM24.1109 9.47127C24.4989 10.0797 24.7914 10.744 24.9783 11.441L25.0728 11.416C24.8835 10.7092 24.587 10.0356 24.1936 9.41862L24.1109 9.47127V9.47127ZM24.9783 11.441C25.0559 11.7329 25.0138 12.041 24.8647 12.2869L24.9484 12.3376C25.1123 12.0682 25.1571 11.7322 25.0728 11.416L24.9783 11.441V11.441ZM24.8647 12.2869C24.716 12.5318 24.4892 12.6682 24.2438 12.6682V12.7661C24.5287 12.7661 24.7848 12.6069 24.9484 12.3376L24.8647 12.2869ZM24.2438 12.6682H21.6359V12.7661H24.2441V12.6682H24.2438ZM21.6357 12.6682C21.2409 12.6682 20.8961 12.2957 20.8665 11.8025L20.7685 11.8083C20.8006 12.3373 21.1748 12.7661 21.6354 12.7661V12.6682H21.6357ZM20.8665 11.8025C20.8619 11.7288 20.8569 11.6552 20.8515 11.5816L20.7536 11.5887C20.7592 11.6626 20.7641 11.7358 20.7687 11.8083L20.8665 11.8025V11.8025ZM20.8518 11.585L20.8515 11.5798V11.5786H20.7536V11.585H20.8515H20.8518ZM20.851 11.5718L20.8505 11.5678L20.7533 11.5813L20.754 11.5852L20.851 11.5718ZM20.8508 11.5713C20.718 9.73527 20.299 7.51086 19.1367 6.08384L19.0608 6.1458C20.2028 7.54735 20.6208 9.74531 20.7531 11.5781L20.8508 11.5713ZM19.0914 6.16319C20.5657 6.3929 21.9342 7.07421 23.0274 8.13829L23.096 8.068C21.9881 6.98996 20.6012 6.29911 19.1066 6.06645L19.0914 6.16319ZM23.0274 8.13829C23.1117 8.22009 23.2175 8.25486 23.3208 8.24188C23.4237 8.22866 23.5199 8.16866 23.5868 8.06923L23.5055 8.01462C23.4528 8.09298 23.3806 8.13535 23.3083 8.14441C23.2363 8.15372 23.1597 8.13021 23.0958 8.068L23.0274 8.13829ZM23.5868 8.06923C23.719 7.87331 23.695 7.58605 23.5295 7.42466L23.4609 7.49494C23.5907 7.62131 23.6127 7.85543 23.5055 8.01462L23.5868 8.06923ZM23.5295 7.42466C22.1074 6.04049 20.2677 5.2436 18.3176 5.15886L18.3131 5.25682C20.239 5.34009 22.0557 6.12719 23.4609 7.49494L23.5292 7.42466H23.5295ZM18.3646 5.20784V4.65878H18.2666V5.20784H18.3646ZM18.3646 4.65878C18.3646 4.41217 18.1966 4.19592 17.9713 4.19592V4.29388C18.1263 4.29388 18.2666 4.44841 18.2666 4.65878H18.3646V4.65878ZM17.9713 4.19592C17.746 4.19592 17.5777 4.41217 17.5777 4.65878H17.6757C17.6757 4.44866 17.8163 4.29388 17.9713 4.29388V4.19592ZM17.5777 4.65878V5.20735H17.6757V4.65878H17.5777V4.65878ZM17.6247 5.15837C15.9349 5.23013 14.3448 5.82866 13.0072 6.8996L13.0684 6.97625C14.3899 5.91805 15.9599 5.32735 17.6289 5.25633L17.6247 5.15837V5.15837ZM13.0072 6.8996C11.6475 7.98841 10.6554 9.50237 10.2134 11.1638L10.3079 11.1887C10.7446 9.54817 11.7247 8.05209 13.0684 6.97649L13.0072 6.89984V6.8996ZM10.2134 11.164C10.0616 11.7351 10.1424 12.3407 10.4375 12.8264L10.5212 12.7754C10.2408 12.3138 10.1625 11.7356 10.3082 11.189L10.2134 11.164V11.164ZM10.4375 12.8264C10.7323 13.3115 11.1913 13.5941 11.6982 13.5941V13.4962C11.2305 13.4962 10.8011 13.2363 10.5212 12.7754L10.4375 12.8264V12.8264ZM11.6982 13.5941H14.3064V13.4962H11.6982V13.5941ZM14.3064 13.5941C14.7925 13.5941 15.2287 13.324 15.5145 12.906L15.4336 12.8506C15.1625 13.2474 14.754 13.4962 14.3066 13.4962V13.5941H14.3064ZM15.4336 12.906C15.452 12.9329 15.4711 12.9598 15.4914 12.986L15.5691 12.9265C15.5505 12.902 15.5323 12.8768 15.5145 12.8506L15.4336 12.906V12.906ZM15.4912 12.986C15.7753 13.3583 16.1774 13.5787 16.6016 13.5929L16.6047 13.4949C16.2134 13.482 15.8375 13.2785 15.5691 12.9268L15.4912 12.986ZM16.554 13.5439V19.9791H16.652V13.5437H16.554V13.5439ZM16.6407 19.9478L15.8333 18.977L15.7579 19.0397L16.5656 20.0105L16.6407 19.9478V19.9478ZM15.8333 18.977C15.4449 18.5102 14.9257 18.2504 14.3715 18.2504V18.3483C14.8931 18.3483 15.3859 18.5925 15.7579 19.0397L15.8333 18.977ZM14.3715 18.2504H7.92213V18.3483H14.3715V18.2504V18.2504ZM7.96009 18.2682L4.84033 14.5184L4.7649 14.5808L7.8849 18.3307L7.96009 18.2682V18.2682ZM4.84033 14.5184C4.5489 14.1682 4.15927 13.973 3.7427 13.973V14.0709C4.12694 14.0709 4.49013 14.2505 4.7649 14.5811L4.84033 14.5184ZM3.7427 13.973C3.32637 13.973 2.93649 14.1682 2.64507 14.5184L2.72049 14.5808C2.99551 14.2505 3.35845 14.0709 3.7427 14.0709V13.973ZM2.64531 14.5184C2.04605 15.2391 2.04605 16.4082 2.64531 17.129L2.72074 17.0663C2.1516 16.382 2.1516 15.2656 2.72074 14.5808L2.64531 14.5184V14.5184ZM2.64531 17.129L8.08327 23.6653L8.1587 23.6024L2.72074 17.0663L2.64531 17.129V17.129ZM8.08327 23.6653C8.11756 23.7065 8.41413 24.0474 8.71266 24.3775C8.86205 24.5428 9.01266 24.7056 9.13143 24.8278C9.1907 24.8886 9.24262 24.94 9.28303 24.9762C9.30311 24.9941 9.32098 25.0093 9.33617 25.0203C9.34376 25.0257 9.3516 25.0309 9.35919 25.0348C9.36957 25.0405 9.38116 25.0436 9.39298 25.0438V24.9459C9.40254 24.9459 9.40768 24.9493 9.40425 24.9478C9.40051 24.9457 9.39691 24.9433 9.39347 24.9407C9.37792 24.929 9.36296 24.9165 9.34866 24.9033C9.3107 24.8692 9.2605 24.82 9.20172 24.7595C9.0604 24.6127 8.9216 24.4634 8.78539 24.3118C8.57375 24.0778 8.36484 23.8413 8.1587 23.6024L8.08352 23.6651L8.08327 23.6653ZM9.39298 25.0441C9.4099 25.0436 9.42621 25.0377 9.43952 25.0272C9.45052 25.0189 9.4604 25.0092 9.4689 24.9983C9.4858 24.9772 9.5027 24.9491 9.51911 24.918C9.55217 24.8553 9.58768 24.7718 9.62196 24.6878C9.65698 24.602 9.6898 24.5183 9.71919 24.4473C9.73388 24.4122 9.74686 24.3819 9.75837 24.3581C9.77037 24.3329 9.77845 24.3194 9.78262 24.3145L9.70719 24.2518C9.69445 24.2673 9.68172 24.291 9.66996 24.3158C9.65535 24.3467 9.64155 24.3781 9.62858 24.4098C9.59968 24.4798 9.5649 24.5687 9.53135 24.6508C9.49707 24.7348 9.46303 24.8141 9.43241 24.8722C9.41699 24.9016 9.40352 24.9233 9.3925 24.9371C9.38936 24.9412 9.38574 24.945 9.38172 24.9483C9.37976 24.9498 9.38392 24.9459 9.39298 24.9459V25.0438V25.0441ZM9.77331 24.2433C9.54262 24.0785 9.29527 23.814 9.08735 23.5683C8.98376 23.4459 8.89045 23.3286 8.81454 23.2318C8.73935 23.1358 8.67984 23.0582 8.64556 23.0171L8.57037 23.0798C8.60343 23.1194 8.66074 23.1944 8.73764 23.2923C8.81356 23.3896 8.90784 23.5078 9.01266 23.6315C9.22131 23.8784 9.47527 24.1507 9.71625 24.3231L9.77331 24.2433V24.2433ZM8.6458 23.0171L6.82303 20.8262L6.74784 20.8889L8.57037 23.0798L8.6458 23.0171V23.0171ZM6.7809 20.9063C6.80956 20.909 6.8387 20.9107 6.86858 20.9107V20.8127C6.84237 20.8127 6.81617 20.8113 6.79021 20.8088L6.7809 20.9063V20.9063ZM6.86858 20.9107H9.08025V20.8127H6.86882V20.9107H6.86858ZM9.04254 20.8931L10.3576 22.4736L10.4328 22.4109L9.11796 20.8304L9.04254 20.8931ZM10.3576 22.4736C10.5332 22.685 10.7693 22.8038 11.0225 22.8038V22.7058C10.8019 22.7058 10.5922 22.6025 10.4328 22.4109L10.3574 22.4736H10.3576ZM11.0225 22.8038H15.8977V22.7058H11.0223V22.8038H11.0225ZM15.86 22.7861L17.4479 24.6946L17.5231 24.6319L15.9354 22.7234L15.86 22.7861V22.7861ZM17.4479 24.6946C17.4597 24.7088 17.4763 24.7257 17.4847 24.735L17.5576 24.6696C17.5425 24.6525 17.5344 24.6454 17.5234 24.6319L17.4479 24.6946V24.6946ZM17.5214 24.6535H11.022V24.7514H17.5207V24.6535H17.5214ZM11.0225 24.6535C10.9728 24.6533 10.923 24.6513 10.8734 24.6476L10.8663 24.7456C10.918 24.749 10.9701 24.7512 11.0225 24.7512V24.6532V24.6535ZM10.8768 24.6481C10.863 24.646 10.8491 24.6448 10.8352 24.6444L10.8335 24.7424C10.843 24.7426 10.8526 24.7436 10.8629 24.7448L10.8768 24.6481V24.6481ZM10.8386 24.6447C10.4617 24.6111 10.0966 24.4742 9.77331 24.2433L9.7165 24.3231C10.0535 24.5638 10.435 24.7069 10.83 24.7424L10.8386 24.6447V24.6447ZM9.77331 24.2433C9.58131 24.1061 9.33739 24.1869 9.22915 24.4056L9.31682 24.4492C9.40303 24.2751 9.58156 24.2266 9.71625 24.3231L9.77331 24.2433ZM9.22915 24.4056C9.12262 24.6211 9.17894 24.902 9.36433 25.0348L9.42139 24.9552C9.28009 24.854 9.2289 24.627 9.31682 24.4492L9.22915 24.4056ZM9.36458 25.0348C9.65176 25.2414 9.97404 25.3942 10.3158 25.4859L10.341 25.3914C10.0106 25.3028 9.69903 25.155 9.42139 24.9552L9.36458 25.0348ZM10.2825 25.4217L9.79756 26.7265L9.88964 26.7608L10.3743 25.4555L10.2825 25.4215V25.4217ZM9.79756 26.7265C9.75412 26.8438 9.73586 26.9689 9.74396 27.0937C9.75207 27.2186 9.78635 27.3403 9.84458 27.4509L9.93078 27.4044C9.87916 27.306 9.84877 27.1979 9.8416 27.087C9.83443 26.9762 9.85063 26.865 9.88915 26.7608L9.79756 26.7265V26.7265ZM9.84458 27.4509C9.96213 27.6689 10.1649 27.8041 10.3892 27.8041V27.7061C10.2068 27.7061 10.0341 27.5964 9.93078 27.4044L9.84458 27.4509V27.4509ZM10.3892 27.8041H11.5273V27.7061H10.389V27.8041H10.3892ZM11.5273 27.8041C11.8522 27.8041 12.1334 27.57 12.2497 27.2202L12.1567 27.1894C12.0506 27.5082 11.8011 27.7061 11.5273 27.7061V27.8041ZM12.2497 27.2202L12.8064 25.5454L12.7133 25.5145L12.1567 27.1896L12.2497 27.2202ZM12.7601 25.5789H20.5241V25.481H12.7601V25.5789V25.5789ZM20.4778 25.5454L21.0347 27.2205L21.1278 27.1894L20.5709 25.5145L20.4778 25.5454V25.5454ZM21.0347 27.2205C21.151 27.57 21.4319 27.8041 21.7571 27.8041V27.7061C21.4831 27.7061 21.2336 27.5082 21.1278 27.1894L21.0347 27.2202V27.2205ZM21.7571 27.8041H22.8949V27.7061H21.7571V27.8041ZM22.8949 27.8041C23.1195 27.8041 23.322 27.6689 23.4396 27.4509L23.3534 27.4044C23.2498 27.5964 23.0774 27.7061 22.8949 27.7061V27.8041V27.8041ZM23.4396 27.4509C23.5571 27.233 23.5743 26.9626 23.4869 26.7265L23.395 26.7608C23.4335 26.865 23.4497 26.9762 23.4426 27.087C23.4354 27.1979 23.405 27.306 23.3534 27.4044L23.4396 27.4509ZM23.4869 26.7265L23.0363 25.5131L22.9442 25.5471L23.3948 26.7608L23.4869 26.7265ZM22.9902 25.5789H23.4908V25.481H22.9902V25.5789V25.5789ZM23.4908 25.5789C24.3523 25.5789 25.0385 24.7399 25.0385 23.7285H24.9406C24.9406 24.7034 24.282 25.481 23.4908 25.481V25.5789V25.5789ZM25.0385 23.7285C25.0385 22.7166 24.3523 21.8776 23.4908 21.8776V21.9755C24.282 21.9755 24.9406 22.7531 24.9406 23.7285H25.0385V23.7285ZM23.4908 21.8776H19.3395V21.9755H23.4905V21.8776H23.4908ZM19.3885 21.9265V13.5437H19.2905V21.9265H19.3885ZM19.341 13.5927C19.7649 13.5787 20.1673 13.3583 20.4514 12.9858L20.3735 12.9263C20.1051 13.2782 19.7289 13.4817 19.3378 13.4945L19.341 13.5924V13.5927ZM20.4514 12.9858C20.4714 12.9596 20.4905 12.9327 20.5091 12.9052L20.4281 12.8504C20.4106 12.8762 20.3924 12.9015 20.3735 12.9263L20.4514 12.9858V12.9858ZM20.4281 12.9055C20.7139 13.3238 21.1503 13.5936 21.6359 13.5936V13.4957C21.1885 13.4957 20.78 13.2471 20.5089 12.8501L20.4281 12.9055ZM21.6359 13.5936H24.2441V13.4957H21.6359V13.5936ZM24.2441 13.5936C24.7513 13.5936 25.2102 13.311 25.5053 12.8259L25.4213 12.7749C25.1414 13.2358 24.7118 13.4959 24.2443 13.4959V13.5939L24.2441 13.5936ZM25.5053 12.8259C25.7999 12.3405 25.881 11.7349 25.7291 11.1638L25.6346 11.189C25.7798 11.7354 25.7017 12.3136 25.4216 12.7749L25.5051 12.8259H25.5053ZM11.5167 26.8825C11.5167 26.8835 11.5167 26.8825 11.5182 26.8813C11.5208 26.8794 11.524 26.8783 11.5273 26.8784V26.9763C11.5689 26.9763 11.599 26.9465 11.6098 26.9131L11.5167 26.8825V26.8825ZM11.5273 26.8784H10.5296V26.9763H11.5273V26.8784ZM10.5754 26.9445L11.0945 25.5474L11.0025 25.5131L10.4838 26.9105L10.5754 26.9445ZM11.0485 25.5792H12.0183V25.4812H11.0485V25.5792ZM11.9718 25.5148L11.517 26.8823L11.61 26.9134L12.0648 25.5456L11.9718 25.5148ZM15.091 11.5757V11.5727V11.5786H15.189L15.1887 11.5813V11.5816V11.5798L15.189 11.5757H15.091ZM15.091 11.5735C15.0909 11.5751 15.0908 11.5767 15.0908 11.5784V11.5789V11.5776L15.1883 11.5894V11.5857L15.1885 11.5838V11.583V11.5835L15.091 11.5737V11.5735ZM15.0905 11.5801C15.0851 11.6548 15.0803 11.729 15.0758 11.8027L15.1736 11.8086C15.178 11.7354 15.1829 11.6616 15.1883 11.5869L15.0905 11.5801ZM15.0758 11.8027C15.046 12.2959 14.7011 12.6682 14.3066 12.6682V12.7661C14.7673 12.7661 15.1417 12.3376 15.1736 11.8086L15.0756 11.8027H15.0758ZM14.3066 12.6682H11.6985V12.7661H14.3066V12.6682ZM11.6985 12.6682C11.4531 12.6682 11.2263 12.532 11.0774 12.2871L10.9936 12.3378C11.1575 12.6072 11.4136 12.7664 11.6982 12.7664V12.6684L11.6985 12.6682ZM11.0774 12.2871C10.9283 12.0415 10.8864 11.7331 10.964 11.441L10.8692 11.416C10.7852 11.7324 10.83 12.0684 10.9936 12.3378L11.0774 12.2871ZM10.964 11.441C11.3531 9.9787 12.236 8.63739 13.4502 7.66539L13.389 7.58898C12.1589 8.57347 11.264 9.93266 10.8692 11.416L10.964 11.441V11.441ZM13.4502 7.66539C14.4521 6.86311 15.6119 6.35298 16.8518 6.16196L16.8371 6.06523C15.5798 6.2587 14.4041 6.77617 13.389 7.58898L13.4502 7.66539ZM16.8065 6.08262C15.6433 7.50964 15.224 9.73551 15.0913 11.5722L15.189 11.5794C15.3215 9.74531 15.7395 7.54637 16.8825 6.14458L16.8065 6.08262V6.08262ZM5.84368 19.6492L3.20784 16.481L3.13266 16.5437L5.76849 19.7119L5.84368 19.6492V19.6492ZM3.20784 16.481C2.90711 16.1198 2.90711 15.5281 3.20784 15.1666L3.13266 15.1039C2.80156 15.5016 2.80156 16.146 3.13266 16.5437L3.20784 16.481ZM3.20784 15.1666C3.35258 14.9925 3.54286 14.8992 3.74294 14.8992V14.8012C3.51029 14.8012 3.2938 14.9102 3.13266 15.1039L3.20784 15.1666V15.1666ZM3.74294 14.8992C3.94327 14.8992 4.13331 14.9925 4.27829 15.1666L4.35347 15.1039C4.19233 14.9102 3.9756 14.8012 3.74294 14.8012V14.8992ZM4.27829 15.1666L6.91045 18.3307L6.98564 18.268L4.35347 15.1039L4.27829 15.1666V15.1666ZM6.94817 18.2504H6.86858V18.3483H6.94817V18.2504ZM6.86858 18.2504C6.24556 18.2504 5.75356 18.856 5.75356 19.5807H5.85152C5.85152 18.8925 6.31584 18.3483 6.86833 18.3483V18.2504H6.86858ZM5.75356 19.5807C5.75356 19.6157 5.75503 19.6502 5.75723 19.6838L5.85494 19.6774C5.85275 19.6452 5.85161 19.6129 5.85152 19.5807H5.75356V19.5807ZM11.022 21.8776C11.0021 21.8773 10.9824 21.8725 10.9646 21.8634C10.9467 21.8544 10.9312 21.8414 10.9192 21.8254L10.844 21.8881C10.8905 21.9437 10.9518 21.9755 11.022 21.9755V21.8776V21.8776ZM10.9192 21.8254L10.0914 20.8304L10.0163 20.8931L10.844 21.8881L10.9194 21.8254H10.9192ZM10.0537 20.9107H14.3223V20.8127H10.0537V20.9107ZM14.2848 20.8931L15.1709 21.9579L15.246 21.8952L14.36 20.8304L14.2848 20.8931ZM15.2088 21.8776H11.022V21.9755H15.2086V21.8776H15.2088ZM18.4682 24.0464C18.405 24.1223 18.3237 24.1615 18.2389 24.1615V24.2594C18.356 24.2594 18.464 24.2043 18.5434 24.1091L18.4679 24.0464H18.4682ZM18.2389 24.1615C18.1545 24.1615 18.0729 24.1223 18.01 24.0464L17.9345 24.1091C18.0141 24.2046 18.1219 24.2594 18.2389 24.2594V24.1615V24.1615ZM18.01 24.0464L16.3214 22.0167L16.246 22.0794L17.9345 24.1091L18.01 24.0464V24.0464ZM16.3214 22.0167V22.0164L16.246 22.0791L16.3214 22.0167ZM16.3214 22.0164L14.8128 20.2034L14.7376 20.2661L16.246 22.0791L16.3211 22.0164H16.3214ZM14.8128 20.2034C14.6967 20.0638 14.5402 19.9847 14.3715 19.9847V20.0827C14.5079 20.0827 14.638 20.1464 14.7376 20.2661L14.8128 20.2034ZM14.3715 19.9847H6.86858V20.0827H14.3718V19.9847H14.3715ZM6.86833 19.9847C6.69543 19.9847 6.54017 19.8121 6.54017 19.5804H6.44221C6.44221 19.8486 6.62539 20.0827 6.86833 20.0827V19.9847V19.9847ZM6.54017 19.5804C6.54017 19.3485 6.69543 19.1758 6.86833 19.1758V19.0779C6.62539 19.0779 6.44221 19.312 6.44221 19.5804H6.54017ZM6.86833 19.1758H14.3715V19.0779H6.86858V19.1758H6.86833ZM14.3715 19.1758C14.7095 19.1758 15.0288 19.3338 15.2708 19.6247L15.3462 19.5623C15.0876 19.2515 14.7418 19.0779 14.3715 19.0779V19.1758V19.1758ZM15.2708 19.6247L16.6662 21.302L16.7414 21.2394L15.3462 19.5623L15.2708 19.6247ZM16.7037 21.3197H16.7039V21.2217V21.3197H16.7037ZM16.6662 21.302L18.4682 23.4679L18.5434 23.4052L16.7416 21.2394L16.6662 21.302V21.302ZM18.4682 23.4679C18.5314 23.5438 18.5671 23.6462 18.5671 23.7569H18.6651C18.6651 23.6254 18.6225 23.5002 18.5434 23.4052L18.4679 23.4677L18.4682 23.4679ZM18.5671 23.7569C18.5671 23.8678 18.5314 23.9705 18.4682 24.0464L18.5434 24.1091C18.6225 24.0138 18.6651 23.8887 18.6651 23.7571H18.5671V23.7569ZM18.6504 21.8776H18.2238V21.9755H18.6504V21.8776ZM18.2615 21.8952L17.3296 20.7755L17.2542 20.838L18.186 21.9581L18.2615 21.8954V21.8952ZM17.3409 20.8066V13.5449H17.2429V20.8064H17.3409V20.8066ZM17.2919 13.5939H18.6504V13.4959H17.2919V13.5939ZM18.6014 13.5449V21.9265H18.6994V13.5451H18.6014V13.5449ZM21.7571 26.8784C21.7613 26.8784 21.7645 26.8801 21.766 26.8813C21.7677 26.8825 21.7677 26.8833 21.7672 26.8823L21.6741 26.9129C21.6851 26.9467 21.7153 26.9766 21.7571 26.9766V26.8786V26.8784ZM21.7672 26.8823L21.3124 25.5148L21.2194 25.5456L21.6741 26.9131L21.7672 26.8823ZM21.2661 25.5794H22.2357V25.4815H21.2659V25.5794H21.2661ZM22.1899 25.5474L22.7091 26.9445L22.8007 26.9102L22.2815 25.5133L22.1899 25.5474ZM22.7549 26.8784H21.7571V26.9763H22.7549V26.8784ZM23.4908 22.8038C23.9022 22.8038 24.2517 23.2098 24.2517 23.7287H24.3496C24.3496 23.1733 23.9725 22.7058 23.4908 22.7058V22.8038ZM24.2517 23.7287C24.2517 24.2472 23.9022 24.6535 23.4908 24.6535V24.7514C23.9725 24.7514 24.3496 24.2837 24.3496 23.7287H24.2517ZM23.4908 24.6535H22.4529V24.7514H23.4908V24.6535ZM22.4529 24.6535H22.4519V24.7514H22.4529V24.6535ZM22.4519 24.6535H18.9572V24.7514H22.4519V24.6535ZM18.9932 24.7355C19.0028 24.725 19.018 24.7096 19.03 24.6951L18.9553 24.6319C18.9445 24.6447 18.9349 24.654 18.921 24.6694L18.9932 24.7355ZM19.0305 24.6949C19.2398 24.4431 19.354 24.11 19.354 23.7576H19.256C19.256 24.0892 19.1485 24.3998 18.955 24.6322L19.0305 24.6949ZM19.354 23.7576C19.354 23.405 19.2398 23.0719 19.0305 22.8199L18.955 22.8826C19.1485 23.1153 19.256 23.4256 19.256 23.7576H19.354ZM19.0305 22.8199L18.9499 22.7234L18.8747 22.7861L18.955 22.8826L19.0305 22.8199V22.8199ZM18.9124 22.8038H23.4908V22.7058H18.9124V22.8038V22.8038ZM19.8658 12.3669C19.7162 12.5629 19.5146 12.6682 19.2986 12.6682V12.7661C19.5489 12.7661 19.7779 12.6437 19.9437 12.4265L19.8658 12.3669V12.3669ZM19.2986 12.6682H16.6439V12.7661H19.2986V12.6682ZM16.6439 12.6682C16.4277 12.6682 16.2261 12.5629 16.0765 12.3669L15.9986 12.4262C16.1644 12.6437 16.3934 12.7661 16.6439 12.7661V12.6682ZM16.0765 12.3669C15.9283 12.1725 15.8561 11.9202 15.8747 11.6553L15.777 11.6484C15.7567 11.9349 15.8348 12.2114 15.9986 12.4262L16.0765 12.3669V12.3669ZM15.8747 11.6553C16.1201 8.224 17.1357 6.75535 17.9999 6.12841L17.9424 6.04907C17.0458 6.69951 16.0234 8.20147 15.777 11.6484L15.8749 11.6553H15.8747ZM17.9424 6.12841C18.8069 6.75535 19.8225 8.22425 20.0676 11.6565L20.1653 11.6494C19.9192 8.20172 18.8967 6.69951 17.9999 6.04907L17.9424 6.12841V6.12841ZM20.0676 11.6562C20.0862 11.9207 20.0137 12.173 19.8658 12.3672L19.9437 12.4265C20.1075 12.2119 20.1854 11.9357 20.1653 11.6494L20.0674 11.6565L20.0676 11.6562Z" fill="#E5550E"/>
<path d="M25.6819 11.1765L25.7291 11.1638L25.6819 11.1765ZM24.6998 8.94254L24.7415 8.91633L24.7393 8.91339L24.6998 8.94254ZM22.3542 6.93805L22.3224 6.90107L22.3126 6.90939L22.3082 6.92115L22.3542 6.93805V6.93805ZM24.1525 9.44482L24.1939 9.41862L24.1922 9.41617L24.1525 9.44482V9.44482ZM25.0258 11.4285L25.0731 11.416L25.0258 11.4285ZM24.9068 12.3123L24.9487 12.3378L24.907 12.3123H24.9068ZM20.8177 11.8054L20.8667 11.8025L20.8177 11.8054ZM20.803 11.585H20.754V11.5887L20.803 11.585ZM20.8028 11.5786H20.8518V11.5752L20.8513 11.5718L20.8028 11.5786V11.5786ZM20.802 11.5747L20.7531 11.5781L20.7536 11.5813L20.802 11.5747V11.5747ZM19.0993 6.11494L19.1066 6.06645L18.9807 6.04686L19.0616 6.1458L19.0993 6.11494ZM23.0617 8.10327L23.0277 8.13829L23.062 8.10327H23.0617ZM23.4954 7.45992L23.4611 7.49494L23.4954 7.45992ZM18.3158 5.20784H18.2669V5.25462L18.3136 5.25682L18.3158 5.20784ZM17.6269 5.20735L17.6291 5.25633L17.6759 5.25437V5.20735H17.6269V5.20735ZM13.038 6.93805L13.0687 6.97625L13.038 6.93805ZM10.2609 11.1762L10.2136 11.1635L10.2609 11.1762ZM10.4796 12.8007L10.4377 12.8261L10.4794 12.8007H10.4796ZM15.4743 12.878L15.5147 12.8504L15.4743 12.7911L15.4339 12.8504L15.4743 12.878ZM15.5306 12.9562L15.5693 12.9263L15.5304 12.9562H15.5306ZM16.6033 13.5437H16.6523V13.4962L16.605 13.4947L16.6033 13.5437V13.5437ZM16.6033 19.9789L16.5658 20.0102L16.6525 20.1143V19.9789H16.6035H16.6033ZM15.7958 19.0081L15.7581 19.0394L15.7958 19.0081ZM7.92237 18.2991L7.8849 18.3305L7.8996 18.3483H7.92262V18.2994L7.92237 18.2991ZM4.80311 14.5497L4.76539 14.5808L4.80311 14.5497ZM2.68327 14.5497L2.64556 14.5184L2.68327 14.5497ZM2.68327 17.0976L2.64556 17.129L2.68327 17.0976ZM8.12098 23.634L8.1587 23.6024L8.12098 23.6337V23.634ZM8.60809 23.0484L8.57037 23.0798L8.60809 23.0484ZM6.78556 20.8576L6.78996 20.8088L6.67192 20.7978L6.74784 20.8889L6.78556 20.8576ZM9.08025 20.8617L9.11796 20.8304L9.10327 20.8127H9.08025V20.8617ZM10.3951 22.4423L10.3574 22.4736L10.3951 22.4423ZM15.898 22.7548L15.9354 22.7234L15.9207 22.7058H15.8977V22.7548H15.898ZM17.4854 24.6633L17.5231 24.6319L17.4854 24.6633ZM17.5211 24.7025V24.7514H17.6314L17.5576 24.6696L17.5211 24.7022V24.7025ZM10.8697 24.6966L10.8629 24.7451H10.8646L10.8663 24.7453L10.87 24.6963L10.8697 24.6966ZM10.8345 24.6934L10.83 24.7424H10.8335L10.8345 24.6934ZM9.27298 24.4274L9.2289 24.4056L9.27298 24.4274ZM10.3285 25.4386L10.3743 25.4558L10.3931 25.4051L10.341 25.3914L10.3282 25.4386H10.3285ZM9.8436 26.7439L9.88964 26.7608L9.8436 26.7437V26.7439ZM9.88768 27.4277L9.84482 27.4509L9.88792 27.4277H9.88768ZM12.2032 27.2048L12.1567 27.1894L12.2032 27.2048ZM12.7603 25.53V25.481H12.7248L12.7138 25.5145L12.7603 25.53V25.53ZM20.5246 25.53L20.5711 25.5145L20.5598 25.481H20.5246V25.53V25.53ZM21.0812 27.2051L21.0347 27.2202L21.0812 27.2048V27.2051ZM23.3967 27.4277L23.4398 27.4509L23.3967 27.4277ZM23.4411 26.7437L23.4871 26.7265L23.4411 26.7437ZM22.9905 25.53V25.481H22.9199L22.9444 25.5471L22.9905 25.53ZM19.3395 21.9265H19.2905V21.9755H19.3395V21.9265ZM19.3395 13.5437L19.3378 13.4947L19.2905 13.4962V13.5437H19.3395ZM20.4122 12.9559L20.4514 12.9858L20.4122 12.9562V12.9559ZM20.4685 12.8778L20.5089 12.8501L20.4685 12.7906L20.4281 12.8504L20.4685 12.8778ZM25.4632 12.8004L25.5051 12.8259L25.4634 12.8004H25.4632ZM11.5635 26.8977L11.517 26.8823L11.5635 26.8977ZM10.5296 26.9274L10.4835 26.9102L10.459 26.9763H10.5296V26.9274V26.9274ZM11.0485 25.5302V25.4812H11.0142L11.0025 25.5131L11.0485 25.5302V25.5302ZM12.0183 25.5302L12.0648 25.5456L12.0861 25.4812H12.0183V25.5302ZM15.14 11.5759L15.091 11.5722V11.5757H15.14V11.5759ZM15.14 11.5784L15.1885 11.5835L15.1887 11.5811V11.5786H15.1398L15.14 11.5784ZM15.1395 11.5835L15.0908 11.5776V11.5801L15.1395 11.5835ZM15.1248 11.8056L15.0758 11.8027L15.1248 11.8056ZM11.0355 12.3126L10.9939 12.3378L11.0355 12.3126ZM10.9165 11.4285L10.8692 11.416L10.9167 11.4285H10.9165ZM13.4196 7.62719L13.4502 7.66539L13.4196 7.62719ZM16.8445 6.11372L16.8825 6.14458L16.9633 6.04588L16.8371 6.06523L16.8445 6.11347V6.11372ZM5.80596 19.6803L5.76849 19.7117L5.86474 19.8275L5.85494 19.6771L5.80596 19.6803V19.6803ZM3.17013 16.5123L3.20784 16.481L3.17013 16.5123ZM3.17013 15.1353L3.20784 15.1666L3.17013 15.1353ZM4.31576 15.1353L4.35347 15.1039L4.31576 15.1353ZM6.94817 18.2994V18.3483H7.0525L6.98564 18.268L6.94817 18.2994ZM10.882 21.857L10.9197 21.8256L10.882 21.857ZM10.0542 20.862V20.813H9.94964L10.0165 20.8933L10.054 20.862H10.0542ZM14.3228 20.862L14.3603 20.8306L14.3456 20.813H14.3228V20.862V20.862ZM15.2088 21.9268V21.9758H15.3131L15.2463 21.8954L15.2088 21.9268ZM17.9723 24.078L17.9345 24.1093L17.9723 24.078ZM14.7751 20.235L14.7376 20.2664L14.7751 20.235ZM15.3085 19.5936L15.2708 19.625L15.3085 19.5936ZM16.7037 21.2709L16.6662 21.3023L16.6809 21.3199H16.7037V21.2709V21.2709ZM16.7039 21.2709L16.7416 21.2396L16.7269 21.222H16.7039V21.2709ZM18.5056 23.4368L18.5434 23.4055L18.5056 23.4368ZM18.6504 21.9268V21.9758H18.6994V21.9268H18.6504ZM18.2238 21.9268L18.186 21.9581L18.2007 21.9758H18.2238V21.9268ZM17.2919 20.8069H17.2429V20.8245L17.2542 20.838L17.2919 20.8069V20.8069ZM17.2919 13.5451V13.4962H17.2429V13.5451H17.2919ZM18.6504 13.5451H18.6994V13.4962H18.6504V13.5451ZM21.7207 26.8977L21.7672 26.8823L21.7207 26.8977ZM21.2661 25.5302V25.4812H21.198L21.2196 25.5456L21.2661 25.5302V25.5302ZM22.2357 25.5302L22.2817 25.5131L22.2697 25.4812H22.2357V25.5302V25.5302ZM22.7549 26.9274V26.9763H22.8251L22.8007 26.9102L22.7549 26.9274V26.9274ZM18.9567 24.7022L18.9207 24.6691L18.8456 24.7512H18.9567V24.7022V24.7022ZM18.9925 24.6635L19.03 24.6954V24.6949L18.9925 24.6635ZM18.9925 22.8513L19.0302 22.8199L18.9925 22.8513ZM18.9122 22.7548V22.7058H18.8076L18.8745 22.7861L18.9122 22.7548V22.7548ZM19.9045 12.3968L19.9437 12.4265L19.9045 12.3968ZM16.0376 12.3966L16.0763 12.3669L16.0373 12.3966H16.0376ZM15.8257 11.6521L15.7767 11.6484L15.8257 11.6518V11.6521ZM17.971 6.08874L17.9997 6.04907L17.971 6.02825L17.9421 6.04907L17.971 6.08874ZM20.1163 11.6528L20.1651 11.6494L20.1161 11.6531L20.1163 11.6528ZM25.7289 11.1638C25.5164 10.3685 25.1832 9.61058 24.741 8.91633L24.6582 8.96874C25.0952 9.65458 25.4244 10.4034 25.6344 11.189L25.7289 11.1638ZM24.739 8.91339C23.8434 7.69772 23.2973 7.15086 22.9488 6.92874C22.7737 6.81731 22.6427 6.784 22.5391 6.79478C22.4348 6.8058 22.3677 6.8609 22.3219 6.90107L22.386 6.97502C22.4299 6.93707 22.4771 6.90009 22.5494 6.89225C22.6226 6.88466 22.7311 6.90621 22.8962 7.01127C23.2278 7.22262 23.7648 7.75576 24.6602 8.97168L24.739 8.91339ZM22.3079 6.92139C22.2553 7.06564 22.268 7.19323 22.3361 7.32792C22.4022 7.45894 22.521 7.59829 22.6794 7.76996C22.9978 8.11551 23.4925 8.60947 24.1123 9.47347L24.1919 9.41641C23.5679 8.54629 23.0686 8.04743 22.7514 7.7036C22.592 7.5307 22.4825 7.4009 22.4235 7.28409C22.3665 7.17094 22.3574 7.07151 22.4 6.9547L22.3079 6.92139V6.92139ZM24.1109 9.47127C24.4989 10.0797 24.7914 10.744 24.9783 11.441L25.0728 11.416C24.8835 10.7092 24.587 10.0356 24.1936 9.41862L24.1109 9.47127V9.47127ZM24.9783 11.441C25.0559 11.7329 25.0138 12.041 24.8647 12.2869L24.9484 12.3376C25.1123 12.0682 25.1571 11.7322 25.0728 11.416L24.9783 11.441V11.441ZM24.8647 12.2869C24.716 12.5318 24.4892 12.6682 24.2438 12.6682V12.7661C24.5287 12.7661 24.7848 12.6069 24.9484 12.3376L24.8647 12.2869ZM24.2438 12.6682H21.6359V12.7661H24.2441V12.6682H24.2438ZM21.6357 12.6682C21.2409 12.6682 20.8961 12.2957 20.8665 11.8025L20.7685 11.8083C20.8006 12.3373 21.1748 12.7661 21.6354 12.7661V12.6682H21.6357ZM20.8665 11.8025C20.8619 11.7288 20.8569 11.6552 20.8515 11.5816L20.7536 11.5887C20.7592 11.6626 20.7641 11.7358 20.7687 11.8083L20.8665 11.8025V11.8025ZM20.8518 11.585L20.8515 11.5798V11.5786H20.7536V11.585H20.8515H20.8518ZM20.851 11.5718L20.8505 11.5678L20.7533 11.5813L20.754 11.5852L20.851 11.5718ZM20.8508 11.5713C20.718 9.73527 20.299 7.51086 19.1367 6.08384L19.0608 6.1458C20.2028 7.54735 20.6208 9.74531 20.7531 11.5781L20.8508 11.5713ZM19.0914 6.16319C20.5657 6.3929 21.9342 7.07421 23.0274 8.13829L23.096 8.068C21.9881 6.98996 20.6012 6.29911 19.1066 6.06645L19.0914 6.16319ZM23.0274 8.13829C23.1117 8.22009 23.2175 8.25486 23.3208 8.24188C23.4237 8.22866 23.5199 8.16866 23.5868 8.06923L23.5055 8.01462C23.4528 8.09298 23.3806 8.13535 23.3083 8.14441C23.2363 8.15372 23.1597 8.13021 23.0958 8.068L23.0274 8.13829ZM23.5868 8.06923C23.719 7.87331 23.695 7.58605 23.5295 7.42466L23.4609 7.49494C23.5907 7.62131 23.6127 7.85543 23.5055 8.01462L23.5868 8.06923ZM23.5295 7.42466C22.1074 6.04049 20.2677 5.2436 18.3176 5.15886L18.3131 5.25682C20.239 5.34009 22.0557 6.12719 23.4609 7.49494L23.5292 7.42466H23.5295ZM18.3646 5.20784V4.65878H18.2666V5.20784H18.3646ZM18.3646 4.65878C18.3646 4.41217 18.1966 4.19592 17.9713 4.19592V4.29388C18.1263 4.29388 18.2666 4.44841 18.2666 4.65878H18.3646V4.65878ZM17.9713 4.19592C17.746 4.19592 17.5777 4.41217 17.5777 4.65878H17.6757C17.6757 4.44866 17.8163 4.29388 17.9713 4.29388V4.19592ZM17.5777 4.65878V5.20735H17.6757V4.65878H17.5777V4.65878ZM17.6247 5.15837C15.9349 5.23013 14.3448 5.82866 13.0072 6.8996L13.0684 6.97625C14.3899 5.91805 15.9599 5.32735 17.6289 5.25633L17.6247 5.15837V5.15837ZM13.0072 6.8996C11.6475 7.98841 10.6554 9.50237 10.2134 11.1638L10.3079 11.1887C10.7446 9.54817 11.7247 8.05209 13.0684 6.97649L13.0072 6.89984V6.8996ZM10.2134 11.164C10.0616 11.7351 10.1424 12.3407 10.4375 12.8264L10.5212 12.7754C10.2408 12.3138 10.1625 11.7356 10.3082 11.189L10.2134 11.164V11.164ZM10.4375 12.8264C10.7323 13.3115 11.1913 13.5941 11.6982 13.5941V13.4962C11.2305 13.4962 10.8011 13.2363 10.5212 12.7754L10.4375 12.8264V12.8264ZM11.6982 13.5941H14.3064V13.4962H11.6982V13.5941ZM14.3064 13.5941C14.7925 13.5941 15.2287 13.324 15.5145 12.906L15.4336 12.8506C15.1625 13.2474 14.754 13.4962 14.3066 13.4962V13.5941H14.3064ZM15.4336 12.906C15.452 12.9329 15.4711 12.9598 15.4914 12.986L15.5691 12.9265C15.5505 12.902 15.5323 12.8768 15.5145 12.8506L15.4336 12.906V12.906ZM15.4912 12.986C15.7753 13.3583 16.1774 13.5787 16.6016 13.5929L16.6047 13.4949C16.2134 13.482 15.8375 13.2785 15.5691 12.9268L15.4912 12.986ZM16.554 13.5439V19.9791H16.652V13.5437H16.554V13.5439ZM16.6407 19.9478L15.8333 18.977L15.7579 19.0397L16.5656 20.0105L16.6407 19.9478V19.9478ZM15.8333 18.977C15.4449 18.5102 14.9257 18.2504 14.3715 18.2504V18.3483C14.8931 18.3483 15.3859 18.5925 15.7579 19.0397L15.8333 18.977ZM14.3715 18.2504H7.92213V18.3483H14.3715V18.2504V18.2504ZM7.96009 18.2682L4.84033 14.5184L4.7649 14.5808L7.8849 18.3307L7.96009 18.2682V18.2682ZM4.84033 14.5184C4.5489 14.1682 4.15927 13.973 3.7427 13.973V14.0709C4.12694 14.0709 4.49013 14.2505 4.7649 14.5811L4.84033 14.5184ZM3.7427 13.973C3.32637 13.973 2.93649 14.1682 2.64507 14.5184L2.72049 14.5808C2.99551 14.2505 3.35845 14.0709 3.7427 14.0709V13.973ZM2.64531 14.5184C2.04605 15.2391 2.04605 16.4082 2.64531 17.129L2.72074 17.0663C2.1516 16.382 2.1516 15.2656 2.72074 14.5808L2.64531 14.5184V14.5184ZM2.64531 17.129L8.08327 23.6653L8.1587 23.6024L2.72074 17.0663L2.64531 17.129V17.129ZM8.08327 23.6653C8.11756 23.7065 8.41413 24.0474 8.71266 24.3775C8.86205 24.5428 9.01266 24.7056 9.13143 24.8278C9.1907 24.8886 9.24262 24.94 9.28303 24.9762C9.30311 24.9941 9.32098 25.0093 9.33617 25.0203C9.34376 25.0257 9.3516 25.0309 9.35919 25.0348C9.36957 25.0405 9.38116 25.0436 9.39298 25.0438V24.9459C9.40254 24.9459 9.40768 24.9493 9.40425 24.9478C9.40051 24.9457 9.39691 24.9433 9.39347 24.9407C9.37792 24.929 9.36296 24.9165 9.34866 24.9033C9.3107 24.8692 9.2605 24.82 9.20172 24.7595C9.0604 24.6127 8.9216 24.4634 8.78539 24.3118C8.57375 24.0778 8.36484 23.8413 8.1587 23.6024L8.08352 23.6651L8.08327 23.6653ZM9.39298 25.0441C9.4099 25.0436 9.42621 25.0377 9.43952 25.0272C9.45052 25.0189 9.4604 25.0092 9.4689 24.9983C9.4858 24.9772 9.5027 24.9491 9.51911 24.918C9.55217 24.8553 9.58768 24.7718 9.62196 24.6878C9.65698 24.602 9.6898 24.5183 9.71919 24.4473C9.73388 24.4122 9.74686 24.3819 9.75837 24.3581C9.77037 24.3329 9.77845 24.3194 9.78262 24.3145L9.70719 24.2518C9.69445 24.2673 9.68172 24.291 9.66996 24.3158C9.65535 24.3467 9.64155 24.3781 9.62858 24.4098C9.59968 24.4798 9.5649 24.5687 9.53135 24.6508C9.49707 24.7348 9.46303 24.8141 9.43241 24.8722C9.41699 24.9016 9.40352 24.9233 9.3925 24.9371C9.38936 24.9412 9.38574 24.945 9.38172 24.9483C9.37976 24.9498 9.38392 24.9459 9.39298 24.9459V25.0438V25.0441ZM9.77331 24.2433C9.54262 24.0785 9.29527 23.814 9.08735 23.5683C8.98376 23.4459 8.89045 23.3286 8.81454 23.2318C8.73935 23.1358 8.67984 23.0582 8.64556 23.0171L8.57037 23.0798C8.60343 23.1194 8.66074 23.1944 8.73764 23.2923C8.81356 23.3896 8.90784 23.5078 9.01266 23.6315C9.22131 23.8784 9.47527 24.1507 9.71625 24.3231L9.77331 24.2433V24.2433ZM8.6458 23.0171L6.82303 20.8262L6.74784 20.8889L8.57037 23.0798L8.6458 23.0171V23.0171ZM6.7809 20.9063C6.80956 20.909 6.8387 20.9107 6.86858 20.9107V20.8127C6.84237 20.8127 6.81617 20.8113 6.79021 20.8088L6.7809 20.9063V20.9063ZM6.86858 20.9107H9.08025V20.8127H6.86882V20.9107H6.86858ZM9.04254 20.8931L10.3576 22.4736L10.4328 22.4109L9.11796 20.8304L9.04254 20.8931ZM10.3576 22.4736C10.5332 22.685 10.7693 22.8038 11.0225 22.8038V22.7058C10.8019 22.7058 10.5922 22.6025 10.4328 22.4109L10.3574 22.4736H10.3576ZM11.0225 22.8038H15.8977V22.7058H11.0223V22.8038H11.0225ZM15.86 22.7861L17.4479 24.6946L17.5231 24.6319L15.9354 22.7234L15.86 22.7861V22.7861ZM17.4479 24.6946C17.4597 24.7088 17.4763 24.7257 17.4847 24.735L17.5576 24.6696C17.5425 24.6525 17.5344 24.6454 17.5234 24.6319L17.4479 24.6946V24.6946ZM17.5214 24.6535H11.022V24.7514H17.5207V24.6535H17.5214ZM11.0225 24.6535C10.9728 24.6533 10.923 24.6513 10.8734 24.6476L10.8663 24.7456C10.918 24.749 10.9701 24.7512 11.0225 24.7512V24.6532V24.6535ZM10.8768 24.6481C10.863 24.646 10.8491 24.6448 10.8352 24.6444L10.8335 24.7424C10.843 24.7426 10.8526 24.7436 10.8629 24.7448L10.8768 24.6481V24.6481ZM10.8386 24.6447C10.4617 24.6111 10.0966 24.4742 9.77331 24.2433L9.7165 24.3231C10.0535 24.5638 10.435 24.7069 10.83 24.7424L10.8386 24.6447V24.6447ZM9.77331 24.2433C9.58131 24.1061 9.33739 24.1869 9.22915 24.4056L9.31682 24.4492C9.40303 24.2751 9.58156 24.2266 9.71625 24.3231L9.77331 24.2433ZM9.22915 24.4056C9.12262 24.6211 9.17894 24.902 9.36433 25.0348L9.42139 24.9552C9.28009 24.854 9.2289 24.627 9.31682 24.4492L9.22915 24.4056ZM9.36458 25.0348C9.65176 25.2414 9.97404 25.3942 10.3158 25.4859L10.341 25.3914C10.0106 25.3028 9.69903 25.155 9.42139 24.9552L9.36458 25.0348ZM10.2825 25.4217L9.79756 26.7265L9.88964 26.7608L10.3743 25.4555L10.2825 25.4215V25.4217ZM9.79756 26.7265C9.75412 26.8438 9.73586 26.9689 9.74396 27.0937C9.75207 27.2186 9.78635 27.3403 9.84458 27.4509L9.93078 27.4044C9.87916 27.306 9.84877 27.1979 9.8416 27.087C9.83443 26.9762 9.85063 26.865 9.88915 26.7608L9.79756 26.7265V26.7265ZM9.84458 27.4509C9.96213 27.6689 10.1649 27.8041 10.3892 27.8041V27.7061C10.2068 27.7061 10.0341 27.5964 9.93078 27.4044L9.84458 27.4509V27.4509ZM10.3892 27.8041H11.5273V27.7061H10.389V27.8041H10.3892ZM11.5273 27.8041C11.8522 27.8041 12.1334 27.57 12.2497 27.2202L12.1567 27.1894C12.0506 27.5082 11.8011 27.7061 11.5273 27.7061V27.8041ZM12.2497 27.2202L12.8064 25.5454L12.7133 25.5145L12.1567 27.1896L12.2497 27.2202ZM12.7601 25.5789H20.5241V25.481H12.7601V25.5789V25.5789ZM20.4778 25.5454L21.0347 27.2205L21.1278 27.1894L20.5709 25.5145L20.4778 25.5454V25.5454ZM21.0347 27.2205C21.151 27.57 21.4319 27.8041 21.7571 27.8041V27.7061C21.4831 27.7061 21.2336 27.5082 21.1278 27.1894L21.0347 27.2202V27.2205ZM21.7571 27.8041H22.8949V27.7061H21.7571V27.8041ZM22.8949 27.8041C23.1195 27.8041 23.322 27.6689 23.4396 27.4509L23.3534 27.4044C23.2498 27.5964 23.0774 27.7061 22.8949 27.7061V27.8041V27.8041ZM23.4396 27.4509C23.5571 27.233 23.5743 26.9626 23.4869 26.7265L23.395 26.7608C23.4335 26.865 23.4497 26.9762 23.4426 27.087C23.4354 27.1979 23.405 27.306 23.3534 27.4044L23.4396 27.4509ZM23.4869 26.7265L23.0363 25.5131L22.9442 25.5471L23.3948 26.7608L23.4869 26.7265ZM22.9902 25.5789H23.4908V25.481H22.9902V25.5789V25.5789ZM23.4908 25.5789C24.3523 25.5789 25.0385 24.7399 25.0385 23.7285H24.9406C24.9406 24.7034 24.282 25.481 23.4908 25.481V25.5789V25.5789ZM25.0385 23.7285C25.0385 22.7166 24.3523 21.8776 23.4908 21.8776V21.9755C24.282 21.9755 24.9406 22.7531 24.9406 23.7285H25.0385V23.7285ZM23.4908 21.8776H19.3395V21.9755H23.4905V21.8776H23.4908ZM19.3885 21.9265V13.5437H19.2905V21.9265H19.3885ZM19.341 13.5927C19.7649 13.5787 20.1673 13.3583 20.4514 12.9858L20.3735 12.9263C20.1051 13.2782 19.7289 13.4817 19.3378 13.4945L19.341 13.5924V13.5927ZM20.4514 12.9858C20.4714 12.9596 20.4905 12.9327 20.5091 12.9052L20.4281 12.8504C20.4106 12.8762 20.3924 12.9015 20.3735 12.9263L20.4514 12.9858V12.9858ZM20.4281 12.9055C20.7139 13.3238 21.1503 13.5936 21.6359 13.5936V13.4957C21.1885 13.4957 20.78 13.2471 20.5089 12.8501L20.4281 12.9055ZM21.6359 13.5936H24.2441V13.4957H21.6359V13.5936ZM24.2441 13.5936C24.7513 13.5936 25.2102 13.311 25.5053 12.8259L25.4213 12.7749C25.1414 13.2358 24.7118 13.4959 24.2443 13.4959V13.5939L24.2441 13.5936ZM25.5053 12.8259C25.7999 12.3405 25.881 11.7349 25.7291 11.1638L25.6346 11.189C25.7798 11.7354 25.7017 12.3136 25.4216 12.7749L25.5051 12.8259H25.5053ZM11.5167 26.8825C11.5167 26.8835 11.5167 26.8825 11.5182 26.8813C11.5208 26.8794 11.524 26.8783 11.5273 26.8784V26.9763C11.5689 26.9763 11.599 26.9465 11.6098 26.9131L11.5167 26.8825V26.8825ZM11.5273 26.8784H10.5296V26.9763H11.5273V26.8784ZM10.5754 26.9445L11.0945 25.5474L11.0025 25.5131L10.4838 26.9105L10.5754 26.9445ZM11.0485 25.5792H12.0183V25.4812H11.0485V25.5792ZM11.9718 25.5148L11.517 26.8823L11.61 26.9134L12.0648 25.5456L11.9718 25.5148ZM15.091 11.5757V11.5727V11.5786H15.189L15.1887 11.5813V11.5816V11.5798L15.189 11.5757H15.091ZM15.091 11.5735C15.0909 11.5751 15.0908 11.5767 15.0908 11.5784V11.5789V11.5776L15.1883 11.5894V11.5857L15.1885 11.5838V11.583V11.5835L15.091 11.5737V11.5735ZM15.0905 11.5801C15.0851 11.6548 15.0803 11.729 15.0758 11.8027L15.1736 11.8086C15.178 11.7354 15.1829 11.6616 15.1883 11.5869L15.0905 11.5801ZM15.0758 11.8027C15.046 12.2959 14.7011 12.6682 14.3066 12.6682V12.7661C14.7673 12.7661 15.1417 12.3376 15.1736 11.8086L15.0756 11.8027H15.0758ZM14.3066 12.6682H11.6985V12.7661H14.3066V12.6682ZM11.6985 12.6682C11.4531 12.6682 11.2263 12.532 11.0774 12.2871L10.9936 12.3378C11.1575 12.6072 11.4136 12.7664 11.6982 12.7664V12.6684L11.6985 12.6682ZM11.0774 12.2871C10.9283 12.0415 10.8864 11.7331 10.964 11.441L10.8692 11.416C10.7852 11.7324 10.83 12.0684 10.9936 12.3378L11.0774 12.2871ZM10.964 11.441C11.3531 9.9787 12.236 8.63739 13.4502 7.66539L13.389 7.58898C12.1589 8.57347 11.264 9.93266 10.8692 11.416L10.964 11.441V11.441ZM13.4502 7.66539C14.4521 6.86311 15.6119 6.35298 16.8518 6.16196L16.8371 6.06523C15.5798 6.2587 14.4041 6.77617 13.389 7.58898L13.4502 7.66539ZM16.8065 6.08262C15.6433 7.50964 15.224 9.73551 15.0913 11.5722L15.189 11.5794C15.3215 9.74531 15.7395 7.54637 16.8825 6.14458L16.8065 6.08262V6.08262ZM5.84368 19.6492L3.20784 16.481L3.13266 16.5437L5.76849 19.7119L5.84368 19.6492V19.6492ZM3.20784 16.481C2.90711 16.1198 2.90711 15.5281 3.20784 15.1666L3.13266 15.1039C2.80156 15.5016 2.80156 16.146 3.13266 16.5437L3.20784 16.481ZM3.20784 15.1666C3.35258 14.9925 3.54286 14.8992 3.74294 14.8992V14.8012C3.51029 14.8012 3.2938 14.9102 3.13266 15.1039L3.20784 15.1666V15.1666ZM3.74294 14.8992C3.94327 14.8992 4.13331 14.9925 4.27829 15.1666L4.35347 15.1039C4.19233 14.9102 3.9756 14.8012 3.74294 14.8012V14.8992ZM4.27829 15.1666L6.91045 18.3307L6.98564 18.268L4.35347 15.1039L4.27829 15.1666V15.1666ZM6.94817 18.2504H6.86858V18.3483H6.94817V18.2504ZM6.86858 18.2504C6.24556 18.2504 5.75356 18.856 5.75356 19.5807H5.85152C5.85152 18.8925 6.31584 18.3483 6.86833 18.3483V18.2504H6.86858ZM5.75356 19.5807C5.75356 19.6157 5.75503 19.6502 5.75723 19.6838L5.85494 19.6774C5.85275 19.6452 5.85161 19.6129 5.85152 19.5807H5.75356V19.5807ZM11.022 21.8776C11.0021 21.8773 10.9824 21.8725 10.9646 21.8634C10.9467 21.8544 10.9312 21.8414 10.9192 21.8254L10.844 21.8881C10.8905 21.9437 10.9518 21.9755 11.022 21.9755V21.8776V21.8776ZM10.9192 21.8254L10.0914 20.8304L10.0163 20.8931L10.844 21.8881L10.9194 21.8254H10.9192ZM10.0537 20.9107H14.3223V20.8127H10.0537V20.9107ZM14.2848 20.8931L15.1709 21.9579L15.246 21.8952L14.36 20.8304L14.2848 20.8931ZM15.2088 21.8776H11.022V21.9755H15.2086V21.8776H15.2088ZM18.4682 24.0464C18.405 24.1223 18.3237 24.1615 18.2389 24.1615V24.2594C18.356 24.2594 18.464 24.2043 18.5434 24.1091L18.4679 24.0464H18.4682ZM18.2389 24.1615C18.1545 24.1615 18.0729 24.1223 18.01 24.0464L17.9345 24.1091C18.0141 24.2046 18.1219 24.2594 18.2389 24.2594V24.1615V24.1615ZM18.01 24.0464L16.3214 22.0167L16.246 22.0794L17.9345 24.1091L18.01 24.0464V24.0464ZM16.3214 22.0167V22.0164L16.246 22.0791L16.3214 22.0167ZM16.3214 22.0164L14.8128 20.2034L14.7376 20.2661L16.246 22.0791L16.3211 22.0164H16.3214ZM14.8128 20.2034C14.6967 20.0638 14.5402 19.9847 14.3715 19.9847V20.0827C14.5079 20.0827 14.638 20.1464 14.7376 20.2661L14.8128 20.2034ZM14.3715 19.9847H6.86858V20.0827H14.3718V19.9847H14.3715ZM6.86833 19.9847C6.69543 19.9847 6.54017 19.8121 6.54017 19.5804H6.44221C6.44221 19.8486 6.62539 20.0827 6.86833 20.0827V19.9847V19.9847ZM6.54017 19.5804C6.54017 19.3485 6.69543 19.1758 6.86833 19.1758V19.0779C6.62539 19.0779 6.44221 19.312 6.44221 19.5804H6.54017ZM6.86833 19.1758H14.3715V19.0779H6.86858V19.1758H6.86833ZM14.3715 19.1758C14.7095 19.1758 15.0288 19.3338 15.2708 19.6247L15.3462 19.5623C15.0876 19.2515 14.7418 19.0779 14.3715 19.0779V19.1758V19.1758ZM15.2708 19.6247L16.6662 21.302L16.7414 21.2394L15.3462 19.5623L15.2708 19.6247ZM16.7037 21.3197H16.7039V21.2217V21.3197H16.7037ZM16.6662 21.302L18.4682 23.4679L18.5434 23.4052L16.7416 21.2394L16.6662 21.302V21.302ZM18.4682 23.4679C18.5314 23.5438 18.5671 23.6462 18.5671 23.7569H18.6651C18.6651 23.6254 18.6225 23.5002 18.5434 23.4052L18.4679 23.4677L18.4682 23.4679ZM18.5671 23.7569C18.5671 23.8678 18.5314 23.9705 18.4682 24.0464L18.5434 24.1091C18.6225 24.0138 18.6651 23.8887 18.6651 23.7571H18.5671V23.7569ZM18.6504 21.8776H18.2238V21.9755H18.6504V21.8776ZM18.2615 21.8952L17.3296 20.7755L17.2542 20.838L18.186 21.9581L18.2615 21.8954V21.8952ZM17.3409 20.8066V13.5449H17.2429V20.8064H17.3409V20.8066ZM17.2919 13.5939H18.6504V13.4959H17.2919V13.5939ZM18.6014 13.5449V21.9265H18.6994V13.5451H18.6014V13.5449ZM21.7571 26.8784C21.7613 26.8784 21.7645 26.8801 21.766 26.8813C21.7677 26.8825 21.7677 26.8833 21.7672 26.8823L21.6741 26.9129C21.6851 26.9467 21.7153 26.9766 21.7571 26.9766V26.8786V26.8784ZM21.7672 26.8823L21.3124 25.5148L21.2194 25.5456L21.6741 26.9131L21.7672 26.8823ZM21.2661 25.5794H22.2357V25.4815H21.2659V25.5794H21.2661ZM22.1899 25.5474L22.7091 26.9445L22.8007 26.9102L22.2815 25.5133L22.1899 25.5474ZM22.7549 26.8784H21.7571V26.9763H22.7549V26.8784ZM23.4908 22.8038C23.9022 22.8038 24.2517 23.2098 24.2517 23.7287H24.3496C24.3496 23.1733 23.9725 22.7058 23.4908 22.7058V22.8038ZM24.2517 23.7287C24.2517 24.2472 23.9022 24.6535 23.4908 24.6535V24.7514C23.9725 24.7514 24.3496 24.2837 24.3496 23.7287H24.2517ZM23.4908 24.6535H22.4529V24.7514H23.4908V24.6535ZM22.4529 24.6535H22.4519V24.7514H22.4529V24.6535ZM22.4519 24.6535H18.9572V24.7514H22.4519V24.6535ZM18.9932 24.7355C19.0028 24.725 19.018 24.7096 19.03 24.6951L18.9553 24.6319C18.9445 24.6447 18.9349 24.654 18.921 24.6694L18.9932 24.7355ZM19.0305 24.6949C19.2398 24.4431 19.354 24.11 19.354 23.7576H19.256C19.256 24.0892 19.1485 24.3998 18.955 24.6322L19.0305 24.6949ZM19.354 23.7576C19.354 23.405 19.2398 23.0719 19.0305 22.8199L18.955 22.8826C19.1485 23.1153 19.256 23.4256 19.256 23.7576H19.354ZM19.0305 22.8199L18.9499 22.7234L18.8747 22.7861L18.955 22.8826L19.0305 22.8199V22.8199ZM18.9124 22.8038H23.4908V22.7058H18.9124V22.8038V22.8038ZM19.8658 12.3669C19.7162 12.5629 19.5146 12.6682 19.2986 12.6682V12.7661C19.5489 12.7661 19.7779 12.6437 19.9437 12.4265L19.8658 12.3669V12.3669ZM19.2986 12.6682H16.6439V12.7661H19.2986V12.6682ZM16.6439 12.6682C16.4277 12.6682 16.2261 12.5629 16.0765 12.3669L15.9986 12.4262C16.1644 12.6437 16.3934 12.7661 16.6439 12.7661V12.6682ZM16.0765 12.3669C15.9283 12.1725 15.8561 11.9202 15.8747 11.6553L15.777 11.6484C15.7567 11.9349 15.8348 12.2114 15.9986 12.4262L16.0765 12.3669V12.3669ZM15.8747 11.6553C16.1201 8.224 17.1357 6.75535 17.9999 6.12841L17.9424 6.04907C17.0458 6.69951 16.0234 8.20147 15.777 11.6484L15.8749 11.6553H15.8747ZM17.9424 6.12841C18.8069 6.75535 19.8225 8.22425 20.0676 11.6565L20.1653 11.6494C19.9192 8.20172 18.8967 6.69951 17.9999 6.04907L17.9424 6.12841V6.12841ZM20.0676 11.6562C20.0862 11.9207 20.0137 12.173 19.8658 12.3672L19.9437 12.4265C20.1075 12.2119 20.1854 11.9357 20.1653 11.6494L20.0674 11.6565L20.0676 11.6562Z" stroke="#E5550E" stroke-width="0.2" mask="url(#path-4-outside-1_214_670)"/>
</g>
</svg>
