<svg width="33" height="32" viewBox="0 0 33 32" fill="none" xmlns="http://www.w3.org/2000/svg">
<path d="M27.4462 27.0856C28.2667 27.3948 29.0333 27.6803 30.4712 27.7328C30.8422 27.7443 31.136 28.0474 31.118 28.4148C31.1058 28.7758 30.7883 29.0556 30.423 29.044C28.7655 28.9857 27.8559 28.6448 26.973 28.314L26.9608 28.3095C26.0684 27.9715 25.2177 27.6511 23.4868 27.6511C21.7556 27.6511 20.9052 27.9657 20.0125 28.3037C19.0424 28.6708 18.036 29.0498 16.0534 29.0498C14.0705 29.0498 13.0644 28.6708 12.094 28.3037L12.0608 28.2915C11.1745 27.9637 10.3296 27.6511 8.61964 27.6511C6.88875 27.6511 6.03804 27.9657 5.14563 28.3037C4.26508 28.636 3.34858 28.9797 1.69535 29.0379C1.32393 29.0498 1.01256 28.7701 1.00033 28.4087C0.988828 28.0474 1.27611 27.7443 1.64753 27.7328C3.07927 27.6803 3.84584 27.3948 4.66059 27.0859C5.63103 26.7188 6.63706 26.3398 8.61964 26.3398C10.6026 26.3398 11.6086 26.7188 12.579 27.0859L12.6122 27.0982C13.4985 27.426 14.3435 27.7385 16.0534 27.7385C17.7843 27.7385 18.635 27.4239 19.5274 27.0859C20.4979 26.7188 21.5042 26.3398 23.4868 26.3398C25.4694 26.3398 26.4758 26.7188 27.4462 27.0856Z" fill="#E5550E"/>
<path d="M31.255 5H1.78455C1.4552 5 1.18553 5.26247 1.18553 5.58248V7.92533C1.18553 8.24605 1.4552 8.50781 1.78455 8.50781H1.79102V19.4113C1.34733 19.4695 1 19.8366 1 20.2854V22.0917C1 22.5815 1.40737 22.9777 1.91039 22.9777H30.5302C31.0335 22.9777 31.4405 22.5815 31.4405 22.0917V20.2854C31.4405 19.796 31.0335 19.3998 30.5302 19.3998H28.38V8.50205H31.2493C31.5786 8.50205 31.8479 8.23958 31.8479 7.91922V5.58212C31.854 5.26247 31.5844 5 31.255 5ZM30.3026 21.8703H2.13799V20.5126H30.3026V21.8706V21.8703ZM11.3864 8.50853H27.1877V19.3185H20.851V11.2645C20.851 10.9441 20.5813 10.682 20.2519 10.682H5.15716C4.82745 10.682 4.55814 10.9441 4.55814 11.2645V19.3182H2.98833V8.50817H11.3861L11.3864 8.50853ZM19.6526 11.8477V19.3185H15.819V11.8473H19.6526V11.8477ZM14.621 11.8477V19.3185H10.7874V11.8473H14.621V11.8477ZM9.58938 11.8477V19.3185H5.75582V11.8473H9.58974L9.58938 11.8477ZM30.656 7.34249H2.38356V6.16531H30.656V7.34249V7.34249Z" fill="#E5550E"/>
<path d="M22.6175 17.9137H25.0136C25.3429 17.9137 25.6126 17.6512 25.6126 17.3309V11.2645C25.6126 10.9441 25.3429 10.682 25.0136 10.682H22.6175C22.2882 10.682 22.0185 10.9441 22.0185 11.2645V17.3309C22.0185 17.6573 22.2882 17.9137 22.6175 17.9137ZM23.2165 11.8473H24.4146V16.748H23.2165V11.8473Z" fill="#E5550E"/>
<path d="M30.4712 25.4939C29.0333 25.4417 28.2667 25.1559 27.4462 24.8474C26.4758 24.4799 25.4694 24.1013 23.4868 24.1013C21.5042 24.1013 20.4979 24.4799 19.5274 24.8474C18.635 25.1854 17.7843 25.5 16.0534 25.5C14.3222 25.5 13.4776 25.1793 12.579 24.847C11.6086 24.4803 10.6026 24.1013 8.61964 24.1013C6.63706 24.1013 5.63103 24.4799 4.66059 24.8474C3.84584 25.1559 3.07927 25.4417 1.64753 25.4939C1.27611 25.5057 0.988828 25.8088 1.00033 26.1698C1.01256 26.5312 1.32393 26.8109 1.69535 26.7994C3.34858 26.7412 4.26508 26.3974 5.14563 26.0652C6.03804 25.7272 6.88875 25.4126 8.61964 25.4126C10.3509 25.4126 11.1955 25.733 12.094 26.0652C13.0644 26.4319 14.0705 26.8109 16.0534 26.8109C18.036 26.8109 19.0424 26.4323 20.0125 26.0652C20.9052 25.7272 21.7556 25.4126 23.4868 25.4126C25.2177 25.4126 26.0684 25.733 26.9608 26.071C27.8475 26.4032 28.7579 26.7469 30.423 26.8052C30.7883 26.817 31.1058 26.5373 31.118 26.1759C31.136 25.8088 30.8422 25.5057 30.4712 25.4939V25.4939Z" fill="#E5550E"/>
</svg>
