<svg width="31" height="32" viewBox="0 0 31 32" fill="none" xmlns="http://www.w3.org/2000/svg">
<path d="M4.80636 26.366C5.29428 27.0165 6.217 27.7766 7.21275 27.7766H23.3936C24.683 27.7766 25.9693 26.872 26.6714 25.4726L26.6811 25.4507L27.9258 22.5464C27.954 22.4809 27.9649 22.4092 27.9573 22.3383C27.9498 22.2673 27.9241 22.1995 27.8827 22.1414C27.8414 22.0833 27.7857 22.0368 27.7212 22.0065C27.6566 21.9761 27.5853 21.9629 27.5142 21.9681L22.1489 22.3391V21.1383C22.1489 21.0283 22.1052 20.9228 22.0274 20.8449C21.9496 20.7671 21.8441 20.7234 21.734 20.7234H16.7553V19.8936H24.6383C24.7124 19.8937 24.7851 19.8739 24.849 19.8364C24.9128 19.7988 24.9654 19.7448 25.0014 19.68C25.0373 19.6152 25.0552 19.542 25.0532 19.4679C25.0512 19.3939 25.0294 19.3217 24.9901 19.2589L16.7553 6.08343V5.37237C16.7553 5.04226 16.6242 4.72567 16.3907 4.49224C16.1573 4.25882 15.8407 4.12769 15.5106 4.12769C15.1805 4.12769 14.8639 4.25882 14.6305 4.49224C14.3971 4.72567 14.2659 5.04226 14.2659 5.37237V6.08343L6.03113 19.2589C5.99198 19.3217 5.97034 19.3939 5.96845 19.4679C5.96655 19.5419 5.98448 19.615 6.02036 19.6798C6.05624 19.7445 6.10878 19.7985 6.17254 19.8361C6.23629 19.8737 6.30894 19.8936 6.38296 19.8936H14.2659V20.7234H10.9468C10.8598 20.7235 10.775 20.751 10.7044 20.802C10.6338 20.8529 10.5811 20.9248 10.5536 21.0073L9.82645 23.189L3.45036 23.6277C3.37477 23.6328 3.30202 23.6586 3.24002 23.7022C3.17802 23.7457 3.12914 23.8054 3.09867 23.8748C3.06821 23.9442 3.05732 24.0206 3.0672 24.0957C3.07708 24.1708 3.10734 24.2418 3.1547 24.301L4.80636 26.366ZM16.7553 7.64879L23.8915 19.0639H16.7553V7.64879V7.64879ZM25.9215 25.1126C25.4939 25.961 24.5778 26.9468 23.3936 26.9468H7.21275C6.61862 26.9468 5.96807 26.4663 5.55828 25.9748L26.161 24.5537L25.9215 25.1126V25.1126ZM15.0957 5.37237C15.0957 5.26233 15.1394 5.1568 15.2172 5.07899C15.2951 5.00118 15.4006 4.95747 15.5106 4.95747C15.6207 4.95747 15.7262 5.00118 15.804 5.07899C15.8818 5.1568 15.9255 5.26233 15.9255 5.37237V20.7234H15.0957V5.37237ZM7.13181 19.0639L14.2659 7.64879V10.766H13.4362V11.5958H14.2659V12.8405H13.4362V13.6702H14.2659V14.9149H13.4362V15.7447H14.2659V16.9894H13.4362V17.8192H14.2659V19.0639H7.13181ZM11.246 21.5532H21.3191V22.3963L10.7211 23.127L11.246 21.5532ZM26.894 22.8436L26.5282 23.6969L4.9256 25.1864L4.29751 24.4018L26.894 22.8436V22.8436Z" fill="#333136"/>
</svg>
