<svg width="46" height="32" viewBox="0 0 46 32" fill="none" xmlns="http://www.w3.org/2000/svg">
<g clip-path="url(#clip0_214_667)">
<path d="M43.3993 18.463H43.3366V17.7815C43.3361 17.3013 43.1328 16.8409 42.7714 16.5014C42.41 16.1618 41.9199 15.9709 41.4088 15.9704H41.3059C41.0181 13.9163 39.1834 12.3148 36.9394 12.2356L30.4421 8.57296C30.3555 8.52417 30.2571 8.49669 30.1562 8.49306C30.0552 8.48944 29.9549 8.50978 29.8646 8.55222L27.5985 9.61667L25.2513 7.41148C25.1386 7.30577 24.9859 7.24639 24.8267 7.24639C24.6675 7.24639 24.5148 7.30577 24.4021 7.41148L24.0966 7.69852C24.0657 7.23872 23.8496 6.80722 23.4923 6.49172C23.1349 6.17623 22.6631 6.0004 22.1727 6C21.6618 6.00059 21.1719 6.19156 20.8107 6.53103C20.4494 6.87049 20.2462 7.33072 20.2457 7.81074C20.2464 8.2907 20.4496 8.75083 20.8108 9.09022C21.1721 9.4296 21.6618 9.62052 22.1727 9.62111C22.4298 9.62111 22.675 9.57333 22.8989 9.48741V11.8241L22.0316 12.2315H10.8335V9.05704C10.8335 8.90739 10.7702 8.76386 10.6576 8.65805C10.5449 8.55223 10.3921 8.49278 10.2329 8.49278C10.0736 8.49278 9.9208 8.55223 9.80816 8.65805C9.69553 8.76386 9.63225 8.90739 9.63225 9.05704V9.73852H7.57949C7.24794 9.73852 6.97907 9.99148 6.97907 10.303V15.0841L3.98213 18.463H3.60012C3.44083 18.463 3.28806 18.5224 3.17543 18.6282C3.06279 18.7341 2.99951 18.8776 2.99951 19.0272C2.99951 19.1769 3.06279 19.3204 3.17543 19.4262C3.28806 19.532 3.44083 19.5915 3.60012 19.5915H3.6632V20.2733C3.66372 20.7534 3.8669 21.2136 4.22816 21.553C4.58941 21.8925 5.07925 22.0835 5.5902 22.0841H6.48392L7.00628 23.5559L7.00746 23.5604L7.67371 25.4374C7.75531 25.6678 7.98515 25.823 8.24337 25.823H28.8064C28.9657 25.823 29.1184 25.7635 29.231 25.6578C29.3436 25.552 29.4069 25.4085 29.4069 25.2589C29.4069 25.1093 29.3436 24.9658 29.231 24.86C29.1184 24.7542 28.9657 24.6948 28.8064 24.6948H8.67584L8.41289 23.9537H14.2128C14.3721 23.9537 14.5249 23.8943 14.6375 23.7884C14.7501 23.6826 14.8134 23.5391 14.8134 23.3894C14.8134 23.2398 14.7501 23.0963 14.6375 22.9905C14.5249 22.8846 14.3721 22.8252 14.2128 22.8252H8.01314L7.75019 22.0841H22.1727C22.6838 22.0837 23.1738 21.8928 23.5353 21.5533C23.8967 21.2138 24.1 20.7535 24.1005 20.2733V19.5919H40.8088V20.2733C40.8088 22.7115 38.6973 24.6948 36.1025 24.6948H27.6482C27.4889 24.6948 27.3361 24.7543 27.2235 24.8601C27.1109 24.9659 27.0476 25.1094 27.0476 25.2591C27.0476 25.4087 27.1109 25.5522 27.2235 25.6581C27.3361 25.7639 27.4889 25.8233 27.6482 25.8233H36.1025C39.36 25.8233 42.0096 23.3337 42.0096 20.2733V19.5919H43.3993C43.5586 19.5919 43.7114 19.5324 43.824 19.4266C43.9366 19.3208 43.9999 19.1772 43.9999 19.0276C43.9999 18.8779 43.9366 18.7344 43.824 18.6286C43.7114 18.5228 43.5586 18.4633 43.3993 18.4633V18.463ZM22.1727 8.49259C21.9803 8.4923 21.7958 8.42032 21.6597 8.29243C21.5237 8.16454 21.4472 7.99118 21.4469 7.81037C21.4469 7.43444 21.7726 7.12852 22.1727 7.12852C22.5733 7.12852 22.8989 7.43444 22.8989 7.81037C22.8987 7.99125 22.8221 8.16466 22.686 8.29256C22.5498 8.42046 22.3653 8.4924 22.1727 8.49259V8.49259ZM24.1005 9.29037L24.8263 8.60852L26.4655 10.1485L24.1001 11.2596V9.29037H24.1005ZM10.8335 13.36H13.612V13.4189C13.612 13.5685 13.6753 13.7121 13.7879 13.8179C13.9006 13.9237 14.0533 13.9831 14.2126 13.9831C14.3719 13.9831 14.5247 13.9237 14.6373 13.8179C14.7499 13.7121 14.8132 13.5685 14.8132 13.4189V13.3596H17.5922V13.4189C17.5922 13.5685 17.6554 13.712 17.768 13.8177C17.8806 13.9235 18.0333 13.983 18.1926 13.983C18.3518 13.983 18.5045 13.9235 18.6171 13.8177C18.7297 13.712 18.793 13.5685 18.793 13.4189V13.3596H21.5723V14.7241H10.8335V13.36ZM8.18029 10.8674H9.63225V14.7241H8.18029V10.8667V10.8674ZM22.8989 20.2733C22.8987 20.4543 22.8221 20.6277 22.6858 20.7557C22.5496 20.8836 22.3649 20.9555 22.1723 20.9556H5.5902C5.39767 20.9554 5.21309 20.8834 5.07695 20.7555C4.94081 20.6276 4.86423 20.4542 4.86403 20.2733V19.5919H22.8993V20.2733H22.8989ZM22.8989 17.7811V18.4633H5.54486L7.86097 15.8526H22.1727C22.5043 15.8526 22.7731 15.6 22.7731 15.2885V13.1444L27.7574 10.8033L27.759 10.8026L30.107 9.7L34.5977 12.2311H28.8061C28.6468 12.2311 28.494 12.2906 28.3814 12.3964C28.2687 12.5022 28.2054 12.6457 28.2054 12.7954C28.2054 12.945 28.2687 13.0885 28.3814 13.1944C28.494 13.3002 28.6468 13.3596 28.8061 13.3596H36.7656C38.4241 13.3596 39.8067 14.4881 40.0909 15.9707H24.8263C24.3153 15.9712 23.8255 16.1621 23.4641 16.5015C23.1028 16.8409 22.8995 17.3011 22.8989 17.7811V17.7811ZM42.135 18.4633H24.1001V17.7811C24.1001 17.4052 24.4258 17.0989 24.8263 17.0989H41.4092C41.8094 17.0989 42.1354 17.4052 42.1354 17.7811V18.4633H42.135Z" fill="#E5550E"/>
</g>
<defs>
<clipPath id="clip0_214_667">
<rect width="41" height="20" fill="white" transform="translate(3 6)"/>
</clipPath>
</defs>
</svg>
