<svg width="42" height="32" viewBox="0 0 42 32" fill="none" xmlns="http://www.w3.org/2000/svg">
<g clip-path="url(#clip0_214_649)">
<path d="M3.60278 21.6755H30.1304C30.2904 21.6755 30.4435 21.6118 30.5569 21.4988L38.9972 13.0581C39.0816 12.9738 39.139 12.8664 39.1623 12.7494C39.1857 12.6325 39.1737 12.5113 39.1281 12.4011C39.0825 12.2909 39.0052 12.1967 38.9061 12.1305C38.807 12.0642 38.6904 12.0289 38.5711 12.0289H23.3663L21.8591 9.61739H22.8957C23.2285 9.61739 23.4984 9.34748 23.4984 9.01461V6.60278C23.4984 6.26991 23.2285 6 22.8957 6H8.42609C8.09322 6 7.8233 6.26991 7.8233 6.60278V12.0289H6.01461C5.92458 12.0286 5.83564 12.0486 5.75434 12.0873C5.67305 12.126 5.60147 12.1824 5.54487 12.2524C5.48826 12.3225 5.44809 12.4043 5.42729 12.4919C5.40649 12.5795 5.40561 12.6706 5.4247 12.7586L6.04348 15.6466H3.60278C3.26991 15.6466 3 15.9165 3 16.2494V21.0727C3 21.4056 3.26991 21.6755 3.60278 21.6755ZM22.1235 12.0292H20.9548L19.4477 9.61739H20.6163L22.1235 12.0292ZM19.712 12.0292H11.4407V9.61739H18.2045L19.712 12.0292ZM9.02887 7.20591H22.2929V8.41148H10.8376C10.5047 8.41148 10.2348 8.68139 10.2348 9.01461V12.0292H9.02887V7.20591V7.20591ZM37.1158 13.2348L34.704 15.6466H9.632V16.8522H33.4981L32.2925 18.0581H9.63165V19.264H31.087L29.8807 20.4696H8.3113L6.76 13.2348H37.1155H37.1158ZM4.20557 16.8522H6.30191L7.07722 20.4696H4.20591V16.8522H4.20557Z" fill="#333136"/>
</g>
<defs>
<clipPath id="clip0_214_649">
<rect width="36.1739" height="16" fill="white" transform="translate(3 6)"/>
</clipPath>
</defs>
</svg>
