<svg width="39" height="32" viewBox="0 0 39 32" fill="none" xmlns="http://www.w3.org/2000/svg">
<g clip-path="url(#clip0_214_699)">
<mask id="path-1-outside-1_214_699" maskUnits="userSpaceOnUse" x="9.27905" y="3.27893" width="21" height="25" fill="black">
<rect fill="white" x="9.27905" y="3.27893" width="21" height="25"/>
<path d="M24.1385 17.7297L22.9848 17.5075C22.8159 17.4748 22.6636 17.3843 22.5541 17.2516C22.4445 17.119 22.3845 16.9523 22.3843 16.7803V16.3471C22.642 16.1887 22.8857 16.0084 23.1126 15.8083C23.9401 15.0807 24.4513 14.049 24.5546 12.8998C25.1591 12.8791 25.643 12.3754 25.6407 11.7612L25.6371 10.8897C25.6359 10.6214 25.5401 10.3621 25.3664 10.1577V7.87793C25.3664 7.78571 25.3298 7.69727 25.2646 7.63206C25.1993 7.56685 25.1109 7.53021 25.0187 7.53021C24.9265 7.53021 24.838 7.56685 24.7728 7.63206C24.7076 7.69727 24.671 7.78571 24.671 7.87793V9.83393C21.5032 8.94314 18.4089 8.94314 15.2412 9.83393V8.03114C15.2406 7.4645 15.4295 6.91394 15.7779 6.4671C16.1264 6.02025 16.6143 5.7028 17.164 5.56528L19.0946 5.08054C19.6603 4.93899 20.2521 4.93899 20.8178 5.08054L22.7482 5.56528C23.2136 5.68348 23.6363 5.93054 23.9677 6.27811C24.2991 6.62568 24.5257 7.05966 24.6216 7.53021C24.7907 8.60463 24.8814 8.08417 25.0697 8.04649C25.2581 8.00882 25.4621 8.18603 25.3033 7.39347C25.0591 6.17617 24.1229 5.19384 22.9176 4.89105L20.9872 4.40603C20.3102 4.23657 19.6019 4.23657 18.9249 4.40603L16.9949 4.89105C16.2949 5.06616 15.6736 5.47036 15.2298 6.03932C14.7861 6.60828 14.5454 7.30932 14.546 8.03086V10.1577C14.3724 10.3621 14.2765 10.6214 14.2753 10.8897L14.2717 11.7615C14.2689 12.3754 14.7534 12.8791 15.3578 12.9001C15.4611 14.049 15.9724 15.0807 16.7998 15.808C17.0267 16.0082 17.2704 16.1886 17.5282 16.3471V16.7805C17.5282 17.1043 17.3292 17.4057 16.9307 17.5067L15.7739 17.7299C12.5819 18.3436 10.2791 21.1497 10.2791 24.3827V25.7976C10.2791 26.8583 11.1417 27.7209 12.2021 27.7209H27.71C28.7705 27.7209 29.6334 26.8583 29.6334 25.7978V24.383C29.6334 21.1374 27.3182 18.3417 24.1385 17.7297V17.7297ZM24.2563 18.4661C24.6316 18.5546 24.9922 18.6777 25.3351 18.8309V22.7423C25.0991 22.5821 24.8203 22.4967 24.5351 22.497H24.2563V18.4661ZM24.3405 10.4632C23.9817 10.8168 23.5633 11.3722 22.715 11.2254C21.8039 11.0666 20.8809 10.9863 19.9561 10.9854C19.041 10.9854 18.1259 11.0655 17.1977 11.2254C16.3555 11.3708 15.9336 10.8199 15.5705 10.4635C18.515 9.66119 21.3958 9.66091 24.3405 10.4632V10.4632ZM17.2591 15.2856C16.5592 14.6705 16.1289 13.7906 16.048 12.808C16.0351 12.6437 15.9607 12.4904 15.8396 12.3786C15.7185 12.2668 15.5597 12.2049 15.395 12.2052C15.1578 12.2041 14.966 12.0065 14.9671 11.7643L14.9708 10.8924C14.9708 10.8793 14.9719 10.8659 14.973 10.8531C15.506 11.3685 16.1035 12.1201 17.3158 11.9108C19.0926 11.6044 20.8201 11.6044 22.5966 11.9108C23.8536 12.1276 24.4932 11.2829 24.9394 10.8511C24.9405 10.8651 24.9417 10.8785 24.9417 10.8924L24.9453 11.7643C24.9464 12.0065 24.7544 12.2041 24.5175 12.2052C24.3527 12.2049 24.1939 12.2668 24.0728 12.3786C23.9517 12.4904 23.8773 12.6437 23.8644 12.808C23.7835 13.7906 23.3535 14.6705 22.6533 15.2861C21.052 16.6932 18.8764 16.7077 17.2589 15.2858L17.2591 15.2856ZM22.3578 17.9937L21.7703 18.4658C20.7718 19.2679 19.3262 19.2629 18.3336 18.4533L17.6711 17.9133C18.2895 17.4333 18.2183 16.7225 18.2236 16.6988C19.3561 17.1601 20.5427 17.1654 21.6888 16.6988C21.693 16.7147 21.6202 17.5262 22.3578 17.9937V17.9937ZM16.4409 18.3096L16.9393 18.2136L17.8943 18.9922C18.5026 19.4879 19.2626 19.7598 20.0474 19.7627C20.8321 19.7655 21.594 19.4991 22.2059 19.0078L23.152 18.2479L23.5611 18.3266V22.4973H16.4409V18.3096ZM13.6558 24.6467C13.4435 24.9033 13.3273 25.2259 13.3271 25.559V27.0255H12.2024C11.8768 27.0252 11.5647 26.8957 11.3345 26.6655C11.1043 26.4353 10.9748 26.1231 10.9745 25.7976V24.633H13.6672L13.6561 24.6467H13.6558ZM13.9711 23.9378H10.9912C11.1391 21.9202 12.2825 20.1403 13.9711 19.144V20.1492C13.9711 20.2414 14.0078 20.3299 14.073 20.3951C14.1382 20.4603 14.2266 20.4969 14.3189 20.4969C14.4111 20.4969 14.4995 20.4603 14.5647 20.3951C14.63 20.3299 14.6666 20.2414 14.6666 20.1492V18.7918C15.0146 18.643 15.3758 18.5271 15.7455 18.4457V22.4973H15.4625C15.1681 22.4973 14.8943 22.5866 14.6666 22.7401V19.9756C14.6666 19.8834 14.63 19.7949 14.5647 19.7297C14.4995 19.6645 14.4111 19.6279 14.3189 19.6279C14.2266 19.6279 14.1382 19.6645 14.073 19.7297C14.0078 19.7949 13.9711 19.8834 13.9711 19.9756V23.9376V23.9378ZM25.8902 27.0252H14.0222V25.5587C14.0222 25.1833 14.2795 25.0134 14.399 24.839C14.6108 24.5822 14.727 24.2598 14.7277 23.927C14.7279 23.7322 14.8054 23.5455 14.9431 23.4078C15.0808 23.2701 15.2675 23.1927 15.4622 23.1924H24.5351C24.7298 23.1927 24.9165 23.2701 25.0542 23.4078C25.1919 23.5455 25.2693 23.7322 25.2696 23.927C25.2735 23.9529 25.2327 24.3796 25.5439 24.8066C25.6745 25.017 25.8899 25.1769 25.8899 25.521L25.8902 27.0252V27.0252ZM26.0303 23.9373V19.1973C27.6701 20.2033 28.7764 21.9556 28.9215 23.9376H26.0303V23.9373ZM28.9379 25.7976C28.9379 26.4743 28.3871 27.0252 27.71 27.0252H26.5854V25.521C26.5854 25.2165 26.4905 24.9252 26.3113 24.6791L26.2778 24.6327H28.9379V25.7976V25.7976Z"/>
</mask>
<path d="M24.1385 17.7297L22.9848 17.5075C22.8159 17.4748 22.6636 17.3843 22.5541 17.2516C22.4445 17.119 22.3845 16.9523 22.3843 16.7803V16.3471C22.642 16.1887 22.8857 16.0084 23.1126 15.8083C23.9401 15.0807 24.4513 14.049 24.5546 12.8998C25.1591 12.8791 25.643 12.3754 25.6407 11.7612L25.6371 10.8897C25.6359 10.6214 25.5401 10.3621 25.3664 10.1577V7.87793C25.3664 7.78571 25.3298 7.69727 25.2646 7.63206C25.1993 7.56685 25.1109 7.53021 25.0187 7.53021C24.9265 7.53021 24.838 7.56685 24.7728 7.63206C24.7076 7.69727 24.671 7.78571 24.671 7.87793V9.83393C21.5032 8.94314 18.4089 8.94314 15.2412 9.83393V8.03114C15.2406 7.4645 15.4295 6.91394 15.7779 6.4671C16.1264 6.02025 16.6143 5.7028 17.164 5.56528L19.0946 5.08054C19.6603 4.93899 20.2521 4.93899 20.8178 5.08054L22.7482 5.56528C23.2136 5.68348 23.6363 5.93054 23.9677 6.27811C24.2991 6.62568 24.5257 7.05966 24.6216 7.53021C24.7907 8.60463 24.8814 8.08417 25.0697 8.04649C25.2581 8.00882 25.4621 8.18603 25.3033 7.39347C25.0591 6.17617 24.1229 5.19384 22.9176 4.89105L20.9872 4.40603C20.3102 4.23657 19.6019 4.23657 18.9249 4.40603L16.9949 4.89105C16.2949 5.06616 15.6736 5.47036 15.2298 6.03932C14.7861 6.60828 14.5454 7.30932 14.546 8.03086V10.1577C14.3724 10.3621 14.2765 10.6214 14.2753 10.8897L14.2717 11.7615C14.2689 12.3754 14.7534 12.8791 15.3578 12.9001C15.4611 14.049 15.9724 15.0807 16.7998 15.808C17.0267 16.0082 17.2704 16.1886 17.5282 16.3471V16.7805C17.5282 17.1043 17.3292 17.4057 16.9307 17.5067L15.7739 17.7299C12.5819 18.3436 10.2791 21.1497 10.2791 24.3827V25.7976C10.2791 26.8583 11.1417 27.7209 12.2021 27.7209H27.71C28.7705 27.7209 29.6334 26.8583 29.6334 25.7978V24.383C29.6334 21.1374 27.3182 18.3417 24.1385 17.7297V17.7297ZM24.2563 18.4661C24.6316 18.5546 24.9922 18.6777 25.3351 18.8309V22.7423C25.0991 22.5821 24.8203 22.4967 24.5351 22.497H24.2563V18.4661ZM24.3405 10.4632C23.9817 10.8168 23.5633 11.3722 22.715 11.2254C21.8039 11.0666 20.8809 10.9863 19.9561 10.9854C19.041 10.9854 18.1259 11.0655 17.1977 11.2254C16.3555 11.3708 15.9336 10.8199 15.5705 10.4635C18.515 9.66119 21.3958 9.66091 24.3405 10.4632V10.4632ZM17.2591 15.2856C16.5592 14.6705 16.1289 13.7906 16.048 12.808C16.0351 12.6437 15.9607 12.4904 15.8396 12.3786C15.7185 12.2668 15.5597 12.2049 15.395 12.2052C15.1578 12.2041 14.966 12.0065 14.9671 11.7643L14.9708 10.8924C14.9708 10.8793 14.9719 10.8659 14.973 10.8531C15.506 11.3685 16.1035 12.1201 17.3158 11.9108C19.0926 11.6044 20.8201 11.6044 22.5966 11.9108C23.8536 12.1276 24.4932 11.2829 24.9394 10.8511C24.9405 10.8651 24.9417 10.8785 24.9417 10.8924L24.9453 11.7643C24.9464 12.0065 24.7544 12.2041 24.5175 12.2052C24.3527 12.2049 24.1939 12.2668 24.0728 12.3786C23.9517 12.4904 23.8773 12.6437 23.8644 12.808C23.7835 13.7906 23.3535 14.6705 22.6533 15.2861C21.052 16.6932 18.8764 16.7077 17.2589 15.2858L17.2591 15.2856ZM22.3578 17.9937L21.7703 18.4658C20.7718 19.2679 19.3262 19.2629 18.3336 18.4533L17.6711 17.9133C18.2895 17.4333 18.2183 16.7225 18.2236 16.6988C19.3561 17.1601 20.5427 17.1654 21.6888 16.6988C21.693 16.7147 21.6202 17.5262 22.3578 17.9937V17.9937ZM16.4409 18.3096L16.9393 18.2136L17.8943 18.9922C18.5026 19.4879 19.2626 19.7598 20.0474 19.7627C20.8321 19.7655 21.594 19.4991 22.2059 19.0078L23.152 18.2479L23.5611 18.3266V22.4973H16.4409V18.3096ZM13.6558 24.6467C13.4435 24.9033 13.3273 25.2259 13.3271 25.559V27.0255H12.2024C11.8768 27.0252 11.5647 26.8957 11.3345 26.6655C11.1043 26.4353 10.9748 26.1231 10.9745 25.7976V24.633H13.6672L13.6561 24.6467H13.6558ZM13.9711 23.9378H10.9912C11.1391 21.9202 12.2825 20.1403 13.9711 19.144V20.1492C13.9711 20.2414 14.0078 20.3299 14.073 20.3951C14.1382 20.4603 14.2266 20.4969 14.3189 20.4969C14.4111 20.4969 14.4995 20.4603 14.5647 20.3951C14.63 20.3299 14.6666 20.2414 14.6666 20.1492V18.7918C15.0146 18.643 15.3758 18.5271 15.7455 18.4457V22.4973H15.4625C15.1681 22.4973 14.8943 22.5866 14.6666 22.7401V19.9756C14.6666 19.8834 14.63 19.7949 14.5647 19.7297C14.4995 19.6645 14.4111 19.6279 14.3189 19.6279C14.2266 19.6279 14.1382 19.6645 14.073 19.7297C14.0078 19.7949 13.9711 19.8834 13.9711 19.9756V23.9376V23.9378ZM25.8902 27.0252H14.0222V25.5587C14.0222 25.1833 14.2795 25.0134 14.399 24.839C14.6108 24.5822 14.727 24.2598 14.7277 23.927C14.7279 23.7322 14.8054 23.5455 14.9431 23.4078C15.0808 23.2701 15.2675 23.1927 15.4622 23.1924H24.5351C24.7298 23.1927 24.9165 23.2701 25.0542 23.4078C25.1919 23.5455 25.2693 23.7322 25.2696 23.927C25.2735 23.9529 25.2327 24.3796 25.5439 24.8066C25.6745 25.017 25.8899 25.1769 25.8899 25.521L25.8902 27.0252V27.0252ZM26.0303 23.9373V19.1973C27.6701 20.2033 28.7764 21.9556 28.9215 23.9376H26.0303V23.9373ZM28.9379 25.7976C28.9379 26.4743 28.3871 27.0252 27.71 27.0252H26.5854V25.521C26.5854 25.2165 26.4905 24.9252 26.3113 24.6791L26.2778 24.6327H28.9379V25.7976V25.7976Z" fill="#E5550E"/>
<path d="M24.1385 17.7297L22.9848 17.5075C22.8159 17.4748 22.6636 17.3843 22.5541 17.2516C22.4445 17.119 22.3845 16.9523 22.3843 16.7803V16.3471C22.642 16.1887 22.8857 16.0084 23.1126 15.8083C23.9401 15.0807 24.4513 14.049 24.5546 12.8998C25.1591 12.8791 25.643 12.3754 25.6407 11.7612L25.6371 10.8897C25.6359 10.6214 25.5401 10.3621 25.3664 10.1577V7.87793C25.3664 7.78571 25.3298 7.69727 25.2646 7.63206C25.1993 7.56685 25.1109 7.53021 25.0187 7.53021C24.9265 7.53021 24.838 7.56685 24.7728 7.63206C24.7076 7.69727 24.671 7.78571 24.671 7.87793V9.83393C21.5032 8.94314 18.4089 8.94314 15.2412 9.83393V8.03114C15.2406 7.4645 15.4295 6.91394 15.7779 6.4671C16.1264 6.02025 16.6143 5.7028 17.164 5.56528L19.0946 5.08054C19.6603 4.93899 20.2521 4.93899 20.8178 5.08054L22.7482 5.56528C23.2136 5.68348 23.6363 5.93054 23.9677 6.27811C24.2991 6.62568 24.5257 7.05966 24.6216 7.53021C24.7907 8.60463 24.8814 8.08417 25.0697 8.04649C25.2581 8.00882 25.4621 8.18603 25.3033 7.39347C25.0591 6.17617 24.1229 5.19384 22.9176 4.89105L20.9872 4.40603C20.3102 4.23657 19.6019 4.23657 18.9249 4.40603L16.9949 4.89105C16.2949 5.06616 15.6736 5.47036 15.2298 6.03932C14.7861 6.60828 14.5454 7.30932 14.546 8.03086V10.1577C14.3724 10.3621 14.2765 10.6214 14.2753 10.8897L14.2717 11.7615C14.2689 12.3754 14.7534 12.8791 15.3578 12.9001C15.4611 14.049 15.9724 15.0807 16.7998 15.808C17.0267 16.0082 17.2704 16.1886 17.5282 16.3471V16.7805C17.5282 17.1043 17.3292 17.4057 16.9307 17.5067L15.7739 17.7299C12.5819 18.3436 10.2791 21.1497 10.2791 24.3827V25.7976C10.2791 26.8583 11.1417 27.7209 12.2021 27.7209H27.71C28.7705 27.7209 29.6334 26.8583 29.6334 25.7978V24.383C29.6334 21.1374 27.3182 18.3417 24.1385 17.7297V17.7297ZM24.2563 18.4661C24.6316 18.5546 24.9922 18.6777 25.3351 18.8309V22.7423C25.0991 22.5821 24.8203 22.4967 24.5351 22.497H24.2563V18.4661ZM24.3405 10.4632C23.9817 10.8168 23.5633 11.3722 22.715 11.2254C21.8039 11.0666 20.8809 10.9863 19.9561 10.9854C19.041 10.9854 18.1259 11.0655 17.1977 11.2254C16.3555 11.3708 15.9336 10.8199 15.5705 10.4635C18.515 9.66119 21.3958 9.66091 24.3405 10.4632V10.4632ZM17.2591 15.2856C16.5592 14.6705 16.1289 13.7906 16.048 12.808C16.0351 12.6437 15.9607 12.4904 15.8396 12.3786C15.7185 12.2668 15.5597 12.2049 15.395 12.2052C15.1578 12.2041 14.966 12.0065 14.9671 11.7643L14.9708 10.8924C14.9708 10.8793 14.9719 10.8659 14.973 10.8531C15.506 11.3685 16.1035 12.1201 17.3158 11.9108C19.0926 11.6044 20.8201 11.6044 22.5966 11.9108C23.8536 12.1276 24.4932 11.2829 24.9394 10.8511C24.9405 10.8651 24.9417 10.8785 24.9417 10.8924L24.9453 11.7643C24.9464 12.0065 24.7544 12.2041 24.5175 12.2052C24.3527 12.2049 24.1939 12.2668 24.0728 12.3786C23.9517 12.4904 23.8773 12.6437 23.8644 12.808C23.7835 13.7906 23.3535 14.6705 22.6533 15.2861C21.052 16.6932 18.8764 16.7077 17.2589 15.2858L17.2591 15.2856ZM22.3578 17.9937L21.7703 18.4658C20.7718 19.2679 19.3262 19.2629 18.3336 18.4533L17.6711 17.9133C18.2895 17.4333 18.2183 16.7225 18.2236 16.6988C19.3561 17.1601 20.5427 17.1654 21.6888 16.6988C21.693 16.7147 21.6202 17.5262 22.3578 17.9937V17.9937ZM16.4409 18.3096L16.9393 18.2136L17.8943 18.9922C18.5026 19.4879 19.2626 19.7598 20.0474 19.7627C20.8321 19.7655 21.594 19.4991 22.2059 19.0078L23.152 18.2479L23.5611 18.3266V22.4973H16.4409V18.3096ZM13.6558 24.6467C13.4435 24.9033 13.3273 25.2259 13.3271 25.559V27.0255H12.2024C11.8768 27.0252 11.5647 26.8957 11.3345 26.6655C11.1043 26.4353 10.9748 26.1231 10.9745 25.7976V24.633H13.6672L13.6561 24.6467H13.6558ZM13.9711 23.9378H10.9912C11.1391 21.9202 12.2825 20.1403 13.9711 19.144V20.1492C13.9711 20.2414 14.0078 20.3299 14.073 20.3951C14.1382 20.4603 14.2266 20.4969 14.3189 20.4969C14.4111 20.4969 14.4995 20.4603 14.5647 20.3951C14.63 20.3299 14.6666 20.2414 14.6666 20.1492V18.7918C15.0146 18.643 15.3758 18.5271 15.7455 18.4457V22.4973H15.4625C15.1681 22.4973 14.8943 22.5866 14.6666 22.7401V19.9756C14.6666 19.8834 14.63 19.7949 14.5647 19.7297C14.4995 19.6645 14.4111 19.6279 14.3189 19.6279C14.2266 19.6279 14.1382 19.6645 14.073 19.7297C14.0078 19.7949 13.9711 19.8834 13.9711 19.9756V23.9376V23.9378ZM25.8902 27.0252H14.0222V25.5587C14.0222 25.1833 14.2795 25.0134 14.399 24.839C14.6108 24.5822 14.727 24.2598 14.7277 23.927C14.7279 23.7322 14.8054 23.5455 14.9431 23.4078C15.0808 23.2701 15.2675 23.1927 15.4622 23.1924H24.5351C24.7298 23.1927 24.9165 23.2701 25.0542 23.4078C25.1919 23.5455 25.2693 23.7322 25.2696 23.927C25.2735 23.9529 25.2327 24.3796 25.5439 24.8066C25.6745 25.017 25.8899 25.1769 25.8899 25.521L25.8902 27.0252V27.0252ZM26.0303 23.9373V19.1973C27.6701 20.2033 28.7764 21.9556 28.9215 23.9376H26.0303V23.9373ZM28.9379 25.7976C28.9379 26.4743 28.3871 27.0252 27.71 27.0252H26.5854V25.521C26.5854 25.2165 26.4905 24.9252 26.3113 24.6791L26.2778 24.6327H28.9379V25.7976V25.7976Z" stroke="#E5550E" stroke-width="0.2" mask="url(#path-1-outside-1_214_699)"/>
<mask id="path-2-outside-2_214_699" maskUnits="userSpaceOnUse" x="9.22327" y="3.22339" width="21" height="25" fill="black">
<rect fill="white" x="9.22327" y="3.22339" width="21" height="25"/>
<path fill-rule="evenodd" clip-rule="evenodd" d="M25.3664 10.1576C25.5401 10.3621 25.6359 10.6214 25.6371 10.8896L25.6408 11.7615C25.6433 12.3754 25.1591 12.8791 24.5546 12.9001C24.4514 14.049 23.9401 15.0807 23.1124 15.808C22.8855 16.0082 22.6418 16.1886 22.384 16.3471V16.7802C22.384 17.1347 22.6368 17.4405 22.9848 17.5075L24.1385 17.7296C27.3185 18.3416 29.6334 21.1371 29.6334 24.3827V25.7975C29.6334 26.858 28.7708 27.7209 27.7103 27.7209H12.2024C11.6925 27.7204 11.2037 27.5176 10.8431 27.1571C10.4825 26.7966 10.2797 26.3077 10.2791 25.7978V24.3829C10.2791 21.1499 12.582 18.3439 15.774 17.7299L16.9307 17.5067C17.3292 17.4059 17.5282 17.1042 17.5282 16.7805V16.3471C17.2704 16.1887 17.0268 16.0084 16.7998 15.8082C15.9724 15.0807 15.4611 14.049 15.3579 12.9001C14.7534 12.8791 14.2692 12.3754 14.2717 11.7615L14.2754 10.8896C14.2765 10.6214 14.3724 10.3621 14.5461 10.1576V8.03113C14.5461 6.54424 15.5529 5.25327 16.9949 4.89103L18.9249 4.40601C19.6019 4.23655 20.3103 4.23655 20.9873 4.40601L22.9176 4.89103C24.1229 5.19382 25.0592 6.17615 25.3034 7.39373C25.3226 7.49001 25.3366 7.57178 25.3458 7.64155C25.3547 7.70908 25.3595 7.76517 25.3603 7.81178C25.3642 7.83327 25.3664 7.85531 25.3664 7.87792V10.1576V10.1576ZM24.6517 7.7102C24.641 7.65031 24.631 7.59031 24.6216 7.5302C24.5257 7.05969 24.299 6.62577 23.9676 6.27826C23.6363 5.93074 23.2136 5.68372 22.7482 5.56555L20.8179 5.08052C20.2522 4.93898 19.6603 4.93898 19.0946 5.08052L17.1643 5.56527C16.6146 5.70277 16.1268 6.02018 15.7783 6.46697C15.4299 6.91376 15.2409 7.46426 15.2415 8.03085V9.83364L15.2973 9.81829C18.4268 8.94843 21.4854 8.94843 24.6155 9.81829L24.6713 9.83392V7.87792C24.6713 7.86117 24.6721 7.84499 24.6746 7.8288C24.6671 7.79252 24.6595 7.75317 24.6517 7.7102V7.7102ZM24.618 7.83075C24.6012 7.74955 24.5845 7.65327 24.5666 7.54024C24.4727 7.08023 24.251 6.65601 23.9269 6.31626C23.6028 5.97651 23.1896 5.73499 22.7345 5.61941L20.8042 5.13466C20.2494 4.99513 19.6628 4.99513 19.108 5.13466L17.178 5.61941C16.6403 5.75381 16.1631 6.06422 15.8222 6.50121C15.4814 6.93819 15.2965 7.47665 15.297 8.03085V9.76024C18.4262 8.89317 21.4857 8.89345 24.6152 9.76024V7.87792C24.6152 7.86201 24.6163 7.84638 24.618 7.83075V7.83075ZM25.4161 7.8062C25.42 7.82936 25.4222 7.85364 25.4222 7.87792V10.1375C25.5961 10.3496 25.6917 10.6151 25.6929 10.8894L25.6966 11.7612C25.6994 12.3882 25.2174 12.9065 24.6054 12.9528C24.4913 14.0962 23.9767 15.1228 23.1492 15.8501C22.9278 16.0453 22.6906 16.222 22.4401 16.3781V16.7802C22.4401 17.1081 22.6737 17.3908 22.9955 17.4528L24.1491 17.6747C27.3551 18.2917 29.6892 21.1103 29.6892 24.3829V25.7978C29.6886 26.3225 29.48 26.8255 29.109 27.1965C28.738 27.5674 28.235 27.7761 27.7103 27.7767H12.2024C11.6777 27.7762 11.1747 27.5675 10.8036 27.1966C10.4326 26.8256 10.2239 26.3225 10.2233 25.7978V24.3829C10.2233 21.1234 12.5451 18.2942 15.7634 17.6749L16.9187 17.4522C17.2913 17.3574 17.4724 17.0783 17.4724 16.7805V16.3781C17.2218 16.222 16.9845 16.0454 16.763 15.8501C15.9358 15.1228 15.4209 14.0964 15.3068 12.9531C14.6951 12.9065 14.2134 12.3882 14.2159 11.7615L14.2195 10.8894C14.2208 10.6151 14.3164 10.3496 14.4902 10.1375V8.03085C14.4902 6.51885 15.5144 5.20555 16.9812 4.83717L18.9115 4.35215C19.5974 4.18047 20.3151 4.18047 21.0009 4.35215L22.9313 4.83717C24.1572 5.14499 25.1097 6.14434 25.3581 7.38313C25.3955 7.5701 25.4139 7.70685 25.4158 7.80648L25.4161 7.8062ZM22.7144 11.2251C23.4702 11.3557 23.8846 10.9298 24.2197 10.5852C24.2596 10.5442 24.2998 10.5034 24.3403 10.4629L24.2781 10.4462C21.3757 9.6662 18.5348 9.66648 15.6325 10.4462L15.5702 10.4632L15.6157 10.5087L15.6888 10.5829C16.0282 10.929 16.4451 11.3551 17.1975 11.2251C18.1084 11.0664 19.0312 10.9861 19.9558 10.9851C20.8712 10.9851 21.7865 11.0652 22.7147 11.2251H22.7144ZM15.678 10.492L15.7296 10.5444C16.0698 10.891 16.4663 11.2948 17.188 11.1701C18.102 11.0108 19.028 10.9303 19.9558 10.9293C20.8745 10.9293 21.7929 11.0096 22.7242 11.1701C23.4489 11.2957 23.8427 10.8916 24.1787 10.5472L24.2328 10.4917C21.3609 9.72536 18.5496 9.72564 15.678 10.492ZM17.2957 15.2437C18.892 16.6468 21.0361 16.6326 22.6162 15.2437C23.3047 14.6387 23.7286 13.7721 23.8087 12.8032C23.8226 12.625 23.9034 12.4587 24.0347 12.3374C24.166 12.2161 24.3382 12.1489 24.5169 12.1491C24.7221 12.1482 24.8901 11.9766 24.8892 11.764L24.8859 10.9826L24.8214 11.0484C24.3827 11.4975 23.7328 12.163 22.5869 11.9655C20.8165 11.6601 19.0957 11.6601 17.3253 11.9655C16.2018 12.1591 15.5881 11.5455 15.0919 11.049L15.0261 10.9831L15.0227 11.7642C15.0219 11.9766 15.1902 12.1482 15.395 12.1491C15.5737 12.1489 15.746 12.2161 15.8773 12.3374C16.0086 12.4587 16.0893 12.625 16.1033 12.8032C16.1834 13.7721 16.6073 14.6384 17.2957 15.2437V15.2437ZM14.9669 11.764C14.9658 12.0062 15.1578 12.2038 15.3947 12.2049C15.5595 12.2046 15.7183 12.2665 15.8394 12.3783C15.9604 12.4901 16.0349 12.6434 16.0477 12.8077C16.1287 13.7903 16.559 14.6702 17.2589 15.2855C18.8764 16.7074 21.0517 16.6929 22.6533 15.2855C23.3532 14.6702 23.7833 13.7903 23.8645 12.8077C23.8773 12.6434 23.9518 12.4901 24.0728 12.3783C24.1939 12.2665 24.3527 12.2046 24.5175 12.2049C24.7542 12.2038 24.9462 12.0062 24.945 11.764L24.9414 10.8922C24.9414 10.8782 24.9403 10.8645 24.9392 10.8508L24.8968 10.8924L24.8856 10.9036C24.8515 10.9374 24.8164 10.9734 24.7801 11.0105C24.3408 11.4598 23.7113 12.1028 22.5964 11.9105C20.8198 11.6041 19.0924 11.6041 17.3158 11.9105C16.2219 12.0991 15.6286 11.5061 15.1318 11.0099C15.0925 10.9706 15.0531 10.9314 15.0135 10.8924C15 10.8792 14.9864 10.866 14.9728 10.8528C14.9714 10.8659 14.9707 10.879 14.9705 10.8922L14.9669 11.764V11.764ZM13.6664 24.6327L13.6553 24.6464C13.4427 24.9028 13.3264 25.2255 13.3265 25.5587V27.0252H12.2019C11.8763 27.0248 11.5643 26.8953 11.3341 26.6651C11.104 26.4349 10.9745 26.1228 10.9742 25.7973V24.6327H13.6667H13.6664ZM13.552 24.6885H11.0306V25.7975C11.0306 26.4436 11.5564 26.9694 12.2027 26.9694H13.2715V25.5587C13.2715 25.2461 13.3706 24.9408 13.5528 24.6885H13.552ZM13.9706 19.1434L13.9148 19.1769C12.2725 20.1698 11.1576 21.909 10.9952 23.8815L10.9907 23.9373H13.9712V19.1437L13.9706 19.1434ZM14.6661 22.7395C14.6845 22.7272 14.7032 22.7155 14.7219 22.7038C14.9449 22.5683 15.201 22.4968 15.462 22.4973H15.7449V18.4455L15.6891 18.458C15.3389 18.5386 14.9965 18.6502 14.6661 18.7915V22.7395V22.7395ZM14.7219 18.8286V22.639C14.9469 22.5091 15.2022 22.4409 15.462 22.4412H15.6891V18.5158C15.3542 18.5936 15.0311 18.6988 14.7219 18.8289V18.8286ZM13.9151 20.1503V19.2428C12.3046 20.229 11.2128 21.9414 11.051 23.882H13.9154V20.1508L13.9151 20.1503ZM25.2693 23.9269C25.2691 23.7322 25.1916 23.5455 25.0539 23.4078C24.9162 23.2701 24.7295 23.1927 24.5348 23.1924H15.4622C15.2675 23.1927 15.0808 23.2701 14.9431 23.4078C14.8054 23.5455 14.728 23.7322 14.7277 23.9269C14.727 24.2598 14.6108 24.5822 14.399 24.8389C14.3662 24.8843 14.3308 24.9276 14.2929 24.9687C14.1693 25.1082 14.0222 25.2748 14.0222 25.5587V27.0252H25.8902V25.521C25.8902 25.2656 25.7711 25.1116 25.6564 24.9628C25.6168 24.9115 25.5774 24.8607 25.5439 24.8066C25.3615 24.5575 25.2653 24.2557 25.2699 23.947L25.2696 23.9269H25.2693ZM25.4973 24.8378C25.3068 24.5764 25.2072 24.2598 25.2138 23.9364V23.9328L25.2135 23.9308V23.9269C25.2133 23.747 25.1417 23.5745 25.0145 23.4473C24.8872 23.32 24.7147 23.2485 24.5348 23.2482H15.4622C15.2823 23.2485 15.1098 23.32 14.9826 23.4473C14.8553 23.5745 14.7838 23.747 14.7835 23.9269C14.7835 24.266 14.6647 24.6051 14.4436 24.873C14.4129 24.9174 14.3739 24.9612 14.3356 25.0041L14.3315 25.0092C14.2889 25.0559 14.2488 25.1048 14.2115 25.1557C14.1369 25.2601 14.0781 25.3854 14.0781 25.5587V26.9694H25.8344V25.521C25.8344 25.3625 25.785 25.2467 25.7189 25.1437C25.6862 25.0929 25.6497 25.0455 25.6117 24.9963L25.6089 24.9927C25.5692 24.943 25.5319 24.8913 25.4973 24.8378V24.8378ZM26.3181 24.6885C26.493 24.9327 26.5854 25.2204 26.5854 25.521V27.0252H27.7101C28.3868 27.0252 28.9377 26.4743 28.9377 25.7973V24.6327H26.2773L26.3111 24.6788L26.3181 24.6885V24.6885ZM26.3862 24.6885C26.5529 24.9341 26.6418 25.2242 26.6412 25.521V26.9694H27.7101C28.3561 26.9694 28.8819 26.4436 28.8819 25.7973V24.6885H26.3862V24.6885ZM24.256 18.4658V22.497H24.5351C24.8203 22.4967 25.0989 22.5821 25.3349 22.7423V18.8308C24.9875 18.6756 24.6263 18.5535 24.256 18.4661V18.4658ZM24.3118 18.5367V22.4412H24.5351C24.8058 22.4412 25.06 22.514 25.2791 22.6413V18.8671C24.9666 18.7298 24.6431 18.6193 24.3118 18.537V18.5367ZM22.3575 17.9934C22.341 17.983 22.3247 17.9723 22.3087 17.9613C21.7318 17.5641 21.6894 16.9521 21.6883 16.759C21.688 16.7388 21.6881 16.7187 21.6886 16.6985C21.67 16.706 21.6514 16.7135 21.6328 16.7208C20.5226 17.1575 19.3762 17.1525 18.2789 16.7208C18.2603 16.7135 18.2416 16.706 18.2231 16.6985C18.2227 16.7055 18.2227 16.7126 18.2231 16.7197L18.2236 16.7588C18.2231 16.9382 18.1924 17.4771 17.7152 17.877C17.7005 17.8893 17.6856 17.9013 17.6705 17.913L18.3333 18.453C19.326 19.2623 20.7715 19.2679 21.7701 18.4655L22.3575 17.9934V17.9934ZM22.2635 17.9975C21.9854 17.8037 21.784 17.5187 21.6942 17.1919C21.6565 17.058 21.6359 16.9199 21.6328 16.7808C20.5229 17.212 19.3765 17.2069 18.2792 16.7808C18.2792 16.7964 18.2783 16.8143 18.2775 16.8335C18.2724 16.9397 18.2569 17.0452 18.2312 17.1483C18.1586 17.4467 17.9933 17.7145 17.759 17.913L18.3685 18.4097C19.341 19.2026 20.7573 19.2079 21.7352 18.422L22.2635 17.9975ZM16.4962 18.3553V22.4412H23.5048V18.3723L23.1662 18.3073L22.2406 19.051C21.6187 19.5504 20.8444 19.8212 20.0468 19.8184C19.2493 19.8156 18.4769 19.5392 17.8586 19.0354L16.9237 18.273L16.4962 18.3553V18.3553ZM16.9388 18.2133L16.4404 18.3093V22.497H23.5606V18.3266L23.1515 18.2479L22.2054 19.0078C21.5935 19.4991 20.8316 19.7656 20.0469 19.7628C19.2622 19.76 18.5021 19.4881 17.8938 18.9924L16.9388 18.2135V18.2133ZM26.0859 19.2977V23.8815H28.8607C28.7022 21.9768 27.6475 20.2918 26.0859 19.2977V19.2977ZM26.0301 23.9373H28.9212L28.9168 23.8815C28.7571 21.945 27.6796 20.2332 26.0859 19.2319C26.0673 19.2201 26.0487 19.2085 26.0301 19.197V23.9373V23.9373Z"/>
</mask>
<path fill-rule="evenodd" clip-rule="evenodd" d="M25.3664 10.1576C25.5401 10.3621 25.6359 10.6214 25.6371 10.8896L25.6408 11.7615C25.6433 12.3754 25.1591 12.8791 24.5546 12.9001C24.4514 14.049 23.9401 15.0807 23.1124 15.808C22.8855 16.0082 22.6418 16.1886 22.384 16.3471V16.7802C22.384 17.1347 22.6368 17.4405 22.9848 17.5075L24.1385 17.7296C27.3185 18.3416 29.6334 21.1371 29.6334 24.3827V25.7975C29.6334 26.858 28.7708 27.7209 27.7103 27.7209H12.2024C11.6925 27.7204 11.2037 27.5176 10.8431 27.1571C10.4825 26.7966 10.2797 26.3077 10.2791 25.7978V24.3829C10.2791 21.1499 12.582 18.3439 15.774 17.7299L16.9307 17.5067C17.3292 17.4059 17.5282 17.1042 17.5282 16.7805V16.3471C17.2704 16.1887 17.0268 16.0084 16.7998 15.8082C15.9724 15.0807 15.4611 14.049 15.3579 12.9001C14.7534 12.8791 14.2692 12.3754 14.2717 11.7615L14.2754 10.8896C14.2765 10.6214 14.3724 10.3621 14.5461 10.1576V8.03113C14.5461 6.54424 15.5529 5.25327 16.9949 4.89103L18.9249 4.40601C19.6019 4.23655 20.3103 4.23655 20.9873 4.40601L22.9176 4.89103C24.1229 5.19382 25.0592 6.17615 25.3034 7.39373C25.3226 7.49001 25.3366 7.57178 25.3458 7.64155C25.3547 7.70908 25.3595 7.76517 25.3603 7.81178C25.3642 7.83327 25.3664 7.85531 25.3664 7.87792V10.1576V10.1576ZM24.6517 7.7102C24.641 7.65031 24.631 7.59031 24.6216 7.5302C24.5257 7.05969 24.299 6.62577 23.9676 6.27826C23.6363 5.93074 23.2136 5.68372 22.7482 5.56555L20.8179 5.08052C20.2522 4.93898 19.6603 4.93898 19.0946 5.08052L17.1643 5.56527C16.6146 5.70277 16.1268 6.02018 15.7783 6.46697C15.4299 6.91376 15.2409 7.46426 15.2415 8.03085V9.83364L15.2973 9.81829C18.4268 8.94843 21.4854 8.94843 24.6155 9.81829L24.6713 9.83392V7.87792C24.6713 7.86117 24.6721 7.84499 24.6746 7.8288C24.6671 7.79252 24.6595 7.75317 24.6517 7.7102V7.7102ZM24.618 7.83075C24.6012 7.74955 24.5845 7.65327 24.5666 7.54024C24.4727 7.08023 24.251 6.65601 23.9269 6.31626C23.6028 5.97651 23.1896 5.73499 22.7345 5.61941L20.8042 5.13466C20.2494 4.99513 19.6628 4.99513 19.108 5.13466L17.178 5.61941C16.6403 5.75381 16.1631 6.06422 15.8222 6.50121C15.4814 6.93819 15.2965 7.47665 15.297 8.03085V9.76024C18.4262 8.89317 21.4857 8.89345 24.6152 9.76024V7.87792C24.6152 7.86201 24.6163 7.84638 24.618 7.83075V7.83075ZM25.4161 7.8062C25.42 7.82936 25.4222 7.85364 25.4222 7.87792V10.1375C25.5961 10.3496 25.6917 10.6151 25.6929 10.8894L25.6966 11.7612C25.6994 12.3882 25.2174 12.9065 24.6054 12.9528C24.4913 14.0962 23.9767 15.1228 23.1492 15.8501C22.9278 16.0453 22.6906 16.222 22.4401 16.3781V16.7802C22.4401 17.1081 22.6737 17.3908 22.9955 17.4528L24.1491 17.6747C27.3551 18.2917 29.6892 21.1103 29.6892 24.3829V25.7978C29.6886 26.3225 29.48 26.8255 29.109 27.1965C28.738 27.5674 28.235 27.7761 27.7103 27.7767H12.2024C11.6777 27.7762 11.1747 27.5675 10.8036 27.1966C10.4326 26.8256 10.2239 26.3225 10.2233 25.7978V24.3829C10.2233 21.1234 12.5451 18.2942 15.7634 17.6749L16.9187 17.4522C17.2913 17.3574 17.4724 17.0783 17.4724 16.7805V16.3781C17.2218 16.222 16.9845 16.0454 16.763 15.8501C15.9358 15.1228 15.4209 14.0964 15.3068 12.9531C14.6951 12.9065 14.2134 12.3882 14.2159 11.7615L14.2195 10.8894C14.2208 10.6151 14.3164 10.3496 14.4902 10.1375V8.03085C14.4902 6.51885 15.5144 5.20555 16.9812 4.83717L18.9115 4.35215C19.5974 4.18047 20.3151 4.18047 21.0009 4.35215L22.9313 4.83717C24.1572 5.14499 25.1097 6.14434 25.3581 7.38313C25.3955 7.5701 25.4139 7.70685 25.4158 7.80648L25.4161 7.8062ZM22.7144 11.2251C23.4702 11.3557 23.8846 10.9298 24.2197 10.5852C24.2596 10.5442 24.2998 10.5034 24.3403 10.4629L24.2781 10.4462C21.3757 9.6662 18.5348 9.66648 15.6325 10.4462L15.5702 10.4632L15.6157 10.5087L15.6888 10.5829C16.0282 10.929 16.4451 11.3551 17.1975 11.2251C18.1084 11.0664 19.0312 10.9861 19.9558 10.9851C20.8712 10.9851 21.7865 11.0652 22.7147 11.2251H22.7144ZM15.678 10.492L15.7296 10.5444C16.0698 10.891 16.4663 11.2948 17.188 11.1701C18.102 11.0108 19.028 10.9303 19.9558 10.9293C20.8745 10.9293 21.7929 11.0096 22.7242 11.1701C23.4489 11.2957 23.8427 10.8916 24.1787 10.5472L24.2328 10.4917C21.3609 9.72536 18.5496 9.72564 15.678 10.492ZM17.2957 15.2437C18.892 16.6468 21.0361 16.6326 22.6162 15.2437C23.3047 14.6387 23.7286 13.7721 23.8087 12.8032C23.8226 12.625 23.9034 12.4587 24.0347 12.3374C24.166 12.2161 24.3382 12.1489 24.5169 12.1491C24.7221 12.1482 24.8901 11.9766 24.8892 11.764L24.8859 10.9826L24.8214 11.0484C24.3827 11.4975 23.7328 12.163 22.5869 11.9655C20.8165 11.6601 19.0957 11.6601 17.3253 11.9655C16.2018 12.1591 15.5881 11.5455 15.0919 11.049L15.0261 10.9831L15.0227 11.7642C15.0219 11.9766 15.1902 12.1482 15.395 12.1491C15.5737 12.1489 15.746 12.2161 15.8773 12.3374C16.0086 12.4587 16.0893 12.625 16.1033 12.8032C16.1834 13.7721 16.6073 14.6384 17.2957 15.2437V15.2437ZM14.9669 11.764C14.9658 12.0062 15.1578 12.2038 15.3947 12.2049C15.5595 12.2046 15.7183 12.2665 15.8394 12.3783C15.9604 12.4901 16.0349 12.6434 16.0477 12.8077C16.1287 13.7903 16.559 14.6702 17.2589 15.2855C18.8764 16.7074 21.0517 16.6929 22.6533 15.2855C23.3532 14.6702 23.7833 13.7903 23.8645 12.8077C23.8773 12.6434 23.9518 12.4901 24.0728 12.3783C24.1939 12.2665 24.3527 12.2046 24.5175 12.2049C24.7542 12.2038 24.9462 12.0062 24.945 11.764L24.9414 10.8922C24.9414 10.8782 24.9403 10.8645 24.9392 10.8508L24.8968 10.8924L24.8856 10.9036C24.8515 10.9374 24.8164 10.9734 24.7801 11.0105C24.3408 11.4598 23.7113 12.1028 22.5964 11.9105C20.8198 11.6041 19.0924 11.6041 17.3158 11.9105C16.2219 12.0991 15.6286 11.5061 15.1318 11.0099C15.0925 10.9706 15.0531 10.9314 15.0135 10.8924C15 10.8792 14.9864 10.866 14.9728 10.8528C14.9714 10.8659 14.9707 10.879 14.9705 10.8922L14.9669 11.764V11.764ZM13.6664 24.6327L13.6553 24.6464C13.4427 24.9028 13.3264 25.2255 13.3265 25.5587V27.0252H12.2019C11.8763 27.0248 11.5643 26.8953 11.3341 26.6651C11.104 26.4349 10.9745 26.1228 10.9742 25.7973V24.6327H13.6667H13.6664ZM13.552 24.6885H11.0306V25.7975C11.0306 26.4436 11.5564 26.9694 12.2027 26.9694H13.2715V25.5587C13.2715 25.2461 13.3706 24.9408 13.5528 24.6885H13.552ZM13.9706 19.1434L13.9148 19.1769C12.2725 20.1698 11.1576 21.909 10.9952 23.8815L10.9907 23.9373H13.9712V19.1437L13.9706 19.1434ZM14.6661 22.7395C14.6845 22.7272 14.7032 22.7155 14.7219 22.7038C14.9449 22.5683 15.201 22.4968 15.462 22.4973H15.7449V18.4455L15.6891 18.458C15.3389 18.5386 14.9965 18.6502 14.6661 18.7915V22.7395V22.7395ZM14.7219 18.8286V22.639C14.9469 22.5091 15.2022 22.4409 15.462 22.4412H15.6891V18.5158C15.3542 18.5936 15.0311 18.6988 14.7219 18.8289V18.8286ZM13.9151 20.1503V19.2428C12.3046 20.229 11.2128 21.9414 11.051 23.882H13.9154V20.1508L13.9151 20.1503ZM25.2693 23.9269C25.2691 23.7322 25.1916 23.5455 25.0539 23.4078C24.9162 23.2701 24.7295 23.1927 24.5348 23.1924H15.4622C15.2675 23.1927 15.0808 23.2701 14.9431 23.4078C14.8054 23.5455 14.728 23.7322 14.7277 23.9269C14.727 24.2598 14.6108 24.5822 14.399 24.8389C14.3662 24.8843 14.3308 24.9276 14.2929 24.9687C14.1693 25.1082 14.0222 25.2748 14.0222 25.5587V27.0252H25.8902V25.521C25.8902 25.2656 25.7711 25.1116 25.6564 24.9628C25.6168 24.9115 25.5774 24.8607 25.5439 24.8066C25.3615 24.5575 25.2653 24.2557 25.2699 23.947L25.2696 23.9269H25.2693ZM25.4973 24.8378C25.3068 24.5764 25.2072 24.2598 25.2138 23.9364V23.9328L25.2135 23.9308V23.9269C25.2133 23.747 25.1417 23.5745 25.0145 23.4473C24.8872 23.32 24.7147 23.2485 24.5348 23.2482H15.4622C15.2823 23.2485 15.1098 23.32 14.9826 23.4473C14.8553 23.5745 14.7838 23.747 14.7835 23.9269C14.7835 24.266 14.6647 24.6051 14.4436 24.873C14.4129 24.9174 14.3739 24.9612 14.3356 25.0041L14.3315 25.0092C14.2889 25.0559 14.2488 25.1048 14.2115 25.1557C14.1369 25.2601 14.0781 25.3854 14.0781 25.5587V26.9694H25.8344V25.521C25.8344 25.3625 25.785 25.2467 25.7189 25.1437C25.6862 25.0929 25.6497 25.0455 25.6117 24.9963L25.6089 24.9927C25.5692 24.943 25.5319 24.8913 25.4973 24.8378V24.8378ZM26.3181 24.6885C26.493 24.9327 26.5854 25.2204 26.5854 25.521V27.0252H27.7101C28.3868 27.0252 28.9377 26.4743 28.9377 25.7973V24.6327H26.2773L26.3111 24.6788L26.3181 24.6885V24.6885ZM26.3862 24.6885C26.5529 24.9341 26.6418 25.2242 26.6412 25.521V26.9694H27.7101C28.3561 26.9694 28.8819 26.4436 28.8819 25.7973V24.6885H26.3862V24.6885ZM24.256 18.4658V22.497H24.5351C24.8203 22.4967 25.0989 22.5821 25.3349 22.7423V18.8308C24.9875 18.6756 24.6263 18.5535 24.256 18.4661V18.4658ZM24.3118 18.5367V22.4412H24.5351C24.8058 22.4412 25.06 22.514 25.2791 22.6413V18.8671C24.9666 18.7298 24.6431 18.6193 24.3118 18.537V18.5367ZM22.3575 17.9934C22.341 17.983 22.3247 17.9723 22.3087 17.9613C21.7318 17.5641 21.6894 16.9521 21.6883 16.759C21.688 16.7388 21.6881 16.7187 21.6886 16.6985C21.67 16.706 21.6514 16.7135 21.6328 16.7208C20.5226 17.1575 19.3762 17.1525 18.2789 16.7208C18.2603 16.7135 18.2416 16.706 18.2231 16.6985C18.2227 16.7055 18.2227 16.7126 18.2231 16.7197L18.2236 16.7588C18.2231 16.9382 18.1924 17.4771 17.7152 17.877C17.7005 17.8893 17.6856 17.9013 17.6705 17.913L18.3333 18.453C19.326 19.2623 20.7715 19.2679 21.7701 18.4655L22.3575 17.9934V17.9934ZM22.2635 17.9975C21.9854 17.8037 21.784 17.5187 21.6942 17.1919C21.6565 17.058 21.6359 16.9199 21.6328 16.7808C20.5229 17.212 19.3765 17.2069 18.2792 16.7808C18.2792 16.7964 18.2783 16.8143 18.2775 16.8335C18.2724 16.9397 18.2569 17.0452 18.2312 17.1483C18.1586 17.4467 17.9933 17.7145 17.759 17.913L18.3685 18.4097C19.341 19.2026 20.7573 19.2079 21.7352 18.422L22.2635 17.9975ZM16.4962 18.3553V22.4412H23.5048V18.3723L23.1662 18.3073L22.2406 19.051C21.6187 19.5504 20.8444 19.8212 20.0468 19.8184C19.2493 19.8156 18.4769 19.5392 17.8586 19.0354L16.9237 18.273L16.4962 18.3553V18.3553ZM16.9388 18.2133L16.4404 18.3093V22.497H23.5606V18.3266L23.1515 18.2479L22.2054 19.0078C21.5935 19.4991 20.8316 19.7656 20.0469 19.7628C19.2622 19.76 18.5021 19.4881 17.8938 18.9924L16.9388 18.2135V18.2133ZM26.0859 19.2977V23.8815H28.8607C28.7022 21.9768 27.6475 20.2918 26.0859 19.2977V19.2977ZM26.0301 23.9373H28.9212L28.9168 23.8815C28.7571 21.945 27.6796 20.2332 26.0859 19.2319C26.0673 19.2201 26.0487 19.2085 26.0301 19.197V23.9373V23.9373Z" fill="#E5550E"/>
<path fill-rule="evenodd" clip-rule="evenodd" d="M25.3664 10.1576C25.5401 10.3621 25.6359 10.6214 25.6371 10.8896L25.6408 11.7615C25.6433 12.3754 25.1591 12.8791 24.5546 12.9001C24.4514 14.049 23.9401 15.0807 23.1124 15.808C22.8855 16.0082 22.6418 16.1886 22.384 16.3471V16.7802C22.384 17.1347 22.6368 17.4405 22.9848 17.5075L24.1385 17.7296C27.3185 18.3416 29.6334 21.1371 29.6334 24.3827V25.7975C29.6334 26.858 28.7708 27.7209 27.7103 27.7209H12.2024C11.6925 27.7204 11.2037 27.5176 10.8431 27.1571C10.4825 26.7966 10.2797 26.3077 10.2791 25.7978V24.3829C10.2791 21.1499 12.582 18.3439 15.774 17.7299L16.9307 17.5067C17.3292 17.4059 17.5282 17.1042 17.5282 16.7805V16.3471C17.2704 16.1887 17.0268 16.0084 16.7998 15.8082C15.9724 15.0807 15.4611 14.049 15.3579 12.9001C14.7534 12.8791 14.2692 12.3754 14.2717 11.7615L14.2754 10.8896C14.2765 10.6214 14.3724 10.3621 14.5461 10.1576V8.03113C14.5461 6.54424 15.5529 5.25327 16.9949 4.89103L18.9249 4.40601C19.6019 4.23655 20.3103 4.23655 20.9873 4.40601L22.9176 4.89103C24.1229 5.19382 25.0592 6.17615 25.3034 7.39373C25.3226 7.49001 25.3366 7.57178 25.3458 7.64155C25.3547 7.70908 25.3595 7.76517 25.3603 7.81178C25.3642 7.83327 25.3664 7.85531 25.3664 7.87792V10.1576V10.1576ZM24.6517 7.7102C24.641 7.65031 24.631 7.59031 24.6216 7.5302C24.5257 7.05969 24.299 6.62577 23.9676 6.27826C23.6363 5.93074 23.2136 5.68372 22.7482 5.56555L20.8179 5.08052C20.2522 4.93898 19.6603 4.93898 19.0946 5.08052L17.1643 5.56527C16.6146 5.70277 16.1268 6.02018 15.7783 6.46697C15.4299 6.91376 15.2409 7.46426 15.2415 8.03085V9.83364L15.2973 9.81829C18.4268 8.94843 21.4854 8.94843 24.6155 9.81829L24.6713 9.83392V7.87792C24.6713 7.86117 24.6721 7.84499 24.6746 7.8288C24.6671 7.79252 24.6595 7.75317 24.6517 7.7102V7.7102ZM24.618 7.83075C24.6012 7.74955 24.5845 7.65327 24.5666 7.54024C24.4727 7.08023 24.251 6.65601 23.9269 6.31626C23.6028 5.97651 23.1896 5.73499 22.7345 5.61941L20.8042 5.13466C20.2494 4.99513 19.6628 4.99513 19.108 5.13466L17.178 5.61941C16.6403 5.75381 16.1631 6.06422 15.8222 6.50121C15.4814 6.93819 15.2965 7.47665 15.297 8.03085V9.76024C18.4262 8.89317 21.4857 8.89345 24.6152 9.76024V7.87792C24.6152 7.86201 24.6163 7.84638 24.618 7.83075V7.83075ZM25.4161 7.8062C25.42 7.82936 25.4222 7.85364 25.4222 7.87792V10.1375C25.5961 10.3496 25.6917 10.6151 25.6929 10.8894L25.6966 11.7612C25.6994 12.3882 25.2174 12.9065 24.6054 12.9528C24.4913 14.0962 23.9767 15.1228 23.1492 15.8501C22.9278 16.0453 22.6906 16.222 22.4401 16.3781V16.7802C22.4401 17.1081 22.6737 17.3908 22.9955 17.4528L24.1491 17.6747C27.3551 18.2917 29.6892 21.1103 29.6892 24.3829V25.7978C29.6886 26.3225 29.48 26.8255 29.109 27.1965C28.738 27.5674 28.235 27.7761 27.7103 27.7767H12.2024C11.6777 27.7762 11.1747 27.5675 10.8036 27.1966C10.4326 26.8256 10.2239 26.3225 10.2233 25.7978V24.3829C10.2233 21.1234 12.5451 18.2942 15.7634 17.6749L16.9187 17.4522C17.2913 17.3574 17.4724 17.0783 17.4724 16.7805V16.3781C17.2218 16.222 16.9845 16.0454 16.763 15.8501C15.9358 15.1228 15.4209 14.0964 15.3068 12.9531C14.6951 12.9065 14.2134 12.3882 14.2159 11.7615L14.2195 10.8894C14.2208 10.6151 14.3164 10.3496 14.4902 10.1375V8.03085C14.4902 6.51885 15.5144 5.20555 16.9812 4.83717L18.9115 4.35215C19.5974 4.18047 20.3151 4.18047 21.0009 4.35215L22.9313 4.83717C24.1572 5.14499 25.1097 6.14434 25.3581 7.38313C25.3955 7.5701 25.4139 7.70685 25.4158 7.80648L25.4161 7.8062ZM22.7144 11.2251C23.4702 11.3557 23.8846 10.9298 24.2197 10.5852C24.2596 10.5442 24.2998 10.5034 24.3403 10.4629L24.2781 10.4462C21.3757 9.6662 18.5348 9.66648 15.6325 10.4462L15.5702 10.4632L15.6157 10.5087L15.6888 10.5829C16.0282 10.929 16.4451 11.3551 17.1975 11.2251C18.1084 11.0664 19.0312 10.9861 19.9558 10.9851C20.8712 10.9851 21.7865 11.0652 22.7147 11.2251H22.7144ZM15.678 10.492L15.7296 10.5444C16.0698 10.891 16.4663 11.2948 17.188 11.1701C18.102 11.0108 19.028 10.9303 19.9558 10.9293C20.8745 10.9293 21.7929 11.0096 22.7242 11.1701C23.4489 11.2957 23.8427 10.8916 24.1787 10.5472L24.2328 10.4917C21.3609 9.72536 18.5496 9.72564 15.678 10.492ZM17.2957 15.2437C18.892 16.6468 21.0361 16.6326 22.6162 15.2437C23.3047 14.6387 23.7286 13.7721 23.8087 12.8032C23.8226 12.625 23.9034 12.4587 24.0347 12.3374C24.166 12.2161 24.3382 12.1489 24.5169 12.1491C24.7221 12.1482 24.8901 11.9766 24.8892 11.764L24.8859 10.9826L24.8214 11.0484C24.3827 11.4975 23.7328 12.163 22.5869 11.9655C20.8165 11.6601 19.0957 11.6601 17.3253 11.9655C16.2018 12.1591 15.5881 11.5455 15.0919 11.049L15.0261 10.9831L15.0227 11.7642C15.0219 11.9766 15.1902 12.1482 15.395 12.1491C15.5737 12.1489 15.746 12.2161 15.8773 12.3374C16.0086 12.4587 16.0893 12.625 16.1033 12.8032C16.1834 13.7721 16.6073 14.6384 17.2957 15.2437V15.2437ZM14.9669 11.764C14.9658 12.0062 15.1578 12.2038 15.3947 12.2049C15.5595 12.2046 15.7183 12.2665 15.8394 12.3783C15.9604 12.4901 16.0349 12.6434 16.0477 12.8077C16.1287 13.7903 16.559 14.6702 17.2589 15.2855C18.8764 16.7074 21.0517 16.6929 22.6533 15.2855C23.3532 14.6702 23.7833 13.7903 23.8645 12.8077C23.8773 12.6434 23.9518 12.4901 24.0728 12.3783C24.1939 12.2665 24.3527 12.2046 24.5175 12.2049C24.7542 12.2038 24.9462 12.0062 24.945 11.764L24.9414 10.8922C24.9414 10.8782 24.9403 10.8645 24.9392 10.8508L24.8968 10.8924L24.8856 10.9036C24.8515 10.9374 24.8164 10.9734 24.7801 11.0105C24.3408 11.4598 23.7113 12.1028 22.5964 11.9105C20.8198 11.6041 19.0924 11.6041 17.3158 11.9105C16.2219 12.0991 15.6286 11.5061 15.1318 11.0099C15.0925 10.9706 15.0531 10.9314 15.0135 10.8924C15 10.8792 14.9864 10.866 14.9728 10.8528C14.9714 10.8659 14.9707 10.879 14.9705 10.8922L14.9669 11.764V11.764ZM13.6664 24.6327L13.6553 24.6464C13.4427 24.9028 13.3264 25.2255 13.3265 25.5587V27.0252H12.2019C11.8763 27.0248 11.5643 26.8953 11.3341 26.6651C11.104 26.4349 10.9745 26.1228 10.9742 25.7973V24.6327H13.6667H13.6664ZM13.552 24.6885H11.0306V25.7975C11.0306 26.4436 11.5564 26.9694 12.2027 26.9694H13.2715V25.5587C13.2715 25.2461 13.3706 24.9408 13.5528 24.6885H13.552ZM13.9706 19.1434L13.9148 19.1769C12.2725 20.1698 11.1576 21.909 10.9952 23.8815L10.9907 23.9373H13.9712V19.1437L13.9706 19.1434ZM14.6661 22.7395C14.6845 22.7272 14.7032 22.7155 14.7219 22.7038C14.9449 22.5683 15.201 22.4968 15.462 22.4973H15.7449V18.4455L15.6891 18.458C15.3389 18.5386 14.9965 18.6502 14.6661 18.7915V22.7395V22.7395ZM14.7219 18.8286V22.639C14.9469 22.5091 15.2022 22.4409 15.462 22.4412H15.6891V18.5158C15.3542 18.5936 15.0311 18.6988 14.7219 18.8289V18.8286ZM13.9151 20.1503V19.2428C12.3046 20.229 11.2128 21.9414 11.051 23.882H13.9154V20.1508L13.9151 20.1503ZM25.2693 23.9269C25.2691 23.7322 25.1916 23.5455 25.0539 23.4078C24.9162 23.2701 24.7295 23.1927 24.5348 23.1924H15.4622C15.2675 23.1927 15.0808 23.2701 14.9431 23.4078C14.8054 23.5455 14.728 23.7322 14.7277 23.9269C14.727 24.2598 14.6108 24.5822 14.399 24.8389C14.3662 24.8843 14.3308 24.9276 14.2929 24.9687C14.1693 25.1082 14.0222 25.2748 14.0222 25.5587V27.0252H25.8902V25.521C25.8902 25.2656 25.7711 25.1116 25.6564 24.9628C25.6168 24.9115 25.5774 24.8607 25.5439 24.8066C25.3615 24.5575 25.2653 24.2557 25.2699 23.947L25.2696 23.9269H25.2693ZM25.4973 24.8378C25.3068 24.5764 25.2072 24.2598 25.2138 23.9364V23.9328L25.2135 23.9308V23.9269C25.2133 23.747 25.1417 23.5745 25.0145 23.4473C24.8872 23.32 24.7147 23.2485 24.5348 23.2482H15.4622C15.2823 23.2485 15.1098 23.32 14.9826 23.4473C14.8553 23.5745 14.7838 23.747 14.7835 23.9269C14.7835 24.266 14.6647 24.6051 14.4436 24.873C14.4129 24.9174 14.3739 24.9612 14.3356 25.0041L14.3315 25.0092C14.2889 25.0559 14.2488 25.1048 14.2115 25.1557C14.1369 25.2601 14.0781 25.3854 14.0781 25.5587V26.9694H25.8344V25.521C25.8344 25.3625 25.785 25.2467 25.7189 25.1437C25.6862 25.0929 25.6497 25.0455 25.6117 24.9963L25.6089 24.9927C25.5692 24.943 25.5319 24.8913 25.4973 24.8378V24.8378ZM26.3181 24.6885C26.493 24.9327 26.5854 25.2204 26.5854 25.521V27.0252H27.7101C28.3868 27.0252 28.9377 26.4743 28.9377 25.7973V24.6327H26.2773L26.3111 24.6788L26.3181 24.6885V24.6885ZM26.3862 24.6885C26.5529 24.9341 26.6418 25.2242 26.6412 25.521V26.9694H27.7101C28.3561 26.9694 28.8819 26.4436 28.8819 25.7973V24.6885H26.3862V24.6885ZM24.256 18.4658V22.497H24.5351C24.8203 22.4967 25.0989 22.5821 25.3349 22.7423V18.8308C24.9875 18.6756 24.6263 18.5535 24.256 18.4661V18.4658ZM24.3118 18.5367V22.4412H24.5351C24.8058 22.4412 25.06 22.514 25.2791 22.6413V18.8671C24.9666 18.7298 24.6431 18.6193 24.3118 18.537V18.5367ZM22.3575 17.9934C22.341 17.983 22.3247 17.9723 22.3087 17.9613C21.7318 17.5641 21.6894 16.9521 21.6883 16.759C21.688 16.7388 21.6881 16.7187 21.6886 16.6985C21.67 16.706 21.6514 16.7135 21.6328 16.7208C20.5226 17.1575 19.3762 17.1525 18.2789 16.7208C18.2603 16.7135 18.2416 16.706 18.2231 16.6985C18.2227 16.7055 18.2227 16.7126 18.2231 16.7197L18.2236 16.7588C18.2231 16.9382 18.1924 17.4771 17.7152 17.877C17.7005 17.8893 17.6856 17.9013 17.6705 17.913L18.3333 18.453C19.326 19.2623 20.7715 19.2679 21.7701 18.4655L22.3575 17.9934V17.9934ZM22.2635 17.9975C21.9854 17.8037 21.784 17.5187 21.6942 17.1919C21.6565 17.058 21.6359 16.9199 21.6328 16.7808C20.5229 17.212 19.3765 17.2069 18.2792 16.7808C18.2792 16.7964 18.2783 16.8143 18.2775 16.8335C18.2724 16.9397 18.2569 17.0452 18.2312 17.1483C18.1586 17.4467 17.9933 17.7145 17.759 17.913L18.3685 18.4097C19.341 19.2026 20.7573 19.2079 21.7352 18.422L22.2635 17.9975ZM16.4962 18.3553V22.4412H23.5048V18.3723L23.1662 18.3073L22.2406 19.051C21.6187 19.5504 20.8444 19.8212 20.0468 19.8184C19.2493 19.8156 18.4769 19.5392 17.8586 19.0354L16.9237 18.273L16.4962 18.3553V18.3553ZM16.9388 18.2133L16.4404 18.3093V22.497H23.5606V18.3266L23.1515 18.2479L22.2054 19.0078C21.5935 19.4991 20.8316 19.7656 20.0469 19.7628C19.2622 19.76 18.5021 19.4881 17.8938 18.9924L16.9388 18.2135V18.2133ZM26.0859 19.2977V23.8815H28.8607C28.7022 21.9768 27.6475 20.2918 26.0859 19.2977V19.2977ZM26.0301 23.9373H28.9212L28.9168 23.8815C28.7571 21.945 27.6796 20.2332 26.0859 19.2319C26.0673 19.2201 26.0487 19.2085 26.0301 19.197V23.9373V23.9373Z" stroke="#E5550E" stroke-width="0.2" mask="url(#path-2-outside-2_214_699)"/>
<path d="M18.6651 6.12725C18.4349 6.12754 18.2143 6.21911 18.0515 6.38187C17.8887 6.54469 17.7971 6.76545 17.7969 6.99571V6.99576L17.7969 7.59939L17.7969 7.59944C17.7971 7.82969 17.8887 8.05045 18.0515 8.21327C18.2143 8.37609 18.4351 8.46766 18.6653 8.4679H18.6654H21.2468H21.2468C21.4771 8.46774 21.6979 8.3762 21.8608 8.21338C22.0237 8.05055 22.1153 7.82975 22.1156 7.59944V7.59939V6.99576V6.99571C22.1153 6.76545 22.0238 6.54469 21.8609 6.38187C21.6981 6.21905 21.4774 6.12748 21.2471 6.12725H21.247H18.6654L18.6653 6.12725L18.6651 6.12725ZM21.3198 6.99548V7.01619L21.3201 7.01647L21.3201 7.59927C21.3201 7.5993 21.3201 7.59933 21.3201 7.59936C21.3201 7.61872 21.3123 7.63728 21.2986 7.65097C21.2849 7.66468 21.2664 7.6724 21.247 7.67246C21.247 7.67246 21.247 7.67246 21.2469 7.67246H18.6652C18.6652 7.67246 18.6652 7.67246 18.6652 7.67246C18.6458 7.6724 18.6272 7.66468 18.6135 7.65097C18.5998 7.63727 18.5921 7.6187 18.592 7.59932V6.99576C18.592 6.95556 18.6249 6.92269 18.6651 6.92269H21.2465C21.2872 6.92269 21.3198 6.9555 21.3198 6.99548Z" fill="#E5550E" stroke="#E5550E" stroke-width="0.1"/>
<path d="M18.1222 6.45261C17.9781 6.59669 17.8971 6.79205 17.8969 6.99581L18.1222 6.45261ZM18.1222 6.45261C18.2663 6.30852 18.4617 6.22748 18.6655 6.22727M18.1222 6.45261L18.6655 6.22727M18.6655 6.22727L21.2468 6.22727M21.2468 6.22727C21.2468 6.22727 21.2468 6.22727 21.2468 6.22727L21.2468 6.17727V6.22727ZM17.7411 6.99574V6.99579L17.7411 7.59941L17.7411 7.59946C17.7413 7.84457 17.8388 8.07958 18.0122 8.25287C18.1855 8.42616 18.4205 8.52358 18.6656 8.52374H18.6657H21.2471H21.2471C21.4922 8.5235 21.7271 8.42605 21.9004 8.25277C22.0737 8.07948 22.1712 7.84452 22.1714 7.59946V7.59941V6.99579V6.99574C22.1712 6.75062 22.0737 6.51562 21.9003 6.34233C21.727 6.16904 21.4919 6.07162 21.2468 6.07146H21.2468L18.6654 6.07146L18.6654 6.07146C18.4203 6.07169 18.1853 6.16915 18.0121 6.34243C17.8388 6.51572 17.7413 6.75068 17.7411 6.99574ZM21.4201 6.99579L21.4201 6.99567C21.42 6.94983 21.4018 6.9059 21.3694 6.87349C21.337 6.84108 21.293 6.82282 21.2472 6.82272H21.2471H18.6657C18.6198 6.82272 18.5759 6.84087 18.5434 6.87321C18.5109 6.90555 18.4925 6.94944 18.4923 6.99528H18.4923V6.99551V7.59941C18.4923 7.69484 18.57 7.77248 18.6654 7.77248H21.2468C21.2927 7.77248 21.3367 7.75427 21.3692 7.72185C21.4017 7.68942 21.42 7.64543 21.4201 7.59953L21.3701 7.59941H21.4201V6.99579ZM21.2643 6.99578V7.59928C21.2643 7.60389 21.2624 7.6083 21.2592 7.61156C21.2559 7.61483 21.2514 7.61667 21.2468 7.61667H18.6654C18.6559 7.61667 18.6481 7.60891 18.6481 7.59941V6.99579C18.6481 6.99114 18.65 6.98668 18.6533 6.98339C18.6566 6.9801 18.661 6.97825 18.6657 6.97825H21.2469C21.2516 6.97829 21.256 6.98014 21.2592 6.98341C21.2625 6.9867 21.2643 6.99115 21.2643 6.99578Z" fill="#E5550E" stroke="#E5550E" stroke-width="0.1"/>
</g>
<defs>
<clipPath id="clip0_214_699">
<rect width="19.814" height="24" fill="white" transform="translate(10 4)"/>
</clipPath>
</defs>
</svg>
