<svg width="39" height="32" viewBox="0 0 39 32" fill="none" xmlns="http://www.w3.org/2000/svg">
<mask id="path-1-outside-1_214_705" maskUnits="userSpaceOnUse" x="5.30365" y="3.30383" width="27" height="25" fill="black">
<rect fill="white" x="5.30365" y="3.30383" width="27" height="25"/>
<path d="M24.9117 17.0575L26.7521 15.2171C27.1181 15.279 27.4873 15.2942 27.8549 15.2617C27.9076 15.2573 27.9588 15.2418 28.0053 15.2164C28.0517 15.1909 28.0923 15.1561 28.1244 15.114C28.1566 15.0719 28.1796 15.0236 28.192 14.9722C28.2043 14.9207 28.2058 14.8672 28.1963 14.8151C28.1785 14.722 28.1266 14.6389 28.0508 14.582C27.9749 14.5252 27.8806 14.4987 27.7862 14.5077C27.4251 14.539 27.0614 14.5152 26.7074 14.4372C26.6454 14.4237 26.5809 14.426 26.52 14.4439C26.459 14.4618 26.4036 14.4947 26.3587 14.5396L24.3764 16.5219L21.877 14.0225L23.8593 12.0406C23.9505 11.9494 23.9887 11.8179 23.9614 11.6918C23.8312 11.1036 23.8517 10.492 24.021 9.91388C24.1903 9.33572 24.503 8.8097 24.9299 8.38466C25.294 8.02205 25.7313 7.74135 26.2127 7.56134C26.694 7.38132 27.2082 7.30614 27.7209 7.34082L25.399 9.66274C25.3531 9.70866 25.3197 9.76561 25.3022 9.82812C25.2846 9.89063 25.2834 9.9566 25.2987 10.0197L25.8455 12.2742C25.879 12.4121 25.9865 12.5197 26.1241 12.5531L28.3789 13.0999C28.5071 13.1306 28.6423 13.0926 28.7359 12.9997L31.0578 10.6774C31.0924 11.1903 31.0172 11.7046 30.8371 12.1861C30.6571 12.6676 30.3763 13.105 30.0136 13.4693C29.797 13.6856 28.9224 14.4372 27.7862 14.5077C27.6191 14.6061 27.3387 14.848 27.4207 15.0242C27.4432 15.0721 27.4755 15.1149 27.5155 15.1496C27.5555 15.1843 27.6023 15.2103 27.653 15.2259C27.7036 15.2415 27.757 15.2463 27.8096 15.24C27.8622 15.2337 27.9129 15.2165 27.9585 15.1894C27.4791 15.4726 29.7387 14.8151 30.5492 14.0046C31.6453 12.9082 32.0767 11.2941 31.6748 9.79277C31.6576 9.72858 31.6238 9.67006 31.5768 9.62306C31.5299 9.57606 31.4713 9.54225 31.4072 9.52501C31.343 9.50778 31.2754 9.50772 31.2112 9.52486C31.147 9.54199 31.0884 9.57572 31.0414 9.62264L28.3507 12.3137L26.527 11.8713L26.0846 10.0477L28.7757 7.35692C28.8227 7.30991 28.8565 7.25134 28.8737 7.18712C28.8909 7.12289 28.8908 7.05527 28.8736 6.99106C28.8563 6.92685 28.8225 6.86832 28.7754 6.82135C28.7284 6.77438 28.6698 6.74063 28.6055 6.7235C27.1039 6.32127 25.4904 6.75297 24.3943 7.84937C23.9026 8.33881 23.5358 8.93928 23.3247 9.60017C23.1136 10.2611 23.0645 10.963 23.1815 11.6468L21.3411 13.4869L21.0519 13.1977C20.9386 13.0847 20.792 13.0109 20.6337 12.9872C20.4753 12.9636 20.3136 12.9912 20.1721 13.0662L18.9457 11.8398L18.9964 11.7887C19.2018 11.5837 19.3349 11.3127 19.3522 11.0231C19.3627 10.8592 19.3381 10.6949 19.2799 10.5413C19.2217 10.3877 19.1314 10.2483 19.015 10.1324L18.9302 10.0473C19.8531 8.6432 22.0101 6.68492 24.0079 5.79844C24.1634 5.72947 24.257 5.56299 24.2275 5.3877C24.2173 5.33219 24.195 5.27959 24.1623 5.23357C24.1296 5.18755 24.0873 5.14922 24.0382 5.12127C21.6653 3.73261 18.6282 4.14365 16.649 6.12289L15.8287 6.94314L15.8178 6.93221C15.7104 6.82464 15.5828 6.73931 15.4424 6.68108C15.3019 6.62286 15.1514 6.59288 14.9994 6.59287H14.9988C14.8467 6.59247 14.696 6.62222 14.5554 6.68042C14.4149 6.73861 14.2873 6.82409 14.18 6.9319L10.6763 10.4359C10.6061 10.5074 10.5668 10.6035 10.5668 10.7037C10.5668 10.8039 10.6061 10.9 10.6763 10.9715C10.7243 11.021 10.7638 11.0769 10.7948 11.1383C10.9868 11.5202 10.8364 12.087 10.4372 12.4862C10.0408 12.8827 9.49364 13.0328 9.10508 12.8499C9.03825 12.8189 8.97749 12.777 8.92433 12.7259C8.77364 12.5807 8.53546 12.5768 8.38752 12.7247L6.41465 14.6976C6.37946 14.7327 6.35155 14.7745 6.3325 14.8204C6.31345 14.8664 6.30365 14.9156 6.30365 14.9654C6.30365 15.0151 6.31345 15.0644 6.3325 15.1103C6.35155 15.1563 6.37946 15.198 6.41465 15.2332L10.7097 19.528C10.7471 19.5653 10.7902 19.5972 10.8392 19.617C10.9084 19.6453 10.9844 19.6526 11.0578 19.6379C11.1311 19.6232 11.1985 19.5872 11.2514 19.5343L13.2243 17.5615C13.3704 17.415 13.3722 17.1787 13.2285 17.0301C13.1784 16.9785 13.1374 16.9199 13.1058 16.8539C12.9168 16.4669 13.0651 15.9161 13.4664 15.5151C13.8644 15.1171 14.4304 14.9664 14.8122 15.1566C14.8748 15.1879 14.9319 15.2283 14.9824 15.2769C15.0537 15.3459 15.1493 15.3842 15.2486 15.3834C15.3479 15.3826 15.4429 15.3428 15.5131 15.2727L16.086 14.6997L17.3128 15.9261C17.1627 16.2087 17.2065 16.5684 17.444 16.8059L17.7335 17.0954L12.3108 22.5182C12.2398 22.5893 12.1999 22.6856 12.1999 22.786C12.2 22.8864 12.2399 22.9827 12.3109 23.0537C12.3819 23.1247 12.4782 23.1645 12.5787 23.1645C12.6791 23.1645 12.7754 23.1245 12.8464 23.0535L18.2691 17.6307L18.61 17.9719L15.7835 20.7987C15.6118 20.9713 15.5155 21.2048 15.5155 21.4482C15.5156 21.6916 15.612 21.925 15.7838 22.0975L16.302 22.6151C16.4813 22.7944 16.7161 22.8837 16.9513 22.8837C17.1864 22.8837 17.4212 22.7941 17.6002 22.6151L20.4267 19.7889L20.7679 20.1298L14.3574 26.5408C13.6666 27.2313 12.5438 27.2326 11.8551 26.5436C11.6903 26.3798 11.5597 26.1849 11.4708 25.9703C11.382 25.7556 11.3368 25.5254 11.3377 25.2931C11.3375 25.0605 11.3834 24.8301 11.4726 24.6153C11.5619 24.4005 11.6928 24.2055 11.8578 24.0415L12.9329 22.9666C13.004 22.8957 13.0439 22.7994 13.0439 22.6989C13.0439 22.5985 13.0041 22.5022 12.9331 22.4312C12.8621 22.3602 12.7658 22.3203 12.6654 22.3202C12.565 22.3202 12.4687 22.3601 12.3976 22.431L11.3222 23.5059C11.0868 23.7399 10.9 24.0183 10.7727 24.3249C10.6454 24.6315 10.58 24.9602 10.5803 25.2922C10.5791 25.6241 10.6438 25.953 10.7707 26.2597C10.8977 26.5665 11.0843 26.8449 11.3198 27.0788C11.5538 27.3133 11.832 27.4991 12.1381 27.6257C12.4442 27.7523 12.7724 27.8171 13.1037 27.8165C13.436 27.817 13.7651 27.7518 14.0721 27.6248C14.3792 27.4978 14.6582 27.3115 14.893 27.0764L21.3026 20.6663L21.3035 20.6654L27.4147 26.7769C27.6572 27.0189 27.9451 27.2108 28.2619 27.3416C28.5787 27.4723 28.9181 27.5393 29.2608 27.5388C29.8939 27.5388 30.524 27.3094 31.0077 26.8483C31.2547 26.6141 31.4519 26.3325 31.5876 26.0204C31.7233 25.7082 31.7947 25.3719 31.7975 25.0315C31.8028 24.6914 31.7395 24.3537 31.6114 24.0386C31.4832 23.7235 31.2929 23.4374 31.0517 23.1975L24.912 17.0578L24.9117 17.0575ZM17.1846 6.65849C18.7431 5.10031 21.0458 4.64887 23.0023 5.4515C21.1169 6.47469 19.2987 8.18112 18.3855 9.50203L16.3643 7.47874L17.1846 6.65849V6.65849ZM10.9838 18.7314L7.21789 14.9652L8.65516 13.5277L12.421 17.2941L10.9838 18.7314ZM12.9308 14.9795C12.6051 15.3052 12.3931 15.7068 12.3101 16.1121L9.84422 13.6461C10.2461 13.5635 10.6441 13.3505 10.9728 13.0218C11.3319 12.6624 11.5531 12.2128 11.6157 11.7678L14.1852 14.3373C13.7398 14.3995 13.2896 14.6207 12.9305 14.9795H12.9308ZM15.3168 14.398L11.5513 10.6319L14.7156 7.4672C14.7916 7.39155 14.8918 7.34993 14.9991 7.34993C15.1063 7.34993 15.2072 7.39185 15.2828 7.4675L18.48 10.6683C18.5559 10.744 18.5972 10.8445 18.5972 10.9514C18.5972 11.0587 18.5556 11.1592 18.48 11.2349L15.3168 14.398ZM16.6216 14.1641L18.4104 12.3757L19.6134 13.5787L17.825 15.3674L16.6216 14.1644V14.1641ZM17.0649 22.0799C17.0347 22.11 16.9938 22.1269 16.9511 22.1269C16.9084 22.1269 16.8675 22.11 16.8373 22.0799L16.3194 21.5622C16.2892 21.5319 16.2723 21.4909 16.2722 21.4482C16.2721 21.4054 16.289 21.3644 16.3191 21.334L19.1456 18.5075L19.8911 19.2533L17.0649 22.0799V22.0799ZM30.4851 26.3005C29.7864 26.9667 28.6493 26.9403 27.9502 26.2413L17.986 16.277L20.5233 13.74L30.5161 23.7328C30.6857 23.9015 30.8196 24.1027 30.9097 24.3244C30.9998 24.546 31.0443 24.7835 31.0405 25.0227C31.0385 25.2621 30.9884 25.4986 30.8929 25.7182C30.7975 25.9377 30.6588 26.1358 30.4851 26.3005V26.3005Z"/>
</mask>
<path d="M24.9117 17.0575L26.7521 15.2171C27.1181 15.279 27.4873 15.2942 27.8549 15.2617C27.9076 15.2573 27.9588 15.2418 28.0053 15.2164C28.0517 15.1909 28.0923 15.1561 28.1244 15.114C28.1566 15.0719 28.1796 15.0236 28.192 14.9722C28.2043 14.9207 28.2058 14.8672 28.1963 14.8151C28.1785 14.722 28.1266 14.6389 28.0508 14.582C27.9749 14.5252 27.8806 14.4987 27.7862 14.5077C27.4251 14.539 27.0614 14.5152 26.7074 14.4372C26.6454 14.4237 26.5809 14.426 26.52 14.4439C26.459 14.4618 26.4036 14.4947 26.3587 14.5396L24.3764 16.5219L21.877 14.0225L23.8593 12.0406C23.9505 11.9494 23.9887 11.8179 23.9614 11.6918C23.8312 11.1036 23.8517 10.492 24.021 9.91388C24.1903 9.33572 24.503 8.8097 24.9299 8.38466C25.294 8.02205 25.7313 7.74135 26.2127 7.56134C26.694 7.38132 27.2082 7.30614 27.7209 7.34082L25.399 9.66274C25.3531 9.70866 25.3197 9.76561 25.3022 9.82812C25.2846 9.89063 25.2834 9.9566 25.2987 10.0197L25.8455 12.2742C25.879 12.4121 25.9865 12.5197 26.1241 12.5531L28.3789 13.0999C28.5071 13.1306 28.6423 13.0926 28.7359 12.9997L31.0578 10.6774C31.0924 11.1903 31.0172 11.7046 30.8371 12.1861C30.6571 12.6676 30.3763 13.105 30.0136 13.4693C29.797 13.6856 28.9224 14.4372 27.7862 14.5077C27.6191 14.6061 27.3387 14.848 27.4207 15.0242C27.4432 15.0721 27.4755 15.1149 27.5155 15.1496C27.5555 15.1843 27.6023 15.2103 27.653 15.2259C27.7036 15.2415 27.757 15.2463 27.8096 15.24C27.8622 15.2337 27.9129 15.2165 27.9585 15.1894C27.4791 15.4726 29.7387 14.8151 30.5492 14.0046C31.6453 12.9082 32.0767 11.2941 31.6748 9.79277C31.6576 9.72858 31.6238 9.67006 31.5768 9.62306C31.5299 9.57606 31.4713 9.54225 31.4072 9.52501C31.343 9.50778 31.2754 9.50772 31.2112 9.52486C31.147 9.54199 31.0884 9.57572 31.0414 9.62264L28.3507 12.3137L26.527 11.8713L26.0846 10.0477L28.7757 7.35692C28.8227 7.30991 28.8565 7.25134 28.8737 7.18712C28.8909 7.12289 28.8908 7.05527 28.8736 6.99106C28.8563 6.92685 28.8225 6.86832 28.7754 6.82135C28.7284 6.77438 28.6698 6.74063 28.6055 6.7235C27.1039 6.32127 25.4904 6.75297 24.3943 7.84937C23.9026 8.33881 23.5358 8.93928 23.3247 9.60017C23.1136 10.2611 23.0645 10.963 23.1815 11.6468L21.3411 13.4869L21.0519 13.1977C20.9386 13.0847 20.792 13.0109 20.6337 12.9872C20.4753 12.9636 20.3136 12.9912 20.1721 13.0662L18.9457 11.8398L18.9964 11.7887C19.2018 11.5837 19.3349 11.3127 19.3522 11.0231C19.3627 10.8592 19.3381 10.6949 19.2799 10.5413C19.2217 10.3877 19.1314 10.2483 19.015 10.1324L18.9302 10.0473C19.8531 8.6432 22.0101 6.68492 24.0079 5.79844C24.1634 5.72947 24.257 5.56299 24.2275 5.3877C24.2173 5.33219 24.195 5.27959 24.1623 5.23357C24.1296 5.18755 24.0873 5.14922 24.0382 5.12127C21.6653 3.73261 18.6282 4.14365 16.649 6.12289L15.8287 6.94314L15.8178 6.93221C15.7104 6.82464 15.5828 6.73931 15.4424 6.68108C15.3019 6.62286 15.1514 6.59288 14.9994 6.59287H14.9988C14.8467 6.59247 14.696 6.62222 14.5554 6.68042C14.4149 6.73861 14.2873 6.82409 14.18 6.9319L10.6763 10.4359C10.6061 10.5074 10.5668 10.6035 10.5668 10.7037C10.5668 10.8039 10.6061 10.9 10.6763 10.9715C10.7243 11.021 10.7638 11.0769 10.7948 11.1383C10.9868 11.5202 10.8364 12.087 10.4372 12.4862C10.0408 12.8827 9.49364 13.0328 9.10508 12.8499C9.03825 12.8189 8.97749 12.777 8.92433 12.7259C8.77364 12.5807 8.53546 12.5768 8.38752 12.7247L6.41465 14.6976C6.37946 14.7327 6.35155 14.7745 6.3325 14.8204C6.31345 14.8664 6.30365 14.9156 6.30365 14.9654C6.30365 15.0151 6.31345 15.0644 6.3325 15.1103C6.35155 15.1563 6.37946 15.198 6.41465 15.2332L10.7097 19.528C10.7471 19.5653 10.7902 19.5972 10.8392 19.617C10.9084 19.6453 10.9844 19.6526 11.0578 19.6379C11.1311 19.6232 11.1985 19.5872 11.2514 19.5343L13.2243 17.5615C13.3704 17.415 13.3722 17.1787 13.2285 17.0301C13.1784 16.9785 13.1374 16.9199 13.1058 16.8539C12.9168 16.4669 13.0651 15.9161 13.4664 15.5151C13.8644 15.1171 14.4304 14.9664 14.8122 15.1566C14.8748 15.1879 14.9319 15.2283 14.9824 15.2769C15.0537 15.3459 15.1493 15.3842 15.2486 15.3834C15.3479 15.3826 15.4429 15.3428 15.5131 15.2727L16.086 14.6997L17.3128 15.9261C17.1627 16.2087 17.2065 16.5684 17.444 16.8059L17.7335 17.0954L12.3108 22.5182C12.2398 22.5893 12.1999 22.6856 12.1999 22.786C12.2 22.8864 12.2399 22.9827 12.3109 23.0537C12.3819 23.1247 12.4782 23.1645 12.5787 23.1645C12.6791 23.1645 12.7754 23.1245 12.8464 23.0535L18.2691 17.6307L18.61 17.9719L15.7835 20.7987C15.6118 20.9713 15.5155 21.2048 15.5155 21.4482C15.5156 21.6916 15.612 21.925 15.7838 22.0975L16.302 22.6151C16.4813 22.7944 16.7161 22.8837 16.9513 22.8837C17.1864 22.8837 17.4212 22.7941 17.6002 22.6151L20.4267 19.7889L20.7679 20.1298L14.3574 26.5408C13.6666 27.2313 12.5438 27.2326 11.8551 26.5436C11.6903 26.3798 11.5597 26.1849 11.4708 25.9703C11.382 25.7556 11.3368 25.5254 11.3377 25.2931C11.3375 25.0605 11.3834 24.8301 11.4726 24.6153C11.5619 24.4005 11.6928 24.2055 11.8578 24.0415L12.9329 22.9666C13.004 22.8957 13.0439 22.7994 13.0439 22.6989C13.0439 22.5985 13.0041 22.5022 12.9331 22.4312C12.8621 22.3602 12.7658 22.3203 12.6654 22.3202C12.565 22.3202 12.4687 22.3601 12.3976 22.431L11.3222 23.5059C11.0868 23.7399 10.9 24.0183 10.7727 24.3249C10.6454 24.6315 10.58 24.9602 10.5803 25.2922C10.5791 25.6241 10.6438 25.953 10.7707 26.2597C10.8977 26.5665 11.0843 26.8449 11.3198 27.0788C11.5538 27.3133 11.832 27.4991 12.1381 27.6257C12.4442 27.7523 12.7724 27.8171 13.1037 27.8165C13.436 27.817 13.7651 27.7518 14.0721 27.6248C14.3792 27.4978 14.6582 27.3115 14.893 27.0764L21.3026 20.6663L21.3035 20.6654L27.4147 26.7769C27.6572 27.0189 27.9451 27.2108 28.2619 27.3416C28.5787 27.4723 28.9181 27.5393 29.2608 27.5388C29.8939 27.5388 30.524 27.3094 31.0077 26.8483C31.2547 26.6141 31.4519 26.3325 31.5876 26.0204C31.7233 25.7082 31.7947 25.3719 31.7975 25.0315C31.8028 24.6914 31.7395 24.3537 31.6114 24.0386C31.4832 23.7235 31.2929 23.4374 31.0517 23.1975L24.912 17.0578L24.9117 17.0575ZM17.1846 6.65849C18.7431 5.10031 21.0458 4.64887 23.0023 5.4515C21.1169 6.47469 19.2987 8.18112 18.3855 9.50203L16.3643 7.47874L17.1846 6.65849V6.65849ZM10.9838 18.7314L7.21789 14.9652L8.65516 13.5277L12.421 17.2941L10.9838 18.7314ZM12.9308 14.9795C12.6051 15.3052 12.3931 15.7068 12.3101 16.1121L9.84422 13.6461C10.2461 13.5635 10.6441 13.3505 10.9728 13.0218C11.3319 12.6624 11.5531 12.2128 11.6157 11.7678L14.1852 14.3373C13.7398 14.3995 13.2896 14.6207 12.9305 14.9795H12.9308ZM15.3168 14.398L11.5513 10.6319L14.7156 7.4672C14.7916 7.39155 14.8918 7.34993 14.9991 7.34993C15.1063 7.34993 15.2072 7.39185 15.2828 7.4675L18.48 10.6683C18.5559 10.744 18.5972 10.8445 18.5972 10.9514C18.5972 11.0587 18.5556 11.1592 18.48 11.2349L15.3168 14.398ZM16.6216 14.1641L18.4104 12.3757L19.6134 13.5787L17.825 15.3674L16.6216 14.1644V14.1641ZM17.0649 22.0799C17.0347 22.11 16.9938 22.1269 16.9511 22.1269C16.9084 22.1269 16.8675 22.11 16.8373 22.0799L16.3194 21.5622C16.2892 21.5319 16.2723 21.4909 16.2722 21.4482C16.2721 21.4054 16.289 21.3644 16.3191 21.334L19.1456 18.5075L19.8911 19.2533L17.0649 22.0799V22.0799ZM30.4851 26.3005C29.7864 26.9667 28.6493 26.9403 27.9502 26.2413L17.986 16.277L20.5233 13.74L30.5161 23.7328C30.6857 23.9015 30.8196 24.1027 30.9097 24.3244C30.9998 24.546 31.0443 24.7835 31.0405 25.0227C31.0385 25.2621 30.9884 25.4986 30.8929 25.7182C30.7975 25.9377 30.6588 26.1358 30.4851 26.3005V26.3005Z" fill="#E5550E"/>
<path d="M24.9117 17.0575L26.7521 15.2171C27.1181 15.279 27.4873 15.2942 27.8549 15.2617C27.9076 15.2573 27.9588 15.2418 28.0053 15.2164C28.0517 15.1909 28.0923 15.1561 28.1244 15.114C28.1566 15.0719 28.1796 15.0236 28.192 14.9722C28.2043 14.9207 28.2058 14.8672 28.1963 14.8151C28.1785 14.722 28.1266 14.6389 28.0508 14.582C27.9749 14.5252 27.8806 14.4987 27.7862 14.5077C27.4251 14.539 27.0614 14.5152 26.7074 14.4372C26.6454 14.4237 26.5809 14.426 26.52 14.4439C26.459 14.4618 26.4036 14.4947 26.3587 14.5396L24.3764 16.5219L21.877 14.0225L23.8593 12.0406C23.9505 11.9494 23.9887 11.8179 23.9614 11.6918C23.8312 11.1036 23.8517 10.492 24.021 9.91388C24.1903 9.33572 24.503 8.8097 24.9299 8.38466C25.294 8.02205 25.7313 7.74135 26.2127 7.56134C26.694 7.38132 27.2082 7.30614 27.7209 7.34082L25.399 9.66274C25.3531 9.70866 25.3197 9.76561 25.3022 9.82812C25.2846 9.89063 25.2834 9.9566 25.2987 10.0197L25.8455 12.2742C25.879 12.4121 25.9865 12.5197 26.1241 12.5531L28.3789 13.0999C28.5071 13.1306 28.6423 13.0926 28.7359 12.9997L31.0578 10.6774C31.0924 11.1903 31.0172 11.7046 30.8371 12.1861C30.6571 12.6676 30.3763 13.105 30.0136 13.4693C29.797 13.6856 28.9224 14.4372 27.7862 14.5077C27.6191 14.6061 27.3387 14.848 27.4207 15.0242C27.4432 15.0721 27.4755 15.1149 27.5155 15.1496C27.5555 15.1843 27.6023 15.2103 27.653 15.2259C27.7036 15.2415 27.757 15.2463 27.8096 15.24C27.8622 15.2337 27.9129 15.2165 27.9585 15.1894C27.4791 15.4726 29.7387 14.8151 30.5492 14.0046C31.6453 12.9082 32.0767 11.2941 31.6748 9.79277C31.6576 9.72858 31.6238 9.67006 31.5768 9.62306C31.5299 9.57606 31.4713 9.54225 31.4072 9.52501C31.343 9.50778 31.2754 9.50772 31.2112 9.52486C31.147 9.54199 31.0884 9.57572 31.0414 9.62264L28.3507 12.3137L26.527 11.8713L26.0846 10.0477L28.7757 7.35692C28.8227 7.30991 28.8565 7.25134 28.8737 7.18712C28.8909 7.12289 28.8908 7.05527 28.8736 6.99106C28.8563 6.92685 28.8225 6.86832 28.7754 6.82135C28.7284 6.77438 28.6698 6.74063 28.6055 6.7235C27.1039 6.32127 25.4904 6.75297 24.3943 7.84937C23.9026 8.33881 23.5358 8.93928 23.3247 9.60017C23.1136 10.2611 23.0645 10.963 23.1815 11.6468L21.3411 13.4869L21.0519 13.1977C20.9386 13.0847 20.792 13.0109 20.6337 12.9872C20.4753 12.9636 20.3136 12.9912 20.1721 13.0662L18.9457 11.8398L18.9964 11.7887C19.2018 11.5837 19.3349 11.3127 19.3522 11.0231C19.3627 10.8592 19.3381 10.6949 19.2799 10.5413C19.2217 10.3877 19.1314 10.2483 19.015 10.1324L18.9302 10.0473C19.8531 8.6432 22.0101 6.68492 24.0079 5.79844C24.1634 5.72947 24.257 5.56299 24.2275 5.3877C24.2173 5.33219 24.195 5.27959 24.1623 5.23357C24.1296 5.18755 24.0873 5.14922 24.0382 5.12127C21.6653 3.73261 18.6282 4.14365 16.649 6.12289L15.8287 6.94314L15.8178 6.93221C15.7104 6.82464 15.5828 6.73931 15.4424 6.68108C15.3019 6.62286 15.1514 6.59288 14.9994 6.59287H14.9988C14.8467 6.59247 14.696 6.62222 14.5554 6.68042C14.4149 6.73861 14.2873 6.82409 14.18 6.9319L10.6763 10.4359C10.6061 10.5074 10.5668 10.6035 10.5668 10.7037C10.5668 10.8039 10.6061 10.9 10.6763 10.9715C10.7243 11.021 10.7638 11.0769 10.7948 11.1383C10.9868 11.5202 10.8364 12.087 10.4372 12.4862C10.0408 12.8827 9.49364 13.0328 9.10508 12.8499C9.03825 12.8189 8.97749 12.777 8.92433 12.7259C8.77364 12.5807 8.53546 12.5768 8.38752 12.7247L6.41465 14.6976C6.37946 14.7327 6.35155 14.7745 6.3325 14.8204C6.31345 14.8664 6.30365 14.9156 6.30365 14.9654C6.30365 15.0151 6.31345 15.0644 6.3325 15.1103C6.35155 15.1563 6.37946 15.198 6.41465 15.2332L10.7097 19.528C10.7471 19.5653 10.7902 19.5972 10.8392 19.617C10.9084 19.6453 10.9844 19.6526 11.0578 19.6379C11.1311 19.6232 11.1985 19.5872 11.2514 19.5343L13.2243 17.5615C13.3704 17.415 13.3722 17.1787 13.2285 17.0301C13.1784 16.9785 13.1374 16.9199 13.1058 16.8539C12.9168 16.4669 13.0651 15.9161 13.4664 15.5151C13.8644 15.1171 14.4304 14.9664 14.8122 15.1566C14.8748 15.1879 14.9319 15.2283 14.9824 15.2769C15.0537 15.3459 15.1493 15.3842 15.2486 15.3834C15.3479 15.3826 15.4429 15.3428 15.5131 15.2727L16.086 14.6997L17.3128 15.9261C17.1627 16.2087 17.2065 16.5684 17.444 16.8059L17.7335 17.0954L12.3108 22.5182C12.2398 22.5893 12.1999 22.6856 12.1999 22.786C12.2 22.8864 12.2399 22.9827 12.3109 23.0537C12.3819 23.1247 12.4782 23.1645 12.5787 23.1645C12.6791 23.1645 12.7754 23.1245 12.8464 23.0535L18.2691 17.6307L18.61 17.9719L15.7835 20.7987C15.6118 20.9713 15.5155 21.2048 15.5155 21.4482C15.5156 21.6916 15.612 21.925 15.7838 22.0975L16.302 22.6151C16.4813 22.7944 16.7161 22.8837 16.9513 22.8837C17.1864 22.8837 17.4212 22.7941 17.6002 22.6151L20.4267 19.7889L20.7679 20.1298L14.3574 26.5408C13.6666 27.2313 12.5438 27.2326 11.8551 26.5436C11.6903 26.3798 11.5597 26.1849 11.4708 25.9703C11.382 25.7556 11.3368 25.5254 11.3377 25.2931C11.3375 25.0605 11.3834 24.8301 11.4726 24.6153C11.5619 24.4005 11.6928 24.2055 11.8578 24.0415L12.9329 22.9666C13.004 22.8957 13.0439 22.7994 13.0439 22.6989C13.0439 22.5985 13.0041 22.5022 12.9331 22.4312C12.8621 22.3602 12.7658 22.3203 12.6654 22.3202C12.565 22.3202 12.4687 22.3601 12.3976 22.431L11.3222 23.5059C11.0868 23.7399 10.9 24.0183 10.7727 24.3249C10.6454 24.6315 10.58 24.9602 10.5803 25.2922C10.5791 25.6241 10.6438 25.953 10.7707 26.2597C10.8977 26.5665 11.0843 26.8449 11.3198 27.0788C11.5538 27.3133 11.832 27.4991 12.1381 27.6257C12.4442 27.7523 12.7724 27.8171 13.1037 27.8165C13.436 27.817 13.7651 27.7518 14.0721 27.6248C14.3792 27.4978 14.6582 27.3115 14.893 27.0764L21.3026 20.6663L21.3035 20.6654L27.4147 26.7769C27.6572 27.0189 27.9451 27.2108 28.2619 27.3416C28.5787 27.4723 28.9181 27.5393 29.2608 27.5388C29.8939 27.5388 30.524 27.3094 31.0077 26.8483C31.2547 26.6141 31.4519 26.3325 31.5876 26.0204C31.7233 25.7082 31.7947 25.3719 31.7975 25.0315C31.8028 24.6914 31.7395 24.3537 31.6114 24.0386C31.4832 23.7235 31.2929 23.4374 31.0517 23.1975L24.912 17.0578L24.9117 17.0575ZM17.1846 6.65849C18.7431 5.10031 21.0458 4.64887 23.0023 5.4515C21.1169 6.47469 19.2987 8.18112 18.3855 9.50203L16.3643 7.47874L17.1846 6.65849V6.65849ZM10.9838 18.7314L7.21789 14.9652L8.65516 13.5277L12.421 17.2941L10.9838 18.7314ZM12.9308 14.9795C12.6051 15.3052 12.3931 15.7068 12.3101 16.1121L9.84422 13.6461C10.2461 13.5635 10.6441 13.3505 10.9728 13.0218C11.3319 12.6624 11.5531 12.2128 11.6157 11.7678L14.1852 14.3373C13.7398 14.3995 13.2896 14.6207 12.9305 14.9795H12.9308ZM15.3168 14.398L11.5513 10.6319L14.7156 7.4672C14.7916 7.39155 14.8918 7.34993 14.9991 7.34993C15.1063 7.34993 15.2072 7.39185 15.2828 7.4675L18.48 10.6683C18.5559 10.744 18.5972 10.8445 18.5972 10.9514C18.5972 11.0587 18.5556 11.1592 18.48 11.2349L15.3168 14.398ZM16.6216 14.1641L18.4104 12.3757L19.6134 13.5787L17.825 15.3674L16.6216 14.1644V14.1641ZM17.0649 22.0799C17.0347 22.11 16.9938 22.1269 16.9511 22.1269C16.9084 22.1269 16.8675 22.11 16.8373 22.0799L16.3194 21.5622C16.2892 21.5319 16.2723 21.4909 16.2722 21.4482C16.2721 21.4054 16.289 21.3644 16.3191 21.334L19.1456 18.5075L19.8911 19.2533L17.0649 22.0799V22.0799ZM30.4851 26.3005C29.7864 26.9667 28.6493 26.9403 27.9502 26.2413L17.986 16.277L20.5233 13.74L30.5161 23.7328C30.6857 23.9015 30.8196 24.1027 30.9097 24.3244C30.9998 24.546 31.0443 24.7835 31.0405 25.0227C31.0385 25.2621 30.9884 25.4986 30.8929 25.7182C30.7975 25.9377 30.6588 26.1358 30.4851 26.3005V26.3005Z" stroke="#E5550E" stroke-width="0.2" mask="url(#path-1-outside-1_214_705)"/>
</svg>
