<svg width="39" height="32" viewBox="0 0 39 32" fill="none" xmlns="http://www.w3.org/2000/svg">
<g clip-path="url(#clip0_214_708)">
<path d="M30.4505 24.7995L24.1938 18.5421C25.2124 17.0115 25.754 15.2131 25.75 13.3745C25.75 8.20537 21.5443 4 16.3748 4C11.2054 4 7 8.20568 7 13.3752C7 18.5446 11.2057 22.75 16.3752 22.75C18.2292 22.75 20.0071 22.2132 21.5424 21.1938L23.272 22.9234L23.2726 22.924L27.7992 27.4505C27.9728 27.6252 28.1794 27.7637 28.407 27.858C28.6345 27.9524 28.8785 28.0006 29.1248 28C29.3712 28.0006 29.6152 27.9524 29.8427 27.8581C30.0703 27.7638 30.2769 27.6252 30.4505 27.4505C30.6252 27.2769 30.7637 27.0704 30.8581 26.8429C30.9524 26.6154 31.0006 26.3714 31 26.1252C31.0006 25.8789 30.9524 25.6349 30.8581 25.4074C30.7637 25.1799 30.6252 24.9734 30.4505 24.7998V24.7995ZM21.322 20.206C19.8856 21.2536 18.1527 21.8163 16.3748 21.8124C11.7229 21.8124 7.93789 18.0274 7.93789 13.3752C7.93789 8.72263 11.7229 4.93726 16.3752 4.93726C21.0277 4.93726 24.8131 8.72263 24.8131 13.3752C24.8167 15.1529 24.2539 16.8857 23.2063 18.322C22.6815 19.0454 22.0457 19.6812 21.3223 20.206H21.322ZM22.3054 20.6311C22.7903 20.2344 23.2344 19.7903 23.6311 19.3054L24.9605 20.6355C24.5559 21.113 24.1127 21.5563 23.6352 21.9608L22.3057 20.6311H22.3054ZM29.7877 26.7874C29.7009 26.8747 29.5976 26.944 29.4838 26.9911C29.37 27.0383 29.248 27.0624 29.1248 27.0621C29.0017 27.0624 28.8798 27.0382 28.7661 26.9911C28.6524 26.9439 28.5491 26.8747 28.4623 26.7874L24.3002 22.6253C24.775 22.2177 25.2181 21.7745 25.6256 21.2996L29.7877 25.462C29.9648 25.6388 30.0624 25.8741 30.0624 26.1248C30.0624 26.3753 29.9648 26.6102 29.7877 26.7874Z" fill="#E5550E"/>
<path d="M16.3752 5.87512C12.2396 5.87512 8.87518 9.23954 8.87518 13.3751C8.87518 17.5104 12.2396 20.8751 16.3752 20.8751C20.5104 20.8751 23.8752 17.5104 23.8752 13.3751C23.8752 9.23954 20.5104 5.87512 16.3752 5.87512V5.87512ZM16.3752 19.9372C12.7562 19.9372 9.81245 16.9934 9.81245 13.3751C9.81245 9.75617 12.7566 6.81239 16.3752 6.81239C19.9935 6.81239 22.9373 9.75649 22.9373 13.3751C22.9373 16.9934 19.9935 19.9372 16.3752 19.9372V19.9372Z" fill="#E5550E"/>
<path d="M21.628 11.363C21.2253 10.3134 20.5174 9.40864 19.5956 8.76527C18.6525 8.10262 17.5275 7.74798 16.3749 7.75001C16.2526 7.75318 16.1365 7.80396 16.0512 7.89153C15.9658 7.9791 15.9181 8.09653 15.9181 8.2188C15.9181 8.34106 15.9658 8.45849 16.0512 8.54606C16.1365 8.63363 16.2526 8.68442 16.3749 8.68759C18.3015 8.68759 20.0608 9.89769 20.753 11.699C20.7735 11.7584 20.8058 11.8132 20.8479 11.8599C20.8901 11.9067 20.9412 11.9445 20.9983 11.9711C21.0553 11.9976 21.1171 12.0124 21.18 12.0146C21.2429 12.0168 21.3056 12.0063 21.3644 11.9837C21.4231 11.9612 21.4767 11.927 21.522 11.8833C21.5673 11.8396 21.6033 11.7872 21.6279 11.7293C21.6525 11.6714 21.6652 11.6091 21.6652 11.5461C21.6652 11.4832 21.6526 11.4209 21.628 11.363V11.363Z" fill="#E5550E"/>
</g>
<defs>
<clipPath id="clip0_214_708">
<rect width="24" height="24" fill="white" transform="translate(7 4)"/>
</clipPath>
</defs>
</svg>
