<svg width="28" height="32" viewBox="0 0 28 32" fill="none" xmlns="http://www.w3.org/2000/svg">
<g clip-path="url(#clip0_214_641)">
<mask id="path-1-outside-1_214_641" maskUnits="userSpaceOnUse" x="1.00024" y="3" width="26" height="26" fill="black">
<rect fill="white" x="1.00024" y="3" width="26" height="26"/>
<path fill-rule="evenodd" clip-rule="evenodd" d="M17.609 6.18743C17.9787 6.23226 18.3182 6.10251 18.5933 5.93266C18.8683 5.76308 19.1136 5.53257 19.3135 5.31235C19.3544 5.55156 19.4219 5.81081 19.5366 6.03947C19.668 6.30163 19.8848 6.568 20.2347 6.67244C20.5736 6.77319 20.9526 6.69064 21.2211 6.60387C21.2216 6.64712 21.223 6.69143 21.2248 6.73679C21.2422 7.14347 21.3171 7.73029 21.631 8.13169C21.8667 8.43341 22.2075 8.5964 22.5356 8.68527C22.7645 8.74725 23.005 8.77811 23.2361 8.79024C23.1875 8.83771 23.1401 8.88677 23.0944 8.93767C22.9122 9.14022 22.7413 9.38787 22.659 9.67138L22.6556 9.68299C22.5282 10.1211 22.3887 10.6013 22.6899 11.1644C22.7598 11.2949 22.861 11.411 22.9644 11.5083L22.9628 11.5094C22.6471 11.6887 22.2096 11.9841 21.9931 12.3844C21.8129 12.7181 21.7998 13.0913 21.8485 13.4238C21.8979 13.7588 22.0152 14.0905 22.1416 14.3746L22.1442 14.3807C21.9794 14.3369 21.8037 14.3015 21.6267 14.2857C21.3572 14.2612 21.0544 14.2786 20.7788 14.4065C20.3977 14.584 20.0973 14.9646 19.9127 15.2381C19.8908 15.2705 19.87 15.3024 19.8502 15.3335C19.8353 15.3212 19.8204 15.3088 19.8054 15.2966C19.5685 15.1067 19.2067 14.8535 18.8325 14.7765C18.3533 14.6782 17.9379 14.8752 17.6211 15.1397C17.3898 15.3327 17.1875 15.5801 17.0153 15.8341C17.0094 15.8043 17.003 15.7746 16.9961 15.745C16.9249 15.4382 16.7893 15.1146 16.5303 14.8741C16.323 14.6816 16.0616 14.5661 15.8156 14.4943C15.5661 14.421 15.3055 14.3849 15.0761 14.3677C14.9381 14.3575 14.7998 14.3525 14.6615 14.353C14.658 14.2833 14.6536 14.2079 14.6462 14.1288C14.6153 13.7873 14.5354 13.2991 14.2954 12.9473C14.0778 12.6292 13.7466 12.4414 13.4219 12.3285C13.1178 12.2225 12.7882 12.1713 12.4878 12.1481C12.5898 12.0482 12.6895 11.9398 12.7802 11.8243C12.949 11.6091 13.1023 11.348 13.1605 11.0549C13.2231 10.7403 13.107 10.4246 12.9807 10.1825C12.8472 9.92668 12.661 9.67508 12.4814 9.45987C12.459 9.43305 12.4364 9.40642 12.4136 9.37996H12.4326L12.4891 9.36281L12.3738 8.98435L12.4893 9.36281H12.4896L12.4907 9.36229L12.4936 9.36149L12.5036 9.35833C12.5558 9.34173 12.6077 9.32415 12.6592 9.30558C12.7597 9.27024 12.8981 9.21802 13.049 9.15156C13.3312 9.02734 13.7305 8.82347 13.97 8.54418C14.336 8.11719 14.3344 7.59789 14.2002 7.14426C14.1555 6.99618 14.0991 6.8519 14.0314 6.71279L14.0409 6.71569C14.4529 6.84229 14.9242 6.87525 15.3543 6.64026C15.7736 6.41134 16.0936 5.95349 16.2922 5.61644C16.318 5.5724 16.3423 5.52941 16.3657 5.48721C16.3911 5.51147 16.4177 5.53574 16.4449 5.56026C16.716 5.80422 17.1445 6.13152 17.609 6.18743V6.18743ZM20.0449 4.22971V4.22734H20.0443L19.309 4.00053V4L19.3074 4.00264L19.3006 4.01424L19.2705 4.06251C19.1114 4.31535 18.9311 4.55419 18.7314 4.77644C18.5574 4.96897 18.3675 5.14251 18.1781 5.25908C17.9867 5.37749 17.8295 5.41732 17.7042 5.40202C17.5038 5.37776 17.2347 5.20686 16.9744 4.97213C16.8322 4.84342 16.699 4.70498 16.5759 4.5578L16.5712 4.552L16.5707 4.55147V4.55121L16.1468 4.02031L15.8936 4.65037V4.65064L15.8934 4.65169L15.8902 4.65908C15.8685 4.71156 15.8454 4.76345 15.8209 4.81468C15.7715 4.91965 15.6995 5.06259 15.6101 5.21477C15.4194 5.53837 15.1911 5.82796 14.9748 5.94585C14.8015 6.04079 14.5721 6.05134 14.273 5.95956C13.9736 5.86752 13.6519 5.68607 13.3449 5.46954C13.1395 5.32339 12.9421 5.16633 12.7536 4.99903C12.597 4.83779 12.4355 4.68149 12.2691 4.53037L12.2449 4.50848L12.238 4.50268L12.2359 4.50084L12.2354 4.50031C12.2351 4.50004 12.2351 4.50004 11.9751 4.79807L12.2351 4.50004L11.6839 5.06602L11.9751 4.79807L11.6839 5.06602H11.6842L11.6847 5.06681L11.6863 5.0684L11.6915 5.0742C11.7205 5.1055 11.7501 5.13627 11.7802 5.16651C11.9174 5.30626 12.0595 5.4412 12.2061 5.57108C12.4448 5.81657 12.6684 6.0763 12.8757 6.34884C13.1381 6.69829 13.3483 7.05433 13.4414 7.3687C13.5324 7.67727 13.496 7.88114 13.3692 8.0291C13.2565 8.16018 13.0078 8.30523 12.7301 8.42734C12.5931 8.48738 12.4534 8.54123 12.3116 8.58875H10.4375L11.2134 9.27974H11.2136L11.2163 9.28211L11.2263 9.29134L11.2682 9.33011C11.483 9.52994 11.6853 9.74273 11.874 9.9673C12.036 10.1614 12.1826 10.3637 12.2789 10.5483C12.3823 10.7466 12.3925 10.8585 12.3844 10.9007C12.3593 11.0262 12.2842 11.1739 12.1573 11.3361C12.032 11.4956 11.8725 11.6489 11.7089 11.7852C11.5144 11.9464 11.308 12.0927 11.0915 12.223L11.0828 12.228L11.0813 12.2288L11.0815 12.2294L11.3318 12.9636V12.9644L11.335 12.9639L11.3495 12.962L11.4101 12.9552C11.7289 12.9211 12.0499 12.9137 12.3699 12.933C12.6486 12.9509 12.9271 12.9942 13.1616 13.0757C13.3984 13.1582 13.5554 13.2674 13.6416 13.3938C13.759 13.5652 13.8289 13.8743 13.8579 14.1997C13.8736 14.3781 13.8785 14.5572 13.8726 14.7362V14.7438H13.8724V14.7441L13.8473 15.2051L14.3065 15.1589H14.3083L14.3176 15.1579L14.3571 15.155C14.5766 15.1401 14.7968 15.1406 15.0162 15.1566C15.2122 15.1713 15.4139 15.2011 15.5927 15.2534C15.775 15.3069 15.9082 15.3763 15.9918 15.4538C16.092 15.5469 16.1735 15.7017 16.2252 15.9246C16.2766 16.1445 16.2911 16.3982 16.2842 16.6491C16.2746 16.9526 16.239 17.2549 16.1777 17.5524L16.1751 17.5647L16.1743 17.5674L16.1766 17.5679L16.933 17.781L16.9349 17.7818L16.9351 17.781L16.9367 17.7765L16.9388 17.7702L16.9438 17.7562C16.9889 17.6304 17.0373 17.5058 17.0889 17.3825C17.191 17.1388 17.3379 16.8207 17.5204 16.5143C17.705 16.2031 17.9125 15.9269 18.128 15.7468C18.3414 15.5688 18.5176 15.5195 18.6732 15.5516C18.8488 15.5875 19.0849 15.7331 19.3088 15.9132C19.4307 16.0116 19.5469 16.1168 19.6569 16.2284L19.6606 16.2326L19.6611 16.2329V16.2331L20.0583 16.6538L20.3062 16.1313V16.1311L20.3065 16.1303L20.3091 16.1245L20.322 16.0992C20.3957 15.955 20.478 15.8153 20.5684 15.6809C20.744 15.4206 20.9421 15.2033 21.1122 15.1241C21.214 15.0767 21.3614 15.0561 21.5553 15.0735C21.7457 15.0909 21.9522 15.1421 22.1495 15.2083C22.3856 15.2882 22.6149 15.387 22.8352 15.5036L22.8439 15.5084L22.8452 15.5092H22.8455L22.8457 15.5087L23.36 14.934H23.3603V14.9337L23.3584 14.9311L23.3505 14.9195C23.2975 14.8419 23.2465 14.7629 23.1976 14.6826C23.0733 14.4802 22.962 14.27 22.8645 14.0534C22.754 13.8049 22.6659 13.5462 22.6311 13.3088C22.596 13.0688 22.62 12.8882 22.6891 12.7605C22.7909 12.572 23.0512 12.3689 23.3534 12.1972C23.5104 12.1085 23.6726 12.0295 23.8392 11.9606L23.8532 11.9551L23.869 11.9487L23.8754 11.9461L23.8764 11.9458H23.8767L24.6924 11.637L23.9228 11.2269H23.9226L23.9202 11.2256L23.917 11.2237L23.9073 11.2185C23.8296 11.1743 23.7542 11.1261 23.6815 11.0742C23.5349 10.9687 23.4262 10.8635 23.3874 10.7912C23.2506 10.5354 23.2862 10.3481 23.4186 9.89187C23.4552 9.7658 23.5433 9.62127 23.6823 9.46673C23.8192 9.31481 23.9882 9.17134 24.1597 9.04554C24.3629 8.89697 24.5766 8.76343 24.7992 8.64598L24.8082 8.64149L24.8098 8.6407L24.8093 8.63991L24.5505 7.90066V7.89987H24.5503L24.5471 7.9004L24.5331 7.9033C24.4393 7.92141 24.345 7.93707 24.2504 7.95024C24.0605 7.97662 23.8031 8.00299 23.5299 8.00563C23.254 8.00774 22.9773 7.98505 22.7421 7.92123C22.5045 7.85714 22.3452 7.76088 22.2539 7.64431C22.1062 7.45574 22.0318 7.09574 22.015 6.70277C22.0063 6.48578 22.0129 6.26845 22.0347 6.0524L22.0355 6.04422V6.0429H22.0358V6.04264L22.1323 5.26646L21.4503 5.64888H21.4498L21.4453 5.65152C21.4105 5.67013 21.3754 5.68799 21.3398 5.70505C21.266 5.7404 21.1636 5.78576 21.0492 5.82637C20.7939 5.91763 20.5773 5.94875 20.4602 5.91393C20.3975 5.89547 20.3205 5.83877 20.2437 5.68501C20.1664 5.53125 20.1132 5.32422 20.0805 5.09767C20.0527 4.89648 20.0386 4.69364 20.0383 4.49055C20.0378 4.4077 20.0396 4.32486 20.0435 4.24211L20.0443 4.22971H20.0449ZM17.9561 12.18C19.0875 12.18 19.9554 11.3026 19.9554 10.2801C19.9554 9.25758 19.0878 8.38013 17.9558 8.38013C16.8241 8.38013 15.9562 9.25758 15.9562 10.2801C15.9562 11.3026 16.8241 12.18 17.9558 12.18H17.9561ZM17.9561 12.9713C19.4971 12.9713 20.7467 11.7662 20.7467 10.2801C20.7467 8.79367 19.4971 7.58892 17.9558 7.58892C16.4145 7.58892 15.1649 8.79367 15.1649 10.2801C15.1649 11.7662 16.4145 12.9713 17.9558 12.9713H17.9561ZM2.82947 15.683C2.81951 15.6615 2.81019 15.6397 2.80151 15.6176C2.80046 15.5611 2.79782 15.5102 2.79545 15.4686V15.4675L2.79202 15.4047C2.80758 15.4013 2.82604 15.3976 2.84793 15.3942C2.97927 15.3731 3.18393 15.3602 3.50279 15.3602H3.50147H3.50173L3.50252 15.3604C3.50806 15.3615 3.54024 15.3673 3.60538 15.4008C3.68107 15.4396 3.7776 15.5029 3.89444 15.596C4.12811 15.7811 4.40872 16.0556 4.72283 16.3996C5.34921 17.0853 6.07158 18.0068 6.76046 18.9378C6.86332 19.0765 6.96512 19.2152 7.0656 19.3534H5.01505C4.54186 18.6025 4.07616 17.8468 3.61804 17.0866C3.35721 16.6514 3.14279 16.2814 2.99431 16.0069C2.93581 15.9007 2.88084 15.7927 2.82947 15.683V15.683ZM4.30323 19.7076V27.8225H5.09444V20.9609C5.92066 22.2621 6.75373 23.559 7.5936 24.8515L7.64055 24.9235L7.65241 24.942L7.65558 24.9465L7.65637 24.9478V24.948L7.98815 24.7323L7.65663 24.9483L7.77347 25.1279H14.844C15.1251 25.9582 15.349 26.8485 15.5756 27.9051L16.3491 27.7392C16.1418 26.7713 15.9332 25.9249 15.6771 25.1279H19.5506V24.3367H15.4005C15.1999 23.8082 14.969 23.2918 14.7089 22.7899L20.494 22.7371L25.3626 27.2162L25.8982 26.6341L20.9147 22.0491L20.7994 21.9433L20.6433 21.9446L14.2743 22.0026C13.9314 21.4174 13.5306 20.8082 13.0545 20.1444H14.3674V19.3531H8.04169C7.83387 19.0628 7.61734 18.765 7.39685 18.467C6.7027 17.5289 5.96134 16.5815 5.30727 15.8658C4.98129 15.5087 4.66798 15.199 4.38657 14.9756C4.24573 14.8641 4.10437 14.767 3.96617 14.6961C3.83272 14.6278 3.6729 14.5687 3.50305 14.5687C3.17391 14.5687 2.91756 14.5811 2.72187 14.6127C2.53646 14.6428 2.33602 14.6998 2.18912 14.8467C2.02481 15.0113 2.00239 15.2104 2.00028 15.3359C1.99996 15.3916 2.00163 15.4473 2.00529 15.5029L2.00556 15.5108C2.00846 15.5646 2.01083 15.612 2.01083 15.6622C2.01083 15.7479 2.03615 15.8246 2.04828 15.86C2.06463 15.9074 2.086 15.9586 2.10894 16.0095C2.15562 16.1121 2.2205 16.2389 2.29857 16.3832C2.45523 16.6728 2.67677 17.0544 2.93945 17.4927C3.38685 18.2354 3.84155 18.9736 4.30349 19.7073L4.30323 19.7076ZM7.63369 20.1446H5.51378L5.53145 20.1728C6.41391 21.566 7.30448 22.9539 8.2031 24.3367H14.5507C14.4933 24.1948 14.4335 24.0539 14.3714 23.9139C14.2025 23.5341 14.0174 23.1617 13.8165 22.7978L9.68635 22.8355L9.47009 22.8374L9.3514 22.6562L9.68266 22.4399L9.35167 22.6562H9.3514L9.35088 22.6551L9.34824 22.6512L9.33795 22.6353C9.08572 22.2532 8.83059 21.873 8.57259 21.4947C8.26371 21.0418 7.95082 20.5917 7.63395 20.1444L7.63369 20.1446ZM13.3552 22.0111L9.89444 22.0427L9.79949 21.8998C9.40692 21.3101 9.00751 20.725 8.60134 20.1446H12.0753C12.578 20.8232 12.9981 21.4351 13.3552 22.0111Z"/>
</mask>
<path fill-rule="evenodd" clip-rule="evenodd" d="M17.609 6.18743C17.9787 6.23226 18.3182 6.10251 18.5933 5.93266C18.8683 5.76308 19.1136 5.53257 19.3135 5.31235C19.3544 5.55156 19.4219 5.81081 19.5366 6.03947C19.668 6.30163 19.8848 6.568 20.2347 6.67244C20.5736 6.77319 20.9526 6.69064 21.2211 6.60387C21.2216 6.64712 21.223 6.69143 21.2248 6.73679C21.2422 7.14347 21.3171 7.73029 21.631 8.13169C21.8667 8.43341 22.2075 8.5964 22.5356 8.68527C22.7645 8.74725 23.005 8.77811 23.2361 8.79024C23.1875 8.83771 23.1401 8.88677 23.0944 8.93767C22.9122 9.14022 22.7413 9.38787 22.659 9.67138L22.6556 9.68299C22.5282 10.1211 22.3887 10.6013 22.6899 11.1644C22.7598 11.2949 22.861 11.411 22.9644 11.5083L22.9628 11.5094C22.6471 11.6887 22.2096 11.9841 21.9931 12.3844C21.8129 12.7181 21.7998 13.0913 21.8485 13.4238C21.8979 13.7588 22.0152 14.0905 22.1416 14.3746L22.1442 14.3807C21.9794 14.3369 21.8037 14.3015 21.6267 14.2857C21.3572 14.2612 21.0544 14.2786 20.7788 14.4065C20.3977 14.584 20.0973 14.9646 19.9127 15.2381C19.8908 15.2705 19.87 15.3024 19.8502 15.3335C19.8353 15.3212 19.8204 15.3088 19.8054 15.2966C19.5685 15.1067 19.2067 14.8535 18.8325 14.7765C18.3533 14.6782 17.9379 14.8752 17.6211 15.1397C17.3898 15.3327 17.1875 15.5801 17.0153 15.8341C17.0094 15.8043 17.003 15.7746 16.9961 15.745C16.9249 15.4382 16.7893 15.1146 16.5303 14.8741C16.323 14.6816 16.0616 14.5661 15.8156 14.4943C15.5661 14.421 15.3055 14.3849 15.0761 14.3677C14.9381 14.3575 14.7998 14.3525 14.6615 14.353C14.658 14.2833 14.6536 14.2079 14.6462 14.1288C14.6153 13.7873 14.5354 13.2991 14.2954 12.9473C14.0778 12.6292 13.7466 12.4414 13.4219 12.3285C13.1178 12.2225 12.7882 12.1713 12.4878 12.1481C12.5898 12.0482 12.6895 11.9398 12.7802 11.8243C12.949 11.6091 13.1023 11.348 13.1605 11.0549C13.2231 10.7403 13.107 10.4246 12.9807 10.1825C12.8472 9.92668 12.661 9.67508 12.4814 9.45987C12.459 9.43305 12.4364 9.40642 12.4136 9.37996H12.4326L12.4891 9.36281L12.3738 8.98435L12.4893 9.36281H12.4896L12.4907 9.36229L12.4936 9.36149L12.5036 9.35833C12.5558 9.34173 12.6077 9.32415 12.6592 9.30558C12.7597 9.27024 12.8981 9.21802 13.049 9.15156C13.3312 9.02734 13.7305 8.82347 13.97 8.54418C14.336 8.11719 14.3344 7.59789 14.2002 7.14426C14.1555 6.99618 14.0991 6.8519 14.0314 6.71279L14.0409 6.71569C14.4529 6.84229 14.9242 6.87525 15.3543 6.64026C15.7736 6.41134 16.0936 5.95349 16.2922 5.61644C16.318 5.5724 16.3423 5.52941 16.3657 5.48721C16.3911 5.51147 16.4177 5.53574 16.4449 5.56026C16.716 5.80422 17.1445 6.13152 17.609 6.18743V6.18743ZM20.0449 4.22971V4.22734H20.0443L19.309 4.00053V4L19.3074 4.00264L19.3006 4.01424L19.2705 4.06251C19.1114 4.31535 18.9311 4.55419 18.7314 4.77644C18.5574 4.96897 18.3675 5.14251 18.1781 5.25908C17.9867 5.37749 17.8295 5.41732 17.7042 5.40202C17.5038 5.37776 17.2347 5.20686 16.9744 4.97213C16.8322 4.84342 16.699 4.70498 16.5759 4.5578L16.5712 4.552L16.5707 4.55147V4.55121L16.1468 4.02031L15.8936 4.65037V4.65064L15.8934 4.65169L15.8902 4.65908C15.8685 4.71156 15.8454 4.76345 15.8209 4.81468C15.7715 4.91965 15.6995 5.06259 15.6101 5.21477C15.4194 5.53837 15.1911 5.82796 14.9748 5.94585C14.8015 6.04079 14.5721 6.05134 14.273 5.95956C13.9736 5.86752 13.6519 5.68607 13.3449 5.46954C13.1395 5.32339 12.9421 5.16633 12.7536 4.99903C12.597 4.83779 12.4355 4.68149 12.2691 4.53037L12.2449 4.50848L12.238 4.50268L12.2359 4.50084L12.2354 4.50031C12.2351 4.50004 12.2351 4.50004 11.9751 4.79807L12.2351 4.50004L11.6839 5.06602L11.9751 4.79807L11.6839 5.06602H11.6842L11.6847 5.06681L11.6863 5.0684L11.6915 5.0742C11.7205 5.1055 11.7501 5.13627 11.7802 5.16651C11.9174 5.30626 12.0595 5.4412 12.2061 5.57108C12.4448 5.81657 12.6684 6.0763 12.8757 6.34884C13.1381 6.69829 13.3483 7.05433 13.4414 7.3687C13.5324 7.67727 13.496 7.88114 13.3692 8.0291C13.2565 8.16018 13.0078 8.30523 12.7301 8.42734C12.5931 8.48738 12.4534 8.54123 12.3116 8.58875H10.4375L11.2134 9.27974H11.2136L11.2163 9.28211L11.2263 9.29134L11.2682 9.33011C11.483 9.52994 11.6853 9.74273 11.874 9.9673C12.036 10.1614 12.1826 10.3637 12.2789 10.5483C12.3823 10.7466 12.3925 10.8585 12.3844 10.9007C12.3593 11.0262 12.2842 11.1739 12.1573 11.3361C12.032 11.4956 11.8725 11.6489 11.7089 11.7852C11.5144 11.9464 11.308 12.0927 11.0915 12.223L11.0828 12.228L11.0813 12.2288L11.0815 12.2294L11.3318 12.9636V12.9644L11.335 12.9639L11.3495 12.962L11.4101 12.9552C11.7289 12.9211 12.0499 12.9137 12.3699 12.933C12.6486 12.9509 12.9271 12.9942 13.1616 13.0757C13.3984 13.1582 13.5554 13.2674 13.6416 13.3938C13.759 13.5652 13.8289 13.8743 13.8579 14.1997C13.8736 14.3781 13.8785 14.5572 13.8726 14.7362V14.7438H13.8724V14.7441L13.8473 15.2051L14.3065 15.1589H14.3083L14.3176 15.1579L14.3571 15.155C14.5766 15.1401 14.7968 15.1406 15.0162 15.1566C15.2122 15.1713 15.4139 15.2011 15.5927 15.2534C15.775 15.3069 15.9082 15.3763 15.9918 15.4538C16.092 15.5469 16.1735 15.7017 16.2252 15.9246C16.2766 16.1445 16.2911 16.3982 16.2842 16.6491C16.2746 16.9526 16.239 17.2549 16.1777 17.5524L16.1751 17.5647L16.1743 17.5674L16.1766 17.5679L16.933 17.781L16.9349 17.7818L16.9351 17.781L16.9367 17.7765L16.9388 17.7702L16.9438 17.7562C16.9889 17.6304 17.0373 17.5058 17.0889 17.3825C17.191 17.1388 17.3379 16.8207 17.5204 16.5143C17.705 16.2031 17.9125 15.9269 18.128 15.7468C18.3414 15.5688 18.5176 15.5195 18.6732 15.5516C18.8488 15.5875 19.0849 15.7331 19.3088 15.9132C19.4307 16.0116 19.5469 16.1168 19.6569 16.2284L19.6606 16.2326L19.6611 16.2329V16.2331L20.0583 16.6538L20.3062 16.1313V16.1311L20.3065 16.1303L20.3091 16.1245L20.322 16.0992C20.3957 15.955 20.478 15.8153 20.5684 15.6809C20.744 15.4206 20.9421 15.2033 21.1122 15.1241C21.214 15.0767 21.3614 15.0561 21.5553 15.0735C21.7457 15.0909 21.9522 15.1421 22.1495 15.2083C22.3856 15.2882 22.6149 15.387 22.8352 15.5036L22.8439 15.5084L22.8452 15.5092H22.8455L22.8457 15.5087L23.36 14.934H23.3603V14.9337L23.3584 14.9311L23.3505 14.9195C23.2975 14.8419 23.2465 14.7629 23.1976 14.6826C23.0733 14.4802 22.962 14.27 22.8645 14.0534C22.754 13.8049 22.6659 13.5462 22.6311 13.3088C22.596 13.0688 22.62 12.8882 22.6891 12.7605C22.7909 12.572 23.0512 12.3689 23.3534 12.1972C23.5104 12.1085 23.6726 12.0295 23.8392 11.9606L23.8532 11.9551L23.869 11.9487L23.8754 11.9461L23.8764 11.9458H23.8767L24.6924 11.637L23.9228 11.2269H23.9226L23.9202 11.2256L23.917 11.2237L23.9073 11.2185C23.8296 11.1743 23.7542 11.1261 23.6815 11.0742C23.5349 10.9687 23.4262 10.8635 23.3874 10.7912C23.2506 10.5354 23.2862 10.3481 23.4186 9.89187C23.4552 9.7658 23.5433 9.62127 23.6823 9.46673C23.8192 9.31481 23.9882 9.17134 24.1597 9.04554C24.3629 8.89697 24.5766 8.76343 24.7992 8.64598L24.8082 8.64149L24.8098 8.6407L24.8093 8.63991L24.5505 7.90066V7.89987H24.5503L24.5471 7.9004L24.5331 7.9033C24.4393 7.92141 24.345 7.93707 24.2504 7.95024C24.0605 7.97662 23.8031 8.00299 23.5299 8.00563C23.254 8.00774 22.9773 7.98505 22.7421 7.92123C22.5045 7.85714 22.3452 7.76088 22.2539 7.64431C22.1062 7.45574 22.0318 7.09574 22.015 6.70277C22.0063 6.48578 22.0129 6.26845 22.0347 6.0524L22.0355 6.04422V6.0429H22.0358V6.04264L22.1323 5.26646L21.4503 5.64888H21.4498L21.4453 5.65152C21.4105 5.67013 21.3754 5.68799 21.3398 5.70505C21.266 5.7404 21.1636 5.78576 21.0492 5.82637C20.7939 5.91763 20.5773 5.94875 20.4602 5.91393C20.3975 5.89547 20.3205 5.83877 20.2437 5.68501C20.1664 5.53125 20.1132 5.32422 20.0805 5.09767C20.0527 4.89648 20.0386 4.69364 20.0383 4.49055C20.0378 4.4077 20.0396 4.32486 20.0435 4.24211L20.0443 4.22971H20.0449ZM17.9561 12.18C19.0875 12.18 19.9554 11.3026 19.9554 10.2801C19.9554 9.25758 19.0878 8.38013 17.9558 8.38013C16.8241 8.38013 15.9562 9.25758 15.9562 10.2801C15.9562 11.3026 16.8241 12.18 17.9558 12.18H17.9561ZM17.9561 12.9713C19.4971 12.9713 20.7467 11.7662 20.7467 10.2801C20.7467 8.79367 19.4971 7.58892 17.9558 7.58892C16.4145 7.58892 15.1649 8.79367 15.1649 10.2801C15.1649 11.7662 16.4145 12.9713 17.9558 12.9713H17.9561ZM2.82947 15.683C2.81951 15.6615 2.81019 15.6397 2.80151 15.6176C2.80046 15.5611 2.79782 15.5102 2.79545 15.4686V15.4675L2.79202 15.4047C2.80758 15.4013 2.82604 15.3976 2.84793 15.3942C2.97927 15.3731 3.18393 15.3602 3.50279 15.3602H3.50147H3.50173L3.50252 15.3604C3.50806 15.3615 3.54024 15.3673 3.60538 15.4008C3.68107 15.4396 3.7776 15.5029 3.89444 15.596C4.12811 15.7811 4.40872 16.0556 4.72283 16.3996C5.34921 17.0853 6.07158 18.0068 6.76046 18.9378C6.86332 19.0765 6.96512 19.2152 7.0656 19.3534H5.01505C4.54186 18.6025 4.07616 17.8468 3.61804 17.0866C3.35721 16.6514 3.14279 16.2814 2.99431 16.0069C2.93581 15.9007 2.88084 15.7927 2.82947 15.683V15.683ZM4.30323 19.7076V27.8225H5.09444V20.9609C5.92066 22.2621 6.75373 23.559 7.5936 24.8515L7.64055 24.9235L7.65241 24.942L7.65558 24.9465L7.65637 24.9478V24.948L7.98815 24.7323L7.65663 24.9483L7.77347 25.1279H14.844C15.1251 25.9582 15.349 26.8485 15.5756 27.9051L16.3491 27.7392C16.1418 26.7713 15.9332 25.9249 15.6771 25.1279H19.5506V24.3367H15.4005C15.1999 23.8082 14.969 23.2918 14.7089 22.7899L20.494 22.7371L25.3626 27.2162L25.8982 26.6341L20.9147 22.0491L20.7994 21.9433L20.6433 21.9446L14.2743 22.0026C13.9314 21.4174 13.5306 20.8082 13.0545 20.1444H14.3674V19.3531H8.04169C7.83387 19.0628 7.61734 18.765 7.39685 18.467C6.7027 17.5289 5.96134 16.5815 5.30727 15.8658C4.98129 15.5087 4.66798 15.199 4.38657 14.9756C4.24573 14.8641 4.10437 14.767 3.96617 14.6961C3.83272 14.6278 3.6729 14.5687 3.50305 14.5687C3.17391 14.5687 2.91756 14.5811 2.72187 14.6127C2.53646 14.6428 2.33602 14.6998 2.18912 14.8467C2.02481 15.0113 2.00239 15.2104 2.00028 15.3359C1.99996 15.3916 2.00163 15.4473 2.00529 15.5029L2.00556 15.5108C2.00846 15.5646 2.01083 15.612 2.01083 15.6622C2.01083 15.7479 2.03615 15.8246 2.04828 15.86C2.06463 15.9074 2.086 15.9586 2.10894 16.0095C2.15562 16.1121 2.2205 16.2389 2.29857 16.3832C2.45523 16.6728 2.67677 17.0544 2.93945 17.4927C3.38685 18.2354 3.84155 18.9736 4.30349 19.7073L4.30323 19.7076ZM7.63369 20.1446H5.51378L5.53145 20.1728C6.41391 21.566 7.30448 22.9539 8.2031 24.3367H14.5507C14.4933 24.1948 14.4335 24.0539 14.3714 23.9139C14.2025 23.5341 14.0174 23.1617 13.8165 22.7978L9.68635 22.8355L9.47009 22.8374L9.3514 22.6562L9.68266 22.4399L9.35167 22.6562H9.3514L9.35088 22.6551L9.34824 22.6512L9.33795 22.6353C9.08572 22.2532 8.83059 21.873 8.57259 21.4947C8.26371 21.0418 7.95082 20.5917 7.63395 20.1444L7.63369 20.1446ZM13.3552 22.0111L9.89444 22.0427L9.79949 21.8998C9.40692 21.3101 9.00751 20.725 8.60134 20.1446H12.0753C12.578 20.8232 12.9981 21.4351 13.3552 22.0111Z" fill="#333136"/>
<path fill-rule="evenodd" clip-rule="evenodd" d="M17.609 6.18743C17.9787 6.23226 18.3182 6.10251 18.5933 5.93266C18.8683 5.76308 19.1136 5.53257 19.3135 5.31235C19.3544 5.55156 19.4219 5.81081 19.5366 6.03947C19.668 6.30163 19.8848 6.568 20.2347 6.67244C20.5736 6.77319 20.9526 6.69064 21.2211 6.60387C21.2216 6.64712 21.223 6.69143 21.2248 6.73679C21.2422 7.14347 21.3171 7.73029 21.631 8.13169C21.8667 8.43341 22.2075 8.5964 22.5356 8.68527C22.7645 8.74725 23.005 8.77811 23.2361 8.79024C23.1875 8.83771 23.1401 8.88677 23.0944 8.93767C22.9122 9.14022 22.7413 9.38787 22.659 9.67138L22.6556 9.68299C22.5282 10.1211 22.3887 10.6013 22.6899 11.1644C22.7598 11.2949 22.861 11.411 22.9644 11.5083L22.9628 11.5094C22.6471 11.6887 22.2096 11.9841 21.9931 12.3844C21.8129 12.7181 21.7998 13.0913 21.8485 13.4238C21.8979 13.7588 22.0152 14.0905 22.1416 14.3746L22.1442 14.3807C21.9794 14.3369 21.8037 14.3015 21.6267 14.2857C21.3572 14.2612 21.0544 14.2786 20.7788 14.4065C20.3977 14.584 20.0973 14.9646 19.9127 15.2381C19.8908 15.2705 19.87 15.3024 19.8502 15.3335C19.8353 15.3212 19.8204 15.3088 19.8054 15.2966C19.5685 15.1067 19.2067 14.8535 18.8325 14.7765C18.3533 14.6782 17.9379 14.8752 17.6211 15.1397C17.3898 15.3327 17.1875 15.5801 17.0153 15.8341C17.0094 15.8043 17.003 15.7746 16.9961 15.745C16.9249 15.4382 16.7893 15.1146 16.5303 14.8741C16.323 14.6816 16.0616 14.5661 15.8156 14.4943C15.5661 14.421 15.3055 14.3849 15.0761 14.3677C14.9381 14.3575 14.7998 14.3525 14.6615 14.353C14.658 14.2833 14.6536 14.2079 14.6462 14.1288C14.6153 13.7873 14.5354 13.2991 14.2954 12.9473C14.0778 12.6292 13.7466 12.4414 13.4219 12.3285C13.1178 12.2225 12.7882 12.1713 12.4878 12.1481C12.5898 12.0482 12.6895 11.9398 12.7802 11.8243C12.949 11.6091 13.1023 11.348 13.1605 11.0549C13.2231 10.7403 13.107 10.4246 12.9807 10.1825C12.8472 9.92668 12.661 9.67508 12.4814 9.45987C12.459 9.43305 12.4364 9.40642 12.4136 9.37996H12.4326L12.4891 9.36281L12.3738 8.98435L12.4893 9.36281H12.4896L12.4907 9.36229L12.4936 9.36149L12.5036 9.35833C12.5558 9.34173 12.6077 9.32415 12.6592 9.30558C12.7597 9.27024 12.8981 9.21802 13.049 9.15156C13.3312 9.02734 13.7305 8.82347 13.97 8.54418C14.336 8.11719 14.3344 7.59789 14.2002 7.14426C14.1555 6.99618 14.0991 6.8519 14.0314 6.71279L14.0409 6.71569C14.4529 6.84229 14.9242 6.87525 15.3543 6.64026C15.7736 6.41134 16.0936 5.95349 16.2922 5.61644C16.318 5.5724 16.3423 5.52941 16.3657 5.48721C16.3911 5.51147 16.4177 5.53574 16.4449 5.56026C16.716 5.80422 17.1445 6.13152 17.609 6.18743V6.18743ZM20.0449 4.22971V4.22734H20.0443L19.309 4.00053V4L19.3074 4.00264L19.3006 4.01424L19.2705 4.06251C19.1114 4.31535 18.9311 4.55419 18.7314 4.77644C18.5574 4.96897 18.3675 5.14251 18.1781 5.25908C17.9867 5.37749 17.8295 5.41732 17.7042 5.40202C17.5038 5.37776 17.2347 5.20686 16.9744 4.97213C16.8322 4.84342 16.699 4.70498 16.5759 4.5578L16.5712 4.552L16.5707 4.55147V4.55121L16.1468 4.02031L15.8936 4.65037V4.65064L15.8934 4.65169L15.8902 4.65908C15.8685 4.71156 15.8454 4.76345 15.8209 4.81468C15.7715 4.91965 15.6995 5.06259 15.6101 5.21477C15.4194 5.53837 15.1911 5.82796 14.9748 5.94585C14.8015 6.04079 14.5721 6.05134 14.273 5.95956C13.9736 5.86752 13.6519 5.68607 13.3449 5.46954C13.1395 5.32339 12.9421 5.16633 12.7536 4.99903C12.597 4.83779 12.4355 4.68149 12.2691 4.53037L12.2449 4.50848L12.238 4.50268L12.2359 4.50084L12.2354 4.50031C12.2351 4.50004 12.2351 4.50004 11.9751 4.79807L12.2351 4.50004L11.6839 5.06602L11.9751 4.79807L11.6839 5.06602H11.6842L11.6847 5.06681L11.6863 5.0684L11.6915 5.0742C11.7205 5.1055 11.7501 5.13627 11.7802 5.16651C11.9174 5.30626 12.0595 5.4412 12.2061 5.57108C12.4448 5.81657 12.6684 6.0763 12.8757 6.34884C13.1381 6.69829 13.3483 7.05433 13.4414 7.3687C13.5324 7.67727 13.496 7.88114 13.3692 8.0291C13.2565 8.16018 13.0078 8.30523 12.7301 8.42734C12.5931 8.48738 12.4534 8.54123 12.3116 8.58875H10.4375L11.2134 9.27974H11.2136L11.2163 9.28211L11.2263 9.29134L11.2682 9.33011C11.483 9.52994 11.6853 9.74273 11.874 9.9673C12.036 10.1614 12.1826 10.3637 12.2789 10.5483C12.3823 10.7466 12.3925 10.8585 12.3844 10.9007C12.3593 11.0262 12.2842 11.1739 12.1573 11.3361C12.032 11.4956 11.8725 11.6489 11.7089 11.7852C11.5144 11.9464 11.308 12.0927 11.0915 12.223L11.0828 12.228L11.0813 12.2288L11.0815 12.2294L11.3318 12.9636V12.9644L11.335 12.9639L11.3495 12.962L11.4101 12.9552C11.7289 12.9211 12.0499 12.9137 12.3699 12.933C12.6486 12.9509 12.9271 12.9942 13.1616 13.0757C13.3984 13.1582 13.5554 13.2674 13.6416 13.3938C13.759 13.5652 13.8289 13.8743 13.8579 14.1997C13.8736 14.3781 13.8785 14.5572 13.8726 14.7362V14.7438H13.8724V14.7441L13.8473 15.2051L14.3065 15.1589H14.3083L14.3176 15.1579L14.3571 15.155C14.5766 15.1401 14.7968 15.1406 15.0162 15.1566C15.2122 15.1713 15.4139 15.2011 15.5927 15.2534C15.775 15.3069 15.9082 15.3763 15.9918 15.4538C16.092 15.5469 16.1735 15.7017 16.2252 15.9246C16.2766 16.1445 16.2911 16.3982 16.2842 16.6491C16.2746 16.9526 16.239 17.2549 16.1777 17.5524L16.1751 17.5647L16.1743 17.5674L16.1766 17.5679L16.933 17.781L16.9349 17.7818L16.9351 17.781L16.9367 17.7765L16.9388 17.7702L16.9438 17.7562C16.9889 17.6304 17.0373 17.5058 17.0889 17.3825C17.191 17.1388 17.3379 16.8207 17.5204 16.5143C17.705 16.2031 17.9125 15.9269 18.128 15.7468C18.3414 15.5688 18.5176 15.5195 18.6732 15.5516C18.8488 15.5875 19.0849 15.7331 19.3088 15.9132C19.4307 16.0116 19.5469 16.1168 19.6569 16.2284L19.6606 16.2326L19.6611 16.2329V16.2331L20.0583 16.6538L20.3062 16.1313V16.1311L20.3065 16.1303L20.3091 16.1245L20.322 16.0992C20.3957 15.955 20.478 15.8153 20.5684 15.6809C20.744 15.4206 20.9421 15.2033 21.1122 15.1241C21.214 15.0767 21.3614 15.0561 21.5553 15.0735C21.7457 15.0909 21.9522 15.1421 22.1495 15.2083C22.3856 15.2882 22.6149 15.387 22.8352 15.5036L22.8439 15.5084L22.8452 15.5092H22.8455L22.8457 15.5087L23.36 14.934H23.3603V14.9337L23.3584 14.9311L23.3505 14.9195C23.2975 14.8419 23.2465 14.7629 23.1976 14.6826C23.0733 14.4802 22.962 14.27 22.8645 14.0534C22.754 13.8049 22.6659 13.5462 22.6311 13.3088C22.596 13.0688 22.62 12.8882 22.6891 12.7605C22.7909 12.572 23.0512 12.3689 23.3534 12.1972C23.5104 12.1085 23.6726 12.0295 23.8392 11.9606L23.8532 11.9551L23.869 11.9487L23.8754 11.9461L23.8764 11.9458H23.8767L24.6924 11.637L23.9228 11.2269H23.9226L23.9202 11.2256L23.917 11.2237L23.9073 11.2185C23.8296 11.1743 23.7542 11.1261 23.6815 11.0742C23.5349 10.9687 23.4262 10.8635 23.3874 10.7912C23.2506 10.5354 23.2862 10.3481 23.4186 9.89187C23.4552 9.7658 23.5433 9.62127 23.6823 9.46673C23.8192 9.31481 23.9882 9.17134 24.1597 9.04554C24.3629 8.89697 24.5766 8.76343 24.7992 8.64598L24.8082 8.64149L24.8098 8.6407L24.8093 8.63991L24.5505 7.90066V7.89987H24.5503L24.5471 7.9004L24.5331 7.9033C24.4393 7.92141 24.345 7.93707 24.2504 7.95024C24.0605 7.97662 23.8031 8.00299 23.5299 8.00563C23.254 8.00774 22.9773 7.98505 22.7421 7.92123C22.5045 7.85714 22.3452 7.76088 22.2539 7.64431C22.1062 7.45574 22.0318 7.09574 22.015 6.70277C22.0063 6.48578 22.0129 6.26845 22.0347 6.0524L22.0355 6.04422V6.0429H22.0358V6.04264L22.1323 5.26646L21.4503 5.64888H21.4498L21.4453 5.65152C21.4105 5.67013 21.3754 5.68799 21.3398 5.70505C21.266 5.7404 21.1636 5.78576 21.0492 5.82637C20.7939 5.91763 20.5773 5.94875 20.4602 5.91393C20.3975 5.89547 20.3205 5.83877 20.2437 5.68501C20.1664 5.53125 20.1132 5.32422 20.0805 5.09767C20.0527 4.89648 20.0386 4.69364 20.0383 4.49055C20.0378 4.4077 20.0396 4.32486 20.0435 4.24211L20.0443 4.22971H20.0449ZM17.9561 12.18C19.0875 12.18 19.9554 11.3026 19.9554 10.2801C19.9554 9.25758 19.0878 8.38013 17.9558 8.38013C16.8241 8.38013 15.9562 9.25758 15.9562 10.2801C15.9562 11.3026 16.8241 12.18 17.9558 12.18H17.9561ZM17.9561 12.9713C19.4971 12.9713 20.7467 11.7662 20.7467 10.2801C20.7467 8.79367 19.4971 7.58892 17.9558 7.58892C16.4145 7.58892 15.1649 8.79367 15.1649 10.2801C15.1649 11.7662 16.4145 12.9713 17.9558 12.9713H17.9561ZM2.82947 15.683C2.81951 15.6615 2.81019 15.6397 2.80151 15.6176C2.80046 15.5611 2.79782 15.5102 2.79545 15.4686V15.4675L2.79202 15.4047C2.80758 15.4013 2.82604 15.3976 2.84793 15.3942C2.97927 15.3731 3.18393 15.3602 3.50279 15.3602H3.50147H3.50173L3.50252 15.3604C3.50806 15.3615 3.54024 15.3673 3.60538 15.4008C3.68107 15.4396 3.7776 15.5029 3.89444 15.596C4.12811 15.7811 4.40872 16.0556 4.72283 16.3996C5.34921 17.0853 6.07158 18.0068 6.76046 18.9378C6.86332 19.0765 6.96512 19.2152 7.0656 19.3534H5.01505C4.54186 18.6025 4.07616 17.8468 3.61804 17.0866C3.35721 16.6514 3.14279 16.2814 2.99431 16.0069C2.93581 15.9007 2.88084 15.7927 2.82947 15.683V15.683ZM4.30323 19.7076V27.8225H5.09444V20.9609C5.92066 22.2621 6.75373 23.559 7.5936 24.8515L7.64055 24.9235L7.65241 24.942L7.65558 24.9465L7.65637 24.9478V24.948L7.98815 24.7323L7.65663 24.9483L7.77347 25.1279H14.844C15.1251 25.9582 15.349 26.8485 15.5756 27.9051L16.3491 27.7392C16.1418 26.7713 15.9332 25.9249 15.6771 25.1279H19.5506V24.3367H15.4005C15.1999 23.8082 14.969 23.2918 14.7089 22.7899L20.494 22.7371L25.3626 27.2162L25.8982 26.6341L20.9147 22.0491L20.7994 21.9433L20.6433 21.9446L14.2743 22.0026C13.9314 21.4174 13.5306 20.8082 13.0545 20.1444H14.3674V19.3531H8.04169C7.83387 19.0628 7.61734 18.765 7.39685 18.467C6.7027 17.5289 5.96134 16.5815 5.30727 15.8658C4.98129 15.5087 4.66798 15.199 4.38657 14.9756C4.24573 14.8641 4.10437 14.767 3.96617 14.6961C3.83272 14.6278 3.6729 14.5687 3.50305 14.5687C3.17391 14.5687 2.91756 14.5811 2.72187 14.6127C2.53646 14.6428 2.33602 14.6998 2.18912 14.8467C2.02481 15.0113 2.00239 15.2104 2.00028 15.3359C1.99996 15.3916 2.00163 15.4473 2.00529 15.5029L2.00556 15.5108C2.00846 15.5646 2.01083 15.612 2.01083 15.6622C2.01083 15.7479 2.03615 15.8246 2.04828 15.86C2.06463 15.9074 2.086 15.9586 2.10894 16.0095C2.15562 16.1121 2.2205 16.2389 2.29857 16.3832C2.45523 16.6728 2.67677 17.0544 2.93945 17.4927C3.38685 18.2354 3.84155 18.9736 4.30349 19.7073L4.30323 19.7076ZM7.63369 20.1446H5.51378L5.53145 20.1728C6.41391 21.566 7.30448 22.9539 8.2031 24.3367H14.5507C14.4933 24.1948 14.4335 24.0539 14.3714 23.9139C14.2025 23.5341 14.0174 23.1617 13.8165 22.7978L9.68635 22.8355L9.47009 22.8374L9.3514 22.6562L9.68266 22.4399L9.35167 22.6562H9.3514L9.35088 22.6551L9.34824 22.6512L9.33795 22.6353C9.08572 22.2532 8.83059 21.873 8.57259 21.4947C8.26371 21.0418 7.95082 20.5917 7.63395 20.1444L7.63369 20.1446ZM13.3552 22.0111L9.89444 22.0427L9.79949 21.8998C9.40692 21.3101 9.00751 20.725 8.60134 20.1446H12.0753C12.578 20.8232 12.9981 21.4351 13.3552 22.0111Z" stroke="#333136" stroke-width="0.2" mask="url(#path-1-outside-1_214_641)"/>
</g>
<defs>
<clipPath id="clip0_214_641">
<rect width="24" height="24" fill="white" transform="translate(2 4)"/>
</clipPath>
</defs>
</svg>
