<svg width="39" height="32" viewBox="0 0 39 32" fill="none" xmlns="http://www.w3.org/2000/svg">
<g clip-path="url(#clip0_214_658)">
<path d="M2.61315 25.8129C2.82307 26.4239 3.21066 26.9571 3.72553 27.3432C4.24039 27.7292 4.85868 27.9503 5.49998 27.9776H31.75C33.6238 27.9776 35.1016 26.76 35.8107 24.6136L36.9774 20.5007C37.0151 20.3688 37.0057 20.2277 36.9508 20.1021C36.8959 19.9765 36.7989 19.8743 36.6769 19.8132C36.5961 19.7726 36.507 19.7515 36.4168 19.7515H34.6668V18.5763H35.8335V17.401H19.8607L18.8585 15.3759C18.8099 15.2778 18.7349 15.1953 18.6421 15.1378C18.5494 15.0804 18.4425 15.0503 18.3335 15.0508H17.75V8H16.5832V15.0508H15.4164V13.2881H14.25V15.0508H13.4436L12.4414 13.0254C12.3927 12.9273 12.3177 12.8449 12.225 12.7875C12.1322 12.7301 12.0253 12.7 11.9164 12.7007H8.41642C8.30806 12.7007 8.20184 12.731 8.10965 12.7884C8.01746 12.8457 7.94294 12.9278 7.89445 13.0254L6.88954 15.0508H6.66676C6.56728 15.0507 6.46942 15.0762 6.3825 15.1249C6.29557 15.1736 6.22247 15.2439 6.17015 15.3292C6.11783 15.4144 6.08803 15.5117 6.08359 15.6118C6.07915 15.7119 6.10022 15.8114 6.14478 15.901L7.18132 17.9888L6.30632 19.7515H4.91676C4.81115 19.7515 4.70752 19.7803 4.61693 19.835C4.52633 19.8896 4.45216 19.968 4.40234 20.0618C4.35252 20.1556 4.32892 20.2613 4.33405 20.3675C4.33918 20.4738 4.37285 20.5766 4.43147 20.6651L5.38353 22.1017L4.60478 23.2769H2.58353C2.49116 23.277 2.40012 23.2991 2.31789 23.3415C2.23567 23.3839 2.16461 23.4454 2.11056 23.5208C2.05651 23.5963 2.02102 23.6836 2.007 23.7755C1.99298 23.8675 2.00084 23.9615 2.02993 24.0498L2.61315 25.8125V25.8129ZM32.3335 18.5763H33.5003V19.7515H32.3335V18.5763ZM30.0003 18.5763H31.1668V19.7515H30.0003V18.5763ZM27.6668 18.5763H28.8335V19.7515H27.6668V18.5763ZM25.3335 18.5763H26.5003V19.7515H25.3335V18.5763ZM23.0003 18.5763H24.1668V19.7515H23.0003V18.5763ZM35.6434 20.9264L35.3085 22.1017H20.9081L22.0752 20.9264H35.6434ZM21.8335 18.5763V19.7515H21.0275L20.4436 18.5763H21.8332H21.8335ZM8.77719 13.8756H11.5563L12.1395 15.0508H8.19397L8.77719 13.8756ZM8.35854 17.7261L7.61075 16.2261H17.9728L19.7228 19.7515H7.61075L8.35854 18.2515C8.399 18.1699 8.42006 18.08 8.42006 17.9888C8.42006 17.8976 8.399 17.8077 8.35854 17.7261V17.7261ZM6.56882 21.7756L6.0068 20.9264H20.4255L18.0919 23.2769H6.0068L6.56882 22.4278C6.63279 22.3312 6.66693 22.2178 6.66693 22.1017C6.66693 21.9856 6.63279 21.8721 6.56882 21.7756V21.7756ZM18.3335 24.4519C18.4883 24.4519 18.6364 24.3902 18.7458 24.28L19.742 23.2766H34.977L34.6967 24.2664C34.4446 25.0285 33.6524 26.802 31.7503 26.802H5.50031C5.10443 26.774 4.72523 26.6304 4.4091 26.3888C4.09298 26.1471 3.85364 25.8179 3.72036 25.4414L3.39257 24.4519H18.3335V24.4519Z" fill="#333136"/>
</g>
<defs>
<clipPath id="clip0_214_658">
<rect width="35" height="20" fill="white" transform="translate(2 8)"/>
</clipPath>
</defs>
</svg>
