<svg width="28" height="32" viewBox="0 0 28 32" fill="none" xmlns="http://www.w3.org/2000/svg">
<g clip-path="url(#clip0_214_645)">
<mask id="path-1-outside-1_214_645" maskUnits="userSpaceOnUse" x="1.06586" y="1.06543" width="26" height="25" fill="black">
<rect fill="white" x="1.06586" y="1.06543" width="26" height="25"/>
<path fill-rule="evenodd" clip-rule="evenodd" d="M13.5226 2.96615L13.4608 4.38445L12.6956 4.351L12.7622 2.82266L12.7648 2.767L12.7826 2.7144C12.8889 2.407 13.1896 2.25508 13.4082 2.18079C13.6538 2.09781 13.9438 2.06079 14.2201 2.06589C14.4938 2.071 14.7879 2.11772 15.033 2.22879C15.273 2.33755 15.5437 2.5487 15.5835 2.91023L15.5853 2.92504L15.5858 2.93985L15.6397 4.61219L14.8742 4.63721L14.8211 2.99525C14.82 2.99376 14.8188 2.99232 14.8175 2.99091C14.8053 2.97738 14.7757 2.95313 14.7169 2.92657C14.5969 2.87219 14.4149 2.83568 14.2061 2.83211C13.9992 2.82802 13.8001 2.85713 13.6546 2.90615C13.5849 2.92989 13.5448 2.95185 13.5228 2.96615H13.5226ZM21.703 5.69347L20.6396 6.63406L20.1323 6.06011L21.2781 5.04649L21.3198 5.00972L21.3703 4.98623C21.6649 4.84913 21.9831 4.95994 22.1884 5.06589C22.4189 5.18462 22.6466 5.36768 22.8348 5.56989C23.0215 5.77032 23.1923 6.0144 23.2824 6.26768C23.371 6.51611 23.407 6.85747 23.1746 7.13704L23.1652 7.14879L23.155 7.15925L21.9892 8.35977L21.4395 7.82615L22.5838 6.64785L22.5841 6.64581L22.5844 6.64223C22.5856 6.62385 22.5826 6.58581 22.5611 6.52504C22.5169 6.40121 22.4166 6.2447 22.2741 6.09177C22.1332 5.94036 21.9741 5.81704 21.8375 5.74657C21.7951 5.72331 21.7499 5.70547 21.703 5.69347V5.69347ZM6.94478 7.90632L5.89848 6.94708C5.90546 6.89919 5.91841 6.85236 5.93703 6.80768C5.99295 6.6647 6.0989 6.49338 6.23473 6.33738C6.37184 6.17985 6.51712 6.06368 6.63558 6.00674C6.6938 5.97866 6.73133 5.97202 6.74971 5.971H6.75533L8.02171 6.96598C6.09916 8.71211 4.86418 11.2837 4.70588 14.1823C4.55678 16.9155 5.97303 19.1753 7.42018 20.6827C8.14656 21.4395 8.89337 22.0204 9.48418 22.3908C9.7778 22.5752 10.0433 22.7143 10.2552 22.7955C10.2846 22.8067 10.314 22.8175 10.3441 22.8272V25.9505H11.1101V13.3574C11.1101 13.3431 11.1167 13.2918 11.1619 13.1986C11.2048 13.1092 11.2735 13.0017 11.3689 12.8807C11.5604 12.6389 11.8403 12.3698 12.1783 12.1211C12.8649 11.6164 13.7158 11.2495 14.4624 11.2962C15.1729 11.3406 15.9251 11.6587 16.4993 12.0915C16.7848 12.3065 17.0143 12.5409 17.1695 12.7691C17.3268 13.0002 17.3924 13.2014 17.3924 13.3574V25.9505H18.1584V22.8213C20.898 21.6198 22.2185 19.4942 22.8484 17.6641C23.1175 16.8761 23.2948 16.0596 23.3769 15.2309C23.4021 14.9803 23.4174 14.7288 23.4226 14.477C23.4242 14.3876 23.424 14.2982 23.4218 14.2089L23.4213 14.1928L23.421 14.1879V14.1859H23.4208C23.4111 8.90717 19.257 4.6104 14.1095 4.6104C11.8142 4.6104 9.7589 5.44632 8.15805 6.84445L8.5201 6.38385L7.20418 5.34981L7.19244 5.34087L7.18018 5.33245C6.87737 5.13074 6.54188 5.20223 6.30444 5.31611C6.06188 5.43253 5.83669 5.62759 5.65695 5.8344C5.47567 6.04249 5.31737 6.28811 5.2229 6.52989C5.13941 6.74513 5.06205 7.07296 5.22954 7.35202L5.25814 7.39951L5.29899 7.43704L6.42699 8.47108L6.94452 7.90632H6.94478ZM23.0383 14.2033H22.6548C22.6548 9.31696 18.8179 5.37636 14.1098 5.37636C9.41218 5.37636 5.74324 9.22708 5.47082 14.2242C5.33805 16.6599 6.60035 18.7229 7.97295 20.1524C8.65592 20.864 9.35422 21.405 9.89116 21.7423C10.065 21.8513 10.2177 21.9364 10.3441 21.9981V14.6802H7.05456V14.2972C7.05456 12.4145 7.8121 10.7049 9.04273 9.44155C10.3635 8.08581 12.2309 7.24172 14.298 7.24172C16.3678 7.24172 18.1635 8.08811 19.4128 9.44972C20.5755 10.7174 21.2595 12.4255 21.2595 14.2972V14.6802H18.1581V21.9775C20.4435 20.8645 21.5677 19.0311 22.1238 17.4149C22.3736 16.6831 22.5382 15.9249 22.6145 15.1553C22.6433 14.8627 22.6535 14.6256 22.6564 14.4632C22.6578 14.3864 22.6576 14.3096 22.6558 14.2329L22.6556 14.2227V14.2206L23.0381 14.2033H23.0383ZM18.1584 13.9142H20.4831C20.4049 12.5174 19.9012 11.2474 19.0895 10.2471L17.3056 11.7683C17.492 11.9391 17.6588 12.1303 17.8027 12.3381C18.0126 12.6463 18.1584 12.9969 18.1584 13.3574V13.9142V13.9142ZM16.6878 11.2888L18.5702 9.6836C17.5653 8.7236 16.2233 8.10649 14.6812 8.01866V10.5463C15.3953 10.625 16.1036 10.9094 16.6875 11.2888H16.6878ZM13.9152 10.5545V8.0184C12.3532 8.107 10.941 8.73253 9.87048 9.70657L11.7427 11.4907C12.3466 11.0501 13.1209 10.6604 13.9155 10.5545H13.9152ZM11.1517 11.9858L9.33558 10.255C8.46827 11.2579 7.91856 12.5256 7.83252 13.9142H10.3441V13.3576C10.3441 13.184 10.4003 13.0142 10.472 12.8656C10.5458 12.7127 10.6482 12.5572 10.7682 12.4053C10.8782 12.2664 11.0074 12.1252 11.1517 11.9858V11.9858ZM7.68265 21.5697L6.89499 22.7506C6.84664 22.751 6.79844 22.7453 6.7515 22.7337C6.60137 22.7005 6.41601 22.6219 6.24086 22.5116C6.06444 22.4 5.92733 22.2744 5.85278 22.1659C5.81652 22.1128 5.80401 22.0765 5.80044 22.0587L5.79993 22.0556L5.79941 22.053L6.60469 20.6212L5.93703 20.2459L5.11695 21.7043L5.10954 21.7173L5.10316 21.7308C4.95022 22.061 5.07227 22.3816 5.22112 22.5989C5.37329 22.821 5.60052 23.0133 5.83235 23.1593C6.06597 23.3067 6.33278 23.4256 6.58605 23.4816C6.81175 23.5313 7.1475 23.5574 7.39746 23.3493L7.44009 23.3136L7.47099 23.2676L8.31993 21.9946L7.68265 21.5697V21.5697ZM22.7832 21.8084L21.8952 20.7011L22.4927 20.2219L23.4499 21.4155L23.4846 21.4589L23.5058 21.5105C23.6284 21.8115 23.5025 22.1238 23.3868 22.3237C23.2569 22.5484 23.0631 22.7669 22.8519 22.9451C22.6426 23.1218 22.3908 23.2804 22.1332 23.3585C21.8809 23.4351 21.5383 23.4542 21.2702 23.2089L21.259 23.1987L21.2488 23.1877L20.1062 21.9655L20.6656 21.4423L21.7875 22.6423C21.7894 22.6426 21.7912 22.6429 21.7931 22.6431C21.8112 22.6451 21.8495 22.6441 21.9111 22.6252C22.0369 22.5872 22.1983 22.4947 22.3579 22.3597C22.5159 22.2264 22.6469 22.0732 22.7238 21.9404C22.7603 21.8766 22.7761 21.834 22.7832 21.8084V21.8084ZM23.8461 13.4907L25.2657 13.5039C25.281 13.5254 25.304 13.5647 25.3301 13.6334C25.3844 13.7771 25.4202 13.9755 25.4235 14.1821C25.4268 14.3909 25.3967 14.5745 25.3464 14.696C25.3219 14.7555 25.2987 14.7859 25.2856 14.7987C25.2842 14.8 25.2828 14.8013 25.2813 14.8025L23.6421 14.912L23.6932 15.6762L25.363 15.5646L25.3778 15.5636L25.3926 15.5616C25.7526 15.5092 25.9543 15.2317 26.0546 14.9879C26.157 14.7392 26.1938 14.4438 26.1895 14.1698C26.1849 13.8936 26.1384 13.605 26.0465 13.3625C25.9648 13.1465 25.8029 12.8511 25.4919 12.7559L25.4388 12.7395L25.3832 12.739L23.8533 12.7247L23.8461 13.4907V13.4907ZM4.38086 14.9626L2.96282 14.8926C2.93764 14.8513 2.91774 14.8069 2.90358 14.7606C2.85507 14.6151 2.82724 14.4154 2.8321 14.2086C2.8372 13.9998 2.87473 13.8177 2.92988 13.698C2.95669 13.6398 2.9812 13.6101 2.99473 13.5979C2.99613 13.5966 2.99758 13.5955 2.99907 13.5943L4.64129 13.5504L4.62086 12.7847L2.94801 12.8294L2.9332 12.8299L2.91839 12.8314C2.55661 12.8695 2.34392 13.1388 2.23388 13.3783C2.12154 13.6227 2.07303 13.9165 2.06665 14.1902C2.06001 14.4665 2.09499 14.7565 2.17695 15.0027C2.24997 15.2217 2.4001 15.5235 2.70699 15.631L2.75933 15.6494L2.81499 15.6522L4.34307 15.7275L4.38061 14.9626H4.38086Z"/>
</mask>
<path fill-rule="evenodd" clip-rule="evenodd" d="M13.5226 2.96615L13.4608 4.38445L12.6956 4.351L12.7622 2.82266L12.7648 2.767L12.7826 2.7144C12.8889 2.407 13.1896 2.25508 13.4082 2.18079C13.6538 2.09781 13.9438 2.06079 14.2201 2.06589C14.4938 2.071 14.7879 2.11772 15.033 2.22879C15.273 2.33755 15.5437 2.5487 15.5835 2.91023L15.5853 2.92504L15.5858 2.93985L15.6397 4.61219L14.8742 4.63721L14.8211 2.99525C14.82 2.99376 14.8188 2.99232 14.8175 2.99091C14.8053 2.97738 14.7757 2.95313 14.7169 2.92657C14.5969 2.87219 14.4149 2.83568 14.2061 2.83211C13.9992 2.82802 13.8001 2.85713 13.6546 2.90615C13.5849 2.92989 13.5448 2.95185 13.5228 2.96615H13.5226ZM21.703 5.69347L20.6396 6.63406L20.1323 6.06011L21.2781 5.04649L21.3198 5.00972L21.3703 4.98623C21.6649 4.84913 21.9831 4.95994 22.1884 5.06589C22.4189 5.18462 22.6466 5.36768 22.8348 5.56989C23.0215 5.77032 23.1923 6.0144 23.2824 6.26768C23.371 6.51611 23.407 6.85747 23.1746 7.13704L23.1652 7.14879L23.155 7.15925L21.9892 8.35977L21.4395 7.82615L22.5838 6.64785L22.5841 6.64581L22.5844 6.64223C22.5856 6.62385 22.5826 6.58581 22.5611 6.52504C22.5169 6.40121 22.4166 6.2447 22.2741 6.09177C22.1332 5.94036 21.9741 5.81704 21.8375 5.74657C21.7951 5.72331 21.7499 5.70547 21.703 5.69347V5.69347ZM6.94478 7.90632L5.89848 6.94708C5.90546 6.89919 5.91841 6.85236 5.93703 6.80768C5.99295 6.6647 6.0989 6.49338 6.23473 6.33738C6.37184 6.17985 6.51712 6.06368 6.63558 6.00674C6.6938 5.97866 6.73133 5.97202 6.74971 5.971H6.75533L8.02171 6.96598C6.09916 8.71211 4.86418 11.2837 4.70588 14.1823C4.55678 16.9155 5.97303 19.1753 7.42018 20.6827C8.14656 21.4395 8.89337 22.0204 9.48418 22.3908C9.7778 22.5752 10.0433 22.7143 10.2552 22.7955C10.2846 22.8067 10.314 22.8175 10.3441 22.8272V25.9505H11.1101V13.3574C11.1101 13.3431 11.1167 13.2918 11.1619 13.1986C11.2048 13.1092 11.2735 13.0017 11.3689 12.8807C11.5604 12.6389 11.8403 12.3698 12.1783 12.1211C12.8649 11.6164 13.7158 11.2495 14.4624 11.2962C15.1729 11.3406 15.9251 11.6587 16.4993 12.0915C16.7848 12.3065 17.0143 12.5409 17.1695 12.7691C17.3268 13.0002 17.3924 13.2014 17.3924 13.3574V25.9505H18.1584V22.8213C20.898 21.6198 22.2185 19.4942 22.8484 17.6641C23.1175 16.8761 23.2948 16.0596 23.3769 15.2309C23.4021 14.9803 23.4174 14.7288 23.4226 14.477C23.4242 14.3876 23.424 14.2982 23.4218 14.2089L23.4213 14.1928L23.421 14.1879V14.1859H23.4208C23.4111 8.90717 19.257 4.6104 14.1095 4.6104C11.8142 4.6104 9.7589 5.44632 8.15805 6.84445L8.5201 6.38385L7.20418 5.34981L7.19244 5.34087L7.18018 5.33245C6.87737 5.13074 6.54188 5.20223 6.30444 5.31611C6.06188 5.43253 5.83669 5.62759 5.65695 5.8344C5.47567 6.04249 5.31737 6.28811 5.2229 6.52989C5.13941 6.74513 5.06205 7.07296 5.22954 7.35202L5.25814 7.39951L5.29899 7.43704L6.42699 8.47108L6.94452 7.90632H6.94478ZM23.0383 14.2033H22.6548C22.6548 9.31696 18.8179 5.37636 14.1098 5.37636C9.41218 5.37636 5.74324 9.22708 5.47082 14.2242C5.33805 16.6599 6.60035 18.7229 7.97295 20.1524C8.65592 20.864 9.35422 21.405 9.89116 21.7423C10.065 21.8513 10.2177 21.9364 10.3441 21.9981V14.6802H7.05456V14.2972C7.05456 12.4145 7.8121 10.7049 9.04273 9.44155C10.3635 8.08581 12.2309 7.24172 14.298 7.24172C16.3678 7.24172 18.1635 8.08811 19.4128 9.44972C20.5755 10.7174 21.2595 12.4255 21.2595 14.2972V14.6802H18.1581V21.9775C20.4435 20.8645 21.5677 19.0311 22.1238 17.4149C22.3736 16.6831 22.5382 15.9249 22.6145 15.1553C22.6433 14.8627 22.6535 14.6256 22.6564 14.4632C22.6578 14.3864 22.6576 14.3096 22.6558 14.2329L22.6556 14.2227V14.2206L23.0381 14.2033H23.0383ZM18.1584 13.9142H20.4831C20.4049 12.5174 19.9012 11.2474 19.0895 10.2471L17.3056 11.7683C17.492 11.9391 17.6588 12.1303 17.8027 12.3381C18.0126 12.6463 18.1584 12.9969 18.1584 13.3574V13.9142V13.9142ZM16.6878 11.2888L18.5702 9.6836C17.5653 8.7236 16.2233 8.10649 14.6812 8.01866V10.5463C15.3953 10.625 16.1036 10.9094 16.6875 11.2888H16.6878ZM13.9152 10.5545V8.0184C12.3532 8.107 10.941 8.73253 9.87048 9.70657L11.7427 11.4907C12.3466 11.0501 13.1209 10.6604 13.9155 10.5545H13.9152ZM11.1517 11.9858L9.33558 10.255C8.46827 11.2579 7.91856 12.5256 7.83252 13.9142H10.3441V13.3576C10.3441 13.184 10.4003 13.0142 10.472 12.8656C10.5458 12.7127 10.6482 12.5572 10.7682 12.4053C10.8782 12.2664 11.0074 12.1252 11.1517 11.9858V11.9858ZM7.68265 21.5697L6.89499 22.7506C6.84664 22.751 6.79844 22.7453 6.7515 22.7337C6.60137 22.7005 6.41601 22.6219 6.24086 22.5116C6.06444 22.4 5.92733 22.2744 5.85278 22.1659C5.81652 22.1128 5.80401 22.0765 5.80044 22.0587L5.79993 22.0556L5.79941 22.053L6.60469 20.6212L5.93703 20.2459L5.11695 21.7043L5.10954 21.7173L5.10316 21.7308C4.95022 22.061 5.07227 22.3816 5.22112 22.5989C5.37329 22.821 5.60052 23.0133 5.83235 23.1593C6.06597 23.3067 6.33278 23.4256 6.58605 23.4816C6.81175 23.5313 7.1475 23.5574 7.39746 23.3493L7.44009 23.3136L7.47099 23.2676L8.31993 21.9946L7.68265 21.5697V21.5697ZM22.7832 21.8084L21.8952 20.7011L22.4927 20.2219L23.4499 21.4155L23.4846 21.4589L23.5058 21.5105C23.6284 21.8115 23.5025 22.1238 23.3868 22.3237C23.2569 22.5484 23.0631 22.7669 22.8519 22.9451C22.6426 23.1218 22.3908 23.2804 22.1332 23.3585C21.8809 23.4351 21.5383 23.4542 21.2702 23.2089L21.259 23.1987L21.2488 23.1877L20.1062 21.9655L20.6656 21.4423L21.7875 22.6423C21.7894 22.6426 21.7912 22.6429 21.7931 22.6431C21.8112 22.6451 21.8495 22.6441 21.9111 22.6252C22.0369 22.5872 22.1983 22.4947 22.3579 22.3597C22.5159 22.2264 22.6469 22.0732 22.7238 21.9404C22.7603 21.8766 22.7761 21.834 22.7832 21.8084V21.8084ZM23.8461 13.4907L25.2657 13.5039C25.281 13.5254 25.304 13.5647 25.3301 13.6334C25.3844 13.7771 25.4202 13.9755 25.4235 14.1821C25.4268 14.3909 25.3967 14.5745 25.3464 14.696C25.3219 14.7555 25.2987 14.7859 25.2856 14.7987C25.2842 14.8 25.2828 14.8013 25.2813 14.8025L23.6421 14.912L23.6932 15.6762L25.363 15.5646L25.3778 15.5636L25.3926 15.5616C25.7526 15.5092 25.9543 15.2317 26.0546 14.9879C26.157 14.7392 26.1938 14.4438 26.1895 14.1698C26.1849 13.8936 26.1384 13.605 26.0465 13.3625C25.9648 13.1465 25.8029 12.8511 25.4919 12.7559L25.4388 12.7395L25.3832 12.739L23.8533 12.7247L23.8461 13.4907V13.4907ZM4.38086 14.9626L2.96282 14.8926C2.93764 14.8513 2.91774 14.8069 2.90358 14.7606C2.85507 14.6151 2.82724 14.4154 2.8321 14.2086C2.8372 13.9998 2.87473 13.8177 2.92988 13.698C2.95669 13.6398 2.9812 13.6101 2.99473 13.5979C2.99613 13.5966 2.99758 13.5955 2.99907 13.5943L4.64129 13.5504L4.62086 12.7847L2.94801 12.8294L2.9332 12.8299L2.91839 12.8314C2.55661 12.8695 2.34392 13.1388 2.23388 13.3783C2.12154 13.6227 2.07303 13.9165 2.06665 14.1902C2.06001 14.4665 2.09499 14.7565 2.17695 15.0027C2.24997 15.2217 2.4001 15.5235 2.70699 15.631L2.75933 15.6494L2.81499 15.6522L4.34307 15.7275L4.38061 14.9626H4.38086Z" fill="#333136"/>
<path fill-rule="evenodd" clip-rule="evenodd" d="M13.5226 2.96615L13.4608 4.38445L12.6956 4.351L12.7622 2.82266L12.7648 2.767L12.7826 2.7144C12.8889 2.407 13.1896 2.25508 13.4082 2.18079C13.6538 2.09781 13.9438 2.06079 14.2201 2.06589C14.4938 2.071 14.7879 2.11772 15.033 2.22879C15.273 2.33755 15.5437 2.5487 15.5835 2.91023L15.5853 2.92504L15.5858 2.93985L15.6397 4.61219L14.8742 4.63721L14.8211 2.99525C14.82 2.99376 14.8188 2.99232 14.8175 2.99091C14.8053 2.97738 14.7757 2.95313 14.7169 2.92657C14.5969 2.87219 14.4149 2.83568 14.2061 2.83211C13.9992 2.82802 13.8001 2.85713 13.6546 2.90615C13.5849 2.92989 13.5448 2.95185 13.5228 2.96615H13.5226ZM21.703 5.69347L20.6396 6.63406L20.1323 6.06011L21.2781 5.04649L21.3198 5.00972L21.3703 4.98623C21.6649 4.84913 21.9831 4.95994 22.1884 5.06589C22.4189 5.18462 22.6466 5.36768 22.8348 5.56989C23.0215 5.77032 23.1923 6.0144 23.2824 6.26768C23.371 6.51611 23.407 6.85747 23.1746 7.13704L23.1652 7.14879L23.155 7.15925L21.9892 8.35977L21.4395 7.82615L22.5838 6.64785L22.5841 6.64581L22.5844 6.64223C22.5856 6.62385 22.5826 6.58581 22.5611 6.52504C22.5169 6.40121 22.4166 6.2447 22.2741 6.09177C22.1332 5.94036 21.9741 5.81704 21.8375 5.74657C21.7951 5.72331 21.7499 5.70547 21.703 5.69347V5.69347ZM6.94478 7.90632L5.89848 6.94708C5.90546 6.89919 5.91841 6.85236 5.93703 6.80768C5.99295 6.6647 6.0989 6.49338 6.23473 6.33738C6.37184 6.17985 6.51712 6.06368 6.63558 6.00674C6.6938 5.97866 6.73133 5.97202 6.74971 5.971H6.75533L8.02171 6.96598C6.09916 8.71211 4.86418 11.2837 4.70588 14.1823C4.55678 16.9155 5.97303 19.1753 7.42018 20.6827C8.14656 21.4395 8.89337 22.0204 9.48418 22.3908C9.7778 22.5752 10.0433 22.7143 10.2552 22.7955C10.2846 22.8067 10.314 22.8175 10.3441 22.8272V25.9505H11.1101V13.3574C11.1101 13.3431 11.1167 13.2918 11.1619 13.1986C11.2048 13.1092 11.2735 13.0017 11.3689 12.8807C11.5604 12.6389 11.8403 12.3698 12.1783 12.1211C12.8649 11.6164 13.7158 11.2495 14.4624 11.2962C15.1729 11.3406 15.9251 11.6587 16.4993 12.0915C16.7848 12.3065 17.0143 12.5409 17.1695 12.7691C17.3268 13.0002 17.3924 13.2014 17.3924 13.3574V25.9505H18.1584V22.8213C20.898 21.6198 22.2185 19.4942 22.8484 17.6641C23.1175 16.8761 23.2948 16.0596 23.3769 15.2309C23.4021 14.9803 23.4174 14.7288 23.4226 14.477C23.4242 14.3876 23.424 14.2982 23.4218 14.2089L23.4213 14.1928L23.421 14.1879V14.1859H23.4208C23.4111 8.90717 19.257 4.6104 14.1095 4.6104C11.8142 4.6104 9.7589 5.44632 8.15805 6.84445L8.5201 6.38385L7.20418 5.34981L7.19244 5.34087L7.18018 5.33245C6.87737 5.13074 6.54188 5.20223 6.30444 5.31611C6.06188 5.43253 5.83669 5.62759 5.65695 5.8344C5.47567 6.04249 5.31737 6.28811 5.2229 6.52989C5.13941 6.74513 5.06205 7.07296 5.22954 7.35202L5.25814 7.39951L5.29899 7.43704L6.42699 8.47108L6.94452 7.90632H6.94478ZM23.0383 14.2033H22.6548C22.6548 9.31696 18.8179 5.37636 14.1098 5.37636C9.41218 5.37636 5.74324 9.22708 5.47082 14.2242C5.33805 16.6599 6.60035 18.7229 7.97295 20.1524C8.65592 20.864 9.35422 21.405 9.89116 21.7423C10.065 21.8513 10.2177 21.9364 10.3441 21.9981V14.6802H7.05456V14.2972C7.05456 12.4145 7.8121 10.7049 9.04273 9.44155C10.3635 8.08581 12.2309 7.24172 14.298 7.24172C16.3678 7.24172 18.1635 8.08811 19.4128 9.44972C20.5755 10.7174 21.2595 12.4255 21.2595 14.2972V14.6802H18.1581V21.9775C20.4435 20.8645 21.5677 19.0311 22.1238 17.4149C22.3736 16.6831 22.5382 15.9249 22.6145 15.1553C22.6433 14.8627 22.6535 14.6256 22.6564 14.4632C22.6578 14.3864 22.6576 14.3096 22.6558 14.2329L22.6556 14.2227V14.2206L23.0381 14.2033H23.0383ZM18.1584 13.9142H20.4831C20.4049 12.5174 19.9012 11.2474 19.0895 10.2471L17.3056 11.7683C17.492 11.9391 17.6588 12.1303 17.8027 12.3381C18.0126 12.6463 18.1584 12.9969 18.1584 13.3574V13.9142V13.9142ZM16.6878 11.2888L18.5702 9.6836C17.5653 8.7236 16.2233 8.10649 14.6812 8.01866V10.5463C15.3953 10.625 16.1036 10.9094 16.6875 11.2888H16.6878ZM13.9152 10.5545V8.0184C12.3532 8.107 10.941 8.73253 9.87048 9.70657L11.7427 11.4907C12.3466 11.0501 13.1209 10.6604 13.9155 10.5545H13.9152ZM11.1517 11.9858L9.33558 10.255C8.46827 11.2579 7.91856 12.5256 7.83252 13.9142H10.3441V13.3576C10.3441 13.184 10.4003 13.0142 10.472 12.8656C10.5458 12.7127 10.6482 12.5572 10.7682 12.4053C10.8782 12.2664 11.0074 12.1252 11.1517 11.9858V11.9858ZM7.68265 21.5697L6.89499 22.7506C6.84664 22.751 6.79844 22.7453 6.7515 22.7337C6.60137 22.7005 6.41601 22.6219 6.24086 22.5116C6.06444 22.4 5.92733 22.2744 5.85278 22.1659C5.81652 22.1128 5.80401 22.0765 5.80044 22.0587L5.79993 22.0556L5.79941 22.053L6.60469 20.6212L5.93703 20.2459L5.11695 21.7043L5.10954 21.7173L5.10316 21.7308C4.95022 22.061 5.07227 22.3816 5.22112 22.5989C5.37329 22.821 5.60052 23.0133 5.83235 23.1593C6.06597 23.3067 6.33278 23.4256 6.58605 23.4816C6.81175 23.5313 7.1475 23.5574 7.39746 23.3493L7.44009 23.3136L7.47099 23.2676L8.31993 21.9946L7.68265 21.5697V21.5697ZM22.7832 21.8084L21.8952 20.7011L22.4927 20.2219L23.4499 21.4155L23.4846 21.4589L23.5058 21.5105C23.6284 21.8115 23.5025 22.1238 23.3868 22.3237C23.2569 22.5484 23.0631 22.7669 22.8519 22.9451C22.6426 23.1218 22.3908 23.2804 22.1332 23.3585C21.8809 23.4351 21.5383 23.4542 21.2702 23.2089L21.259 23.1987L21.2488 23.1877L20.1062 21.9655L20.6656 21.4423L21.7875 22.6423C21.7894 22.6426 21.7912 22.6429 21.7931 22.6431C21.8112 22.6451 21.8495 22.6441 21.9111 22.6252C22.0369 22.5872 22.1983 22.4947 22.3579 22.3597C22.5159 22.2264 22.6469 22.0732 22.7238 21.9404C22.7603 21.8766 22.7761 21.834 22.7832 21.8084V21.8084ZM23.8461 13.4907L25.2657 13.5039C25.281 13.5254 25.304 13.5647 25.3301 13.6334C25.3844 13.7771 25.4202 13.9755 25.4235 14.1821C25.4268 14.3909 25.3967 14.5745 25.3464 14.696C25.3219 14.7555 25.2987 14.7859 25.2856 14.7987C25.2842 14.8 25.2828 14.8013 25.2813 14.8025L23.6421 14.912L23.6932 15.6762L25.363 15.5646L25.3778 15.5636L25.3926 15.5616C25.7526 15.5092 25.9543 15.2317 26.0546 14.9879C26.157 14.7392 26.1938 14.4438 26.1895 14.1698C26.1849 13.8936 26.1384 13.605 26.0465 13.3625C25.9648 13.1465 25.8029 12.8511 25.4919 12.7559L25.4388 12.7395L25.3832 12.739L23.8533 12.7247L23.8461 13.4907V13.4907ZM4.38086 14.9626L2.96282 14.8926C2.93764 14.8513 2.91774 14.8069 2.90358 14.7606C2.85507 14.6151 2.82724 14.4154 2.8321 14.2086C2.8372 13.9998 2.87473 13.8177 2.92988 13.698C2.95669 13.6398 2.9812 13.6101 2.99473 13.5979C2.99613 13.5966 2.99758 13.5955 2.99907 13.5943L4.64129 13.5504L4.62086 12.7847L2.94801 12.8294L2.9332 12.8299L2.91839 12.8314C2.55661 12.8695 2.34392 13.1388 2.23388 13.3783C2.12154 13.6227 2.07303 13.9165 2.06665 14.1902C2.06001 14.4665 2.09499 14.7565 2.17695 15.0027C2.24997 15.2217 2.4001 15.5235 2.70699 15.631L2.75933 15.6494L2.81499 15.6522L4.34307 15.7275L4.38061 14.9626H4.38086Z" stroke="#333136" stroke-width="0.2" mask="url(#path-1-outside-1_214_645)"/>
</g>
<defs>
<clipPath id="clip0_214_645">
<rect width="24.2553" height="24" fill="white" transform="translate(2 2)"/>
</clipPath>
</defs>
</svg>
