<svg width="182" height="45" viewBox="0 0 182 45" fill="none" xmlns="http://www.w3.org/2000/svg">
<path fill-rule="evenodd" clip-rule="evenodd" d="M16.3142 13.6698C16.2323 13.7517 16.2323 13.7517 16.0685 13.8337C16.3142 13.9975 16.724 14.0795 17.0518 14.2434C17.3796 14.3254 17.7893 14.4073 17.9532 14.5712C17.9532 14.5712 17.9532 14.5712 18.0352 14.5712L21.7228 15.7185C22.87 16.1282 24.1812 16.3741 25.4104 16.7838C27.3772 17.3574 30.819 18.3408 32.7857 18.8325C41.8819 21.127 48.5196 23.4215 57.9436 24.4868C58.2714 24.5688 58.5991 24.5688 59.0088 24.5688C60.32 24.7327 63.1062 24.9785 64.4174 25.0604C67.2036 25.1424 70.5635 25.1424 73.0219 24.4049C75.6442 23.5855 76.9554 22.1104 76.1359 19.7339C76.1359 19.652 75.972 19.57 75.89 19.57C75.8082 19.57 75.7262 19.652 75.7262 19.8158V21.2909C75.7262 21.3728 75.7262 21.3728 75.6442 21.4548C75.2344 22.0284 74.6608 22.3562 73.9233 22.602C71.301 23.5855 66.0564 23.2576 63.1882 22.9299C62.4507 22.8479 58.6811 22.4381 58.1075 22.1923H58.0255C57.206 22.1923 52.6989 21.2089 51.7976 20.9631C47.1265 19.7339 38.6859 17.4394 34.7525 15.3087C33.769 14.817 30.3273 13.0962 30.9829 11.6211C31.1467 11.2933 31.6385 10.8016 31.8843 10.6378C35.49 7.68761 41.0624 7.35986 45.5695 7.44173L48.9293 7.60565C47.2904 7.19594 46.389 7.03202 44.5042 7.03202C41.7999 7.03202 38.1942 7.44173 35.49 8.01544C31.1467 8.99877 28.0327 9.73631 23.7715 11.1294C22.952 11.3752 16.9698 13.4239 16.3142 13.6698C16.3962 13.6698 16.3962 13.6698 16.3142 13.6698ZM2.13744 4.4098C3.36664 4.57372 4.34997 4.90146 5.57926 5.639C6.89042 6.37654 7.62787 6.95016 8.77521 7.85162C8.85717 7.93349 9.02099 7.93349 9.10295 7.85162C10.3322 6.4585 13.5281 5.96675 15.9046 5.72096C15.9866 5.72096 16.0685 5.639 16.0685 5.47508C16.0685 5.39312 15.9866 5.2293 15.9046 5.2293C13.9379 4.90146 12.8725 4.8195 10.2502 5.55704C8.11963 6.13066 9.67657 6.21262 7.46405 5.06538C5.90701 4.24588 4.02223 3.83618 2.13744 4.08197C2.05548 4.08197 1.97353 4.16392 1.97353 4.32784C1.97353 4.32784 2.05548 4.4098 2.13744 4.4098ZM52.4531 42.6792C50.4044 42.8431 48.2738 43.007 46.2251 42.925C35.8997 42.5972 29.18 41.1222 18.8546 42.5972C18.7726 42.5972 18.7726 42.5972 18.6908 42.6792L18.6088 42.7611C18.5269 42.8431 18.5269 42.925 18.6088 43.007C18.6908 43.089 18.7726 43.089 18.8546 43.089C29.18 41.6958 44.1764 45.7113 52.617 43.089C52.6989 43.089 52.7809 42.925 52.7809 42.8431C52.6989 42.7611 52.617 42.6792 52.4531 42.6792ZM72.858 38.4999C73.0219 38.4179 73.1858 38.336 73.3497 38.254C73.4316 38.1721 73.5136 38.0901 73.4316 38.0081C73.4316 37.9262 73.2678 37.8443 73.1858 37.8443C73.0219 37.8443 72.776 37.9262 72.4483 38.0081C59.7464 40.1388 16.5601 35.9595 9.0209 41.5319C8.93903 41.6139 8.93903 41.6958 8.93903 41.7778C9.0209 41.8597 9.10286 41.9416 9.18482 41.9416C28.8522 37.8443 57.6977 44.9737 72.858 38.4999ZM92.6896 24.8147C83.675 28.7481 74.2511 30.3051 64.8271 30.8787C64.7452 30.8787 64.5813 30.7968 64.5813 30.7149C64.5813 30.6329 64.6633 30.469 64.7452 30.469C66.1383 30.1412 67.6134 29.6495 69.0065 29.1578C70.1537 28.7481 71.3829 28.0926 72.3663 27.437C72.776 27.1911 73.2678 26.8634 73.6775 26.5355C73.7595 26.4536 73.7595 26.2896 73.7595 26.2078C73.6775 26.1258 73.5955 26.0439 73.4316 26.1258C71.9565 26.9452 70.5635 27.6828 68.6787 28.3383C60.4839 31.4524 52.2073 31.6982 44.0125 28.7481L37.8664 25.1424C37.3748 24.8147 36.8012 24.4868 36.3094 24.241L34.7525 23.4215C30.9009 21.2909 25.6563 18.7505 21.5589 17.1116C20.9033 16.8657 20.4116 16.7018 19.7561 16.456C19.1824 16.2921 18.5269 15.9643 17.9532 15.8005C18.0352 16.0462 18.0352 15.9643 18.6088 16.2102C18.7726 16.2921 19.1824 16.456 19.2644 16.5379C19.2644 16.5379 19.2644 16.5379 19.3464 16.5379C20.0019 16.8657 21.8048 17.6852 22.5423 18.0949C23.5256 18.5866 24.5909 19.1602 25.6563 19.652C26.6396 20.1436 27.705 20.7173 28.6883 21.2909C29.18 21.5368 29.6717 21.8645 30.1634 22.1104L31.6385 22.9299C34.5885 24.5688 36.1456 25.716 38.604 27.6008C39.0956 27.9286 39.4235 28.3384 39.8332 28.6662C40.8985 29.5676 41.0624 29.9773 41.4721 30.7149C41.4721 30.7968 41.4721 30.8787 41.4721 30.9607C41.3902 31.0426 41.3902 31.0426 41.3083 31.0426C27.623 30.551 15.167 30.469 5.57917 35.3039C2.79293 36.697 2.30127 37.1887 0.334526 39.0735C-0.0752684 39.4832 0.00669054 39.5652 0.00669054 40.3027C0.00669054 40.6305 0.00669054 40.9583 0.00669054 41.368C0.00669054 41.45 0.0886501 41.5319 0.0886501 41.5319C0.170609 41.6139 0.252567 41.5319 0.334526 41.5319C20.5756 29.0759 84.2489 46.039 93.0169 25.0604C93.0169 24.9785 93.0169 24.8966 92.9353 24.8147C92.9353 24.8147 92.7712 24.8147 92.6896 24.8147ZM71.8747 16.0462C72.5303 16.7018 72.4483 17.2754 70.3176 17.2754C68.6787 17.2754 67.4494 17.1116 66.2202 16.9477C66.1384 16.9477 65.9744 17.0297 65.9744 17.1116C65.9744 17.1935 66.0564 17.3574 66.1383 17.3574C68.0231 17.8491 69.9899 18.2589 71.6288 18.1769C73.3497 18.0949 74.415 17.0297 72.6121 15.8823C72.5303 15.8005 72.3663 15.7185 72.1205 15.6365C72.0385 15.5546 71.8747 15.6365 71.7927 15.7185C71.7927 15.8823 71.7927 15.9643 71.8747 16.0462ZM56.0588 13.9156C58.3533 14.4073 62.1229 14.817 64.6633 13.0142C65.2369 12.6044 66.3022 11.6211 66.63 10.8016C66.63 10.7196 66.63 10.6378 66.5481 10.5558C66.0564 10.146 65.073 9.40847 64.4994 9.16269C64.4174 9.16269 64.3354 9.16269 64.3354 9.16269C64.2535 9.16269 64.2535 9.24465 64.1716 9.3266L63.3521 11.867C63.3521 11.867 63.3521 11.9489 63.2702 11.9489C62.6965 12.5225 61.7951 12.8503 60.8118 13.0962C59.7464 13.342 58.6811 13.4239 57.5339 13.5059C57.206 13.5059 56.6324 13.5059 56.1407 13.5059C56.0588 13.5059 55.8949 13.5878 55.8949 13.6698C55.8949 13.8337 55.9768 13.9156 56.0588 13.9156ZM49.0113 7.76956C48.7654 8.01544 47.5362 8.91681 47.3723 9.08073C48.4377 8.83485 52.0433 6.21253 52.9448 5.31116C53.4365 4.8195 53.4365 4.73754 54.3379 4.98332C56.7144 5.55695 60.7298 6.62232 62.7785 7.76956L67.3676 10.5558C67.4494 10.5558 67.4494 10.6378 67.4494 10.7196C67.5314 12.0308 66.0564 13.342 65.3189 13.8337C62.6146 15.7185 59.6644 15.3907 56.3866 14.817C56.3047 14.817 56.1407 14.899 56.1407 14.981C56.1407 15.0629 56.2227 15.2267 56.3047 15.2267C57.4519 15.5546 58.845 15.8005 59.9923 15.8005C62.041 15.8823 64.0897 15.7185 65.8105 14.6531C67.2037 13.8337 68.3509 12.5225 68.7606 10.8016C68.8426 10.3099 68.7606 10.3099 68.5148 9.98218C68.0231 9.40847 67.2856 8.91681 66.63 8.50711C64.6633 7.2779 59.2547 5.31116 56.7144 4.8195C55.5671 4.57362 54.4199 4.16383 53.2725 4C53.1906 4 53.1087 4 53.0267 4.08196C52.1253 5.06528 51.2238 6.0487 50.1586 6.86811C49.8308 7.11399 49.421 7.52369 49.0933 7.60565C49.0933 7.68761 49.0113 7.6876 49.0113 7.76956Z" fill="#E5550E"/>
<path d="M119.882 16.4H121.916V29H120.17L113.636 20V29H111.602V16.4H113.474L119.882 25.256V16.4Z" fill="black"/>
<path d="M132.935 19.28H134.483V29H132.863L132.665 27.812C131.729 28.76 130.559 29.234 129.155 29.234C127.703 29.234 126.491 28.748 125.519 27.776C124.559 26.804 124.079 25.592 124.079 24.14C124.079 22.676 124.559 21.464 125.519 20.504C126.491 19.532 127.703 19.046 129.155 19.046C130.583 19.046 131.765 19.526 132.701 20.486L132.935 19.28ZM127.013 26.426C127.625 27.026 128.387 27.326 129.299 27.326C130.223 27.326 130.979 27.026 131.567 26.426C132.167 25.814 132.467 25.052 132.467 24.14C132.467 23.216 132.167 22.454 131.567 21.854C130.979 21.254 130.223 20.954 129.299 20.954C128.699 20.954 128.153 21.092 127.661 21.368C127.181 21.644 126.803 22.028 126.527 22.52C126.251 23 126.113 23.54 126.113 24.14C126.113 25.052 126.413 25.814 127.013 26.426Z" fill="black"/>
<path d="M145.018 16.4H147.286L142.372 29H140.446L135.424 16.4H137.71L141.4 26.048L145.018 16.4Z" fill="black"/>
<path d="M156.192 27.794C155.208 28.754 153.972 29.234 152.484 29.234C150.996 29.234 149.754 28.754 148.758 27.794C147.774 26.822 147.282 25.604 147.282 24.14C147.282 23.18 147.504 22.31 147.948 21.53C148.404 20.75 149.028 20.144 149.82 19.712C150.624 19.268 151.512 19.046 152.484 19.046C153.456 19.046 154.338 19.268 155.13 19.712C155.934 20.144 156.558 20.75 157.002 21.53C157.458 22.31 157.686 23.18 157.686 24.14C157.686 25.604 157.188 26.822 156.192 27.794ZM152.484 27.326C153.096 27.326 153.642 27.194 154.122 26.93C154.602 26.654 154.974 26.276 155.238 25.796C155.514 25.304 155.652 24.752 155.652 24.14C155.652 23.216 155.352 22.454 154.752 21.854C154.164 21.254 153.408 20.954 152.484 20.954C151.56 20.954 150.798 21.254 150.198 21.854C149.61 22.454 149.316 23.216 149.316 24.14C149.316 25.064 149.61 25.826 150.198 26.426C150.798 27.026 151.56 27.326 152.484 27.326Z" fill="black"/>
<path d="M167.357 15.788H169.355V29H167.843L167.591 27.902C166.655 28.79 165.509 29.234 164.153 29.234C162.689 29.234 161.477 28.754 160.517 27.794C159.569 26.822 159.095 25.604 159.095 24.14C159.095 22.676 159.569 21.464 160.517 20.504C161.477 19.532 162.689 19.046 164.153 19.046C165.389 19.046 166.457 19.424 167.357 20.18V15.788ZM162.047 26.426C162.647 27.026 163.403 27.326 164.315 27.326C165.227 27.326 165.983 27.026 166.583 26.426C167.195 25.814 167.501 25.052 167.501 24.14C167.501 23.54 167.363 23 167.087 22.52C166.811 22.028 166.427 21.644 165.935 21.368C165.455 21.092 164.915 20.954 164.315 20.954C163.715 20.954 163.169 21.092 162.677 21.368C162.197 21.644 161.819 22.028 161.543 22.52C161.279 23 161.147 23.54 161.147 24.14C161.147 25.052 161.447 25.814 162.047 26.426Z" fill="black"/>
<path d="M181.441 24.158C181.441 24.338 181.429 24.56 181.405 24.824H173.521C173.641 25.604 173.965 26.222 174.493 26.678C175.033 27.134 175.699 27.362 176.491 27.362C176.875 27.362 177.235 27.308 177.571 27.2C177.907 27.08 178.201 26.918 178.453 26.714C178.717 26.498 178.933 26.24 179.101 25.94H181.207C180.823 26.972 180.211 27.782 179.371 28.37C178.531 28.946 177.571 29.234 176.491 29.234C175.063 29.234 173.869 28.748 172.909 27.776C171.961 26.804 171.487 25.592 171.487 24.14C171.487 22.688 171.961 21.476 172.909 20.504C173.869 19.532 175.063 19.046 176.491 19.046C177.463 19.046 178.327 19.28 179.083 19.748C179.839 20.204 180.421 20.822 180.829 21.602C181.237 22.37 181.441 23.222 181.441 24.158ZM176.491 20.846C175.747 20.846 175.111 21.056 174.583 21.476C174.067 21.896 173.725 22.472 173.557 23.204H179.443C179.323 22.712 179.125 22.292 178.849 21.944C178.573 21.584 178.231 21.314 177.823 21.134C177.427 20.942 176.983 20.846 176.491 20.846Z" fill="black"/>
</svg>
